<svg width="340" height="240" viewBox="0 0 340 240" fill="none" xmlns="http://www.w3.org/2000/svg">
<path d="M34.8032 173.521C49.0176 207.792 80.1903 239.786 119.46 228.843C142.153 222.523 165.634 209.512 189.902 212.486C204.746 214.298 218.803 219.99 233.13 223.94C279.147 236.626 320.441 206.143 335.06 163.275C341.763 143.595 341.965 121.383 333.688 102.307C314.841 58.9748 268.127 67.0372 232.298 51.075C213.855 42.8732 199.506 27.4222 183.492 15.5493C146.337 -11.9372 94.7871 -0.296672 62.4223 29.5133C28.2358 61.0194 18.5196 111.299 28.933 155.491C30.3274 161.416 32.3067 167.504 34.8032 173.521Z" fill="#111111" fill-opacity="0.05"/>
<path d="M56 239H261V84H56V239Z" fill="url(#paint0_linear_8757_22182)"/>
<path d="M55.6 239.076H147.628H265.813L265.459 178.073C252.776 158.527 236.308 139.238 205.993 138.529C176.862 137.842 163.285 142.89 163.285 142.89C138.417 146.348 131.451 152.555 122.157 166.26C116.855 174.078 110.472 185.656 103.236 183.551C94.6485 181.059 84.065 134.684 84.065 134.684L47.4909 144.135C46.4513 136.209 48.8425 170.663 55.6 207.694V239.076Z" fill="#111111"/>
<path d="M187.321 155.627C204.059 152.018 210.567 144.501 213.083 139.066C210.817 138.787 208.446 138.594 205.993 138.529C176.862 137.842 165.364 142.245 165.364 142.245C158.232 143.233 150.497 145.102 145.84 146.67C145.881 146.691 159.521 161.641 187.321 155.627Z" fill="white"/>
<path d="M187.091 96.7723C186.717 96.2568 186.315 95.7628 185.885 95.2902C185.864 95.2688 185.843 95.2473 185.843 95.2473C181.248 90.1566 174.366 87.4286 167.213 88.653C158.314 90.178 151.66 97.3093 150.122 105.966C150.122 105.966 145.63 128.348 150.621 132.558C160.684 141.128 197.861 135.909 201.999 123.128C203.704 117.93 191.166 101.82 187.091 96.7723Z" fill="#111111"/>
<path fill-rule="evenodd" clip-rule="evenodd" d="M265.811 240H55.5978C55.0988 240 54.7037 239.592 54.7037 239.076V207.78C51.4809 190.124 49.36 173.713 48.1541 163.059C45.8877 142.975 46.4283 142.524 46.6986 142.288C46.9481 142.073 47.3016 142.009 47.6135 142.138C47.9669 142.267 48.1125 142.503 48.2165 142.997L83.8341 133.782C84.0628 133.718 84.3123 133.761 84.5203 133.889C84.7282 134.018 84.8737 134.233 84.9361 134.469C87.8471 147.207 96.8503 180.737 103.462 182.67C109.18 184.324 114.586 176.097 119.369 168.837C120.055 167.763 120.741 166.711 121.427 165.723C130.701 152.061 139.621 144.909 165.154 141.343C166.401 140.892 178.108 136.961 206.011 137.605C236.68 138.336 253.647 158.205 266.206 177.558C266.31 177.708 266.372 177.902 266.372 178.073L266.705 239.076C266.705 239.313 266.622 239.549 266.455 239.742C266.289 239.914 266.06 240 265.811 240ZM56.4919 238.153H264.917L264.563 178.374C251.672 158.548 235.62 140.162 205.97 139.453C177.421 138.787 165.778 143.083 165.674 143.126C165.618 143.14 165.556 143.154 165.487 143.169C140.556 146.648 131.886 153.544 122.883 166.797C122.217 167.763 121.552 168.816 120.845 169.868C115.73 177.644 109.95 186.472 102.984 184.453C94.5631 182.004 85.2064 143.555 83.3975 135.801L48.2165 144.909C48.6739 152.083 51.3353 179.362 56.4919 207.522C56.4919 207.58 56.4919 207.637 56.4919 207.694V238.153Z" fill="#111111"/>
<path d="M189.315 142.954L186.425 133.739C170.789 136.682 176.985 118.317 176.985 118.317C168.356 102.658 164.613 114.429 151.972 103.302L150.62 107.018C150.807 122.849 148.686 138.83 164.967 137.455L166.464 146.842L189.315 142.954Z" fill="white"/>
<path d="M188.191 140.333C187.817 140.333 187.463 140.076 187.338 139.689L185.28 133.116C185.114 132.622 185.384 132.107 185.841 131.935C186.319 131.784 186.819 132.042 186.985 132.536L189.043 139.109C189.189 139.603 188.939 140.119 188.461 140.269C188.378 140.312 188.288 140.333 188.191 140.333Z" fill="#111111"/>
<path d="M166.111 145.532C165.674 145.532 165.3 145.209 165.217 144.758L164.219 138.422C159.956 138.637 156.734 137.67 154.426 135.458C149.643 130.904 149.685 121.882 149.726 112.345C149.726 110.584 149.747 108.801 149.726 107.04C149.726 106.803 150.018 104.333 151.244 101.648C151.452 101.176 151.972 100.982 152.43 101.197C152.887 101.412 153.074 101.97 152.866 102.422C151.764 104.849 151.515 107.104 151.515 107.126C151.535 108.801 151.535 110.584 151.515 112.345C151.473 121.474 151.452 130.088 155.632 134.104C157.711 136.08 160.747 136.875 164.884 136.531C165.362 136.489 165.778 136.811 165.861 137.305L166.984 144.458C167.067 144.973 166.735 145.446 166.257 145.532C166.201 145.532 166.153 145.532 166.111 145.532Z" fill="#111111"/>
<path d="M164.969 138.379C164.533 138.379 164.158 138.057 164.075 137.606C163.992 137.09 164.325 136.617 164.824 136.532C169.19 135.78 172.371 133.932 172.392 133.911C172.829 133.653 173.37 133.804 173.619 134.255C173.869 134.684 173.723 135.264 173.286 135.522C173.162 135.586 169.814 137.563 165.115 138.357C165.059 138.372 165.011 138.379 164.969 138.379Z" fill="#111111"/>
<path d="M165.925 143.384C165.925 143.384 168.982 145.338 171.394 142.933C173.785 140.505 173.431 134.276 173.431 134.276L164.969 137.455L165.925 143.384Z" fill="#111111"/>
<path d="M155.88 124.052C155.36 124.052 154.965 123.622 154.965 123.128L155.11 113.484C155.131 112.968 155.526 112.581 156.004 112.581C156.524 112.581 156.919 112.99 156.899 113.505L156.774 123.15C156.753 123.644 156.358 124.052 155.88 124.052Z" fill="#111111"/>
<path d="M147.627 212.935C147.502 212.935 147.377 212.907 147.252 212.849C141.763 210.143 137.896 204.816 136.918 198.63C135.692 190.918 139.039 183.293 145.464 179.169C145.901 178.911 146.441 179.04 146.712 179.47C146.961 179.899 146.836 180.479 146.421 180.759C140.599 184.475 137.584 191.37 138.686 198.329C139.58 203.914 143.073 208.725 148.022 211.174C148.458 211.389 148.645 211.947 148.438 212.42C148.292 212.742 147.959 212.935 147.627 212.935Z" fill="white"/>
<path d="M145.943 180.887C145.507 180.887 145.132 180.565 145.049 180.114L143.739 171.78C143.656 171.286 143.989 170.813 144.467 170.727C144.966 170.641 145.424 170.985 145.507 171.479L146.817 179.813C146.9 180.329 146.567 180.801 146.089 180.887C146.033 180.887 145.985 180.887 145.943 180.887Z" fill="white"/>
<path d="M147.687 240C147.209 240 146.793 239.592 146.793 239.076L146.73 212.012C146.73 211.496 147.126 211.088 147.625 211.088C148.124 211.088 148.519 211.496 148.519 212.012L148.581 239.076C148.581 239.592 148.186 240 147.687 240Z" fill="white"/>
<path d="M251.527 239.227C251.256 239.227 250.965 239.098 250.799 238.84L219.672 193.711C219.381 193.303 219.464 192.723 219.88 192.422C220.275 192.121 220.837 192.229 221.128 192.637L252.254 237.766C252.545 238.196 252.441 238.775 252.046 239.055C251.88 239.184 251.714 239.227 251.527 239.227Z" fill="white"/>
<path d="M151.598 115.503C151.598 116.276 152.221 116.899 152.97 116.899C153.718 116.899 154.321 116.276 154.321 115.503C154.321 114.729 153.718 114.085 152.97 114.085C152.221 114.085 151.598 114.729 151.598 115.503Z" fill="#111111"/>
<path d="M161.914 114.085C161.914 114.858 162.517 115.503 163.266 115.503C164.014 115.503 164.617 114.858 164.617 114.085C164.617 113.312 164.014 112.689 163.266 112.689C162.517 112.689 161.914 113.312 161.914 114.085Z" fill="#111111"/>
<path d="M158.148 127.424C157.773 127.424 157.42 127.166 157.295 126.78C157.15 126.286 157.399 125.77 157.877 125.62C158.605 125.362 159.354 123.923 159.603 123.278C159.79 122.806 160.31 122.57 160.768 122.741C161.225 122.935 161.454 123.472 161.287 123.944C161.163 124.224 160.185 126.801 158.418 127.381C158.335 127.41 158.245 127.424 158.148 127.424Z" fill="#111111"/>
<path d="M173.057 109.639C170.52 111.679 170.042 115.46 171.996 118.102C173.971 120.722 177.631 121.216 180.168 119.197C182.725 117.157 183.203 113.376 181.228 110.756C179.274 108.114 175.614 107.62 173.057 109.639Z" fill="white"/>
<path d="M176.447 116.877C176.363 116.877 176.28 116.863 176.197 116.834C175.719 116.684 175.449 116.169 175.594 115.675L176.655 112.066C176.8 111.572 177.299 111.293 177.777 111.443C178.256 111.593 178.505 112.109 178.38 112.603L177.299 116.233C177.195 116.62 176.842 116.877 176.447 116.877Z" fill="#111111"/>
<path d="M55.5977 239.076H265.81V207.694H55.5977V239.076Z" fill="white"/>
<path d="M265.81 208.618H55.5972C55.0982 208.618 54.7031 208.188 54.7031 207.694C54.7031 207.179 55.0982 206.749 55.5972 206.749H265.81C266.309 206.749 266.704 207.179 266.704 207.694C266.704 208.188 266.309 208.618 265.81 208.618Z" fill="#111111"/>
<path fill-rule="evenodd" clip-rule="evenodd" d="M265.81 240H55.5972C55.0982 240 54.7031 239.592 54.7031 239.076V79.3736C54.7031 78.8795 55.0982 78.45 55.5972 78.45H265.81C266.309 78.45 266.704 78.8795 266.704 79.3736V239.076C266.704 239.592 266.309 240 265.81 240ZM56.4913 238.153H264.916V80.3187H56.4913V238.153Z" fill="#111111"/>
<path d="M0.894531 124.417L91.4046 124.481L91.4253 64.6384L0.936119 64.5955L0.894531 124.417Z" fill="white"/>
<path fill-rule="evenodd" clip-rule="evenodd" d="M91.4041 125.405L0.894078 125.341C0.395056 125.341 0 124.932 0 124.417L0.0207875 64.5955C0.0207875 64.3377 0.124748 64.1015 0.291088 63.9296C0.457429 63.7578 0.686155 63.6719 0.935665 63.6719L91.4249 63.7148C91.9239 63.7148 92.319 64.1444 92.319 64.6385L92.2982 124.481C92.2982 124.718 92.1942 124.954 92.0279 125.126C91.8615 125.298 91.6328 125.405 91.4041 125.405ZM1.78816 123.493L90.51 123.558L90.5308 65.5621L1.82974 65.5191L1.78816 123.493Z" fill="#111111"/>
<path d="M46.1578 104.226C45.9499 104.226 45.742 104.14 45.5756 104.011L0.351791 65.3043C-0.0224747 64.9821 -0.0848473 64.4022 0.227041 63.9941C0.559722 63.6074 1.12112 63.543 1.49538 63.8867L46.1578 102.099L90.8618 63.9296C91.2361 63.6074 91.7975 63.6504 92.1094 64.0585C92.4421 64.4451 92.3797 65.0251 92.0054 65.3688L46.7192 104.011C46.5529 104.14 46.3657 104.226 46.1578 104.226Z" fill="#111111"/>
<path d="M0.890943 125.34C0.641432 125.34 0.391919 125.233 0.225578 125.04C-0.107103 124.653 -0.0655126 124.073 0.308754 123.729L33.8887 93.2495C34.263 92.9273 34.8244 92.9488 35.1571 93.3354C35.469 93.7221 35.4482 94.302 35.0739 94.6457L1.47313 125.126C1.30679 125.276 1.09887 125.34 0.890943 125.34Z" fill="#111111"/>
<path d="M91.4062 125.405C91.1774 125.405 90.9695 125.319 90.8032 125.169L57.4103 94.7961C57.036 94.4739 56.9945 93.8725 57.3271 93.4858C57.6598 93.1207 58.2212 93.0777 58.5955 93.4214L91.9884 123.772C92.3626 124.116 92.4042 124.696 92.0715 125.083C91.8844 125.297 91.6557 125.405 91.4062 125.405Z" fill="#111111"/>
<path d="M69.4472 162.35C79.3652 160.61 86.1644 151.073 84.8336 140.763L84.0643 134.684C83.1702 128.928 81.7979 122.527 67.4303 124.417C67.4303 124.417 64.2074 119.133 60.9638 112.689C55.5993 102.035 42.8742 101.884 48.8209 114.386L46.1595 108.221C42.4376 98.0181 37.2187 100.123 34.4741 101.541C30.2324 103.753 33.4344 111.271 33.4344 111.271C33.4344 111.271 29.7957 99.7794 21.7906 104.097C17.5281 106.395 22.0193 112.517 27.3214 124.481L19.2539 124.417C19.2539 124.417 28.4234 132.429 30.4195 134.276C32.4156 136.123 46.1595 136.08 46.1595 136.08L47.8853 146.541C49.611 157.066 59.2588 164.133 69.4472 162.35Z" fill="white"/>
<path fill-rule="evenodd" clip-rule="evenodd" d="M66.264 163.553C62.2511 163.553 58.3213 162.286 54.9737 159.816C50.7112 156.701 47.8834 152.04 46.9893 146.713L45.4091 137.004C41.9368 136.983 31.7692 136.789 29.8147 134.963C27.8602 133.159 18.753 125.212 18.6699 125.126C18.3788 124.889 18.2748 124.46 18.3996 124.095C18.5451 123.729 18.8154 123.472 19.2521 123.493L25.9057 123.536C24.9492 121.41 24.0136 119.455 23.1611 117.715C19.5016 110.09 17.2768 105.493 21.3729 103.281C23.6185 102.056 25.8017 101.863 27.7978 102.722C29.2533 103.324 30.4385 104.398 31.3741 105.558C31.4365 103.646 32.1019 101.734 34.0772 100.725C35.8861 99.7795 38.3188 98.8343 40.8763 99.8654C43.1843 100.789 45.118 103.173 46.6359 106.954C47.1349 105.429 48.1537 104.698 48.6735 104.441C52.1043 102.658 58.3213 105.429 61.7521 112.259C64.3719 117.457 67.0334 121.968 67.9067 123.429C82.9397 121.646 84.1457 129.379 84.9358 134.534L85.7259 140.634C87.1398 151.481 80.0495 161.427 69.5908 163.274C68.4819 163.46 67.373 163.553 66.264 163.553ZM46.1576 135.157C46.5943 135.157 46.9685 135.479 47.0517 135.93L48.7567 146.391C49.5676 151.245 52.1459 155.477 56.0133 158.312C59.8807 161.147 64.6006 162.264 69.2997 161.448C78.7812 159.773 85.2268 150.751 83.9585 140.892L83.1684 134.792C82.3367 129.529 81.401 123.515 67.5532 125.34C67.1997 125.383 66.867 125.212 66.6799 124.911C66.6383 124.868 63.3947 119.519 60.1718 113.118C57.0945 107.018 51.7924 104.892 49.4844 106.095C47.9042 106.911 47.7379 109.252 48.9646 112.474L49.63 113.999C49.8379 114.472 49.63 115.009 49.1933 115.223C48.7567 115.438 48.2161 115.245 48.0082 114.794C47.7448 114.221 47.5092 113.684 47.3012 113.183L45.3467 108.586C43.9328 104.741 42.2278 102.4 40.2318 101.584C38.3396 100.832 36.4683 101.562 34.8673 102.379C32.185 103.775 33.3078 108.178 33.9316 110.047C34.1395 110.584 34.2643 110.927 34.2851 110.992C34.4306 111.464 34.1811 111.98 33.7445 112.152C33.287 112.324 32.788 112.109 32.6009 111.658C32.5801 111.593 32.4345 111.25 32.2474 110.713C31.5821 109.102 29.8771 105.579 27.1324 104.419C25.6146 103.796 23.9928 103.947 22.2046 104.913C19.7719 106.223 21.2274 109.531 24.7829 116.877C25.7809 119.004 26.9453 121.388 28.1305 124.095C28.276 124.374 28.2345 124.718 28.0681 124.975C27.9018 125.255 27.6107 125.405 27.3196 125.405L21.7056 125.362C24.5126 127.811 29.5652 132.257 30.9999 133.589C32.1019 134.598 39.504 135.178 46.1576 135.157Z" fill="#111111"/>
<path d="M180.895 221.742C180.895 226.017 184.242 229.475 188.38 229.475C192.518 229.475 195.865 226.017 195.865 221.742C195.865 217.468 192.518 214.009 188.38 214.009C184.242 214.009 180.895 217.468 180.895 221.742Z" fill="#CECECE"/>
<path d="M125.543 221.742C125.543 226.017 128.911 229.475 133.028 229.475C137.166 229.475 140.514 226.017 140.514 221.742C140.514 217.468 137.166 214.009 133.028 214.009C128.911 214.009 125.543 217.468 125.543 221.742Z" fill="#111111"/>
<path d="M153.219 221.742C153.219 226.017 156.566 229.475 160.704 229.475C164.842 229.475 168.189 226.017 168.189 221.742C168.189 217.468 164.842 214.009 160.704 214.009C156.566 214.009 153.219 217.468 153.219 221.742Z" fill="url(#paint1_linear_8757_22182)"/>
<path d="M58.7184 137.004H46.1597C45.6607 137.004 45.2656 136.596 45.2656 136.08C45.2656 135.565 45.6607 135.157 46.1597 135.157H58.7184C59.2175 135.157 59.6125 135.565 59.6125 136.08C59.6125 136.596 59.2175 137.004 58.7184 137.004Z" fill="#111111"/>
<path d="M53.7079 127.016C53.3544 127.016 53.0218 126.801 52.8762 126.457L43.1037 103.044C42.9166 102.572 43.1245 102.035 43.5819 101.842C44.0394 101.627 44.5592 101.842 44.7463 102.314L54.5188 125.727C54.7268 126.178 54.498 126.737 54.0614 126.93C53.9366 126.987 53.8188 127.016 53.7079 127.016Z" fill="#111111"/>
<path d="M41.2538 130.947C40.9003 130.947 40.5676 130.732 40.4221 130.388L32.604 111.658C32.4169 111.185 32.6248 110.627 33.0615 110.433C33.5189 110.219 34.0595 110.433 34.2466 110.906L42.0646 129.658C42.2726 130.109 42.0647 130.667 41.6072 130.861C41.4825 130.918 41.3646 130.947 41.2538 130.947Z" fill="#111111"/>
<path d="M29.5672 130.195C29.2345 130.195 28.9226 130.002 28.7563 129.679L26.5107 124.889C26.3028 124.417 26.4899 123.858 26.9266 123.644C27.384 123.429 27.9246 123.622 28.1325 124.073L30.3781 128.863C30.5861 129.336 30.3989 129.873 29.9623 130.109C29.8375 130.166 29.7058 130.195 29.5672 130.195Z" fill="#111111"/>
<defs>
<linearGradient id="paint0_linear_8757_22182" x1="21.285" y1="105.222" x2="256.79" y2="207.384" gradientUnits="userSpaceOnUse">
<stop stop-color="#35A1DA"/>
<stop offset="0.25" stop-color="#857BBD"/>
<stop offset="0.5" stop-color="#E8584B"/>
<stop offset="0.75" stop-color="#584F9E"/>
<stop offset="1" stop-color="#CE4C9B"/>
</linearGradient>
<linearGradient id="paint1_linear_8757_22182" x1="136" y1="222.107" x2="166.954" y2="231.554" gradientUnits="userSpaceOnUse">
<stop stop-color="#35A1DA"/>
<stop offset="0.25" stop-color="#857BBD"/>
<stop offset="0.5" stop-color="#E8584B"/>
<stop offset="0.75" stop-color="#584F9E"/>
<stop offset="1" stop-color="#CE4C9B"/>
</linearGradient>
</defs>
</svg>
