<svg width="340" height="240" viewBox="0 0 340 240" fill="none" xmlns="http://www.w3.org/2000/svg">
<path d="M34.8032 57.5063C49.0176 23.2352 80.1903 -8.7588 119.46 2.18469C142.154 8.5045 165.634 41.5159 189.902 38.5419C204.746 36.7296 218.803 31.0371 233.13 27.0872C279.147 14.4011 310.441 24.8849 325.06 67.7527C331.763 87.4324 341.965 109.645 333.688 128.72C314.841 172.053 268.127 163.99 232.298 179.953C213.855 188.154 199.506 203.605 183.492 215.478C146.337 242.965 94.7871 231.324 62.4223 201.514C28.2358 170.008 18.5196 119.729 28.933 75.5363C30.3274 69.6115 32.3067 63.524 34.8032 57.5063Z" fill="#111111" fill-opacity="0.05"/>
<path d="M240.878 139.287L219.857 125.38C220.982 123.188 222.276 121.027 220.596 115.856C220.319 114.991 218.809 111.565 218.978 110.731C219.101 110.006 219.487 109.311 220.057 108.786C221.613 107.366 224.049 107.598 225.297 109.28L229.119 115.454L236.594 101.115H236.609C237.102 100.173 238.104 99.5864 239.167 99.6944C241.032 99.8951 242.049 101.732 241.495 103.26L242.558 101.238V101.223C243.082 100.235 244.176 99.6327 245.301 99.8179C247.212 100.142 248.091 102.149 247.274 103.708L246.01 106.085C246.704 104.788 248.26 104.402 249.617 104.973C252.067 106.039 250.634 108.74 249.94 110.052C250.711 108.585 253.655 107.567 255.042 110.253C255.627 111.395 241.479 138.145 240.878 139.287Z" fill="white"/>
<path fill-rule="evenodd" clip-rule="evenodd" d="M240.879 139.704C240.802 139.704 240.725 139.673 240.648 139.627L219.642 125.719C219.457 125.611 219.395 125.38 219.503 125.194L219.642 124.932C220.69 122.894 221.768 120.78 220.212 115.979C220.135 115.763 219.981 115.377 219.811 114.914C219.056 112.985 218.44 111.333 218.578 110.654C218.732 109.836 219.148 109.064 219.78 108.477C220.613 107.721 221.722 107.351 222.847 107.459C223.957 107.567 224.974 108.138 225.637 109.033L229.089 114.621L236.24 100.929C236.24 100.909 236.245 100.893 236.256 100.883C236.841 99.8024 238.028 99.1541 239.215 99.2931C240.201 99.3857 241.064 99.9105 241.573 100.744C241.727 100.991 241.85 101.269 241.927 101.547L242.189 101.037C242.821 99.8487 244.1 99.2004 245.364 99.4165C246.381 99.5863 247.229 100.188 247.676 101.099C248.107 101.979 248.092 103.029 247.645 103.908L247.352 104.464C248.092 104.217 248.955 104.248 249.787 104.603C250.527 104.927 251.02 105.421 251.251 106.069C251.529 106.841 251.39 107.706 251.112 108.493C251.559 108.292 252.053 108.169 252.546 108.169C253.763 108.169 254.765 108.848 255.397 110.067C255.566 110.391 256.075 111.364 241.326 139.318L241.249 139.473C241.187 139.581 241.095 139.658 240.987 139.689C240.946 139.699 240.91 139.704 240.879 139.704ZM220.397 125.241L240.725 138.701C249.016 122.987 254.58 111.673 254.642 110.391C254.025 109.249 253.162 109.002 252.546 109.002C251.636 109.002 250.681 109.527 250.311 110.237C250.203 110.438 249.957 110.515 249.756 110.407C249.556 110.314 249.479 110.067 249.587 109.867C249.587 109.867 249.587 109.861 249.587 109.851C250.049 108.971 250.866 107.412 250.481 106.332C250.326 105.915 249.987 105.591 249.463 105.359C248.23 104.835 246.936 105.22 246.381 106.27C246.273 106.471 246.027 106.548 245.826 106.44C245.626 106.332 245.549 106.085 245.657 105.884L246.92 103.522C247.244 102.874 247.26 102.102 246.936 101.454C246.612 100.806 245.98 100.358 245.225 100.219C244.3 100.065 243.391 100.543 242.929 101.408L241.865 103.461C241.758 103.646 241.526 103.723 241.326 103.646C241.141 103.553 241.033 103.337 241.11 103.121C241.341 102.488 241.249 101.763 240.879 101.176C240.494 100.559 239.862 100.188 239.122 100.111C238.259 100.003 237.396 100.482 236.964 101.3C236.964 101.31 236.959 101.32 236.949 101.331L229.49 115.64C229.413 115.779 229.289 115.856 229.135 115.856C228.997 115.871 228.858 115.794 228.781 115.67L224.959 109.496C224.435 108.817 223.649 108.369 222.77 108.277C221.876 108.2 220.998 108.493 220.335 109.079C219.842 109.542 219.503 110.16 219.38 110.808C219.272 111.318 220.15 113.54 220.566 114.605C220.767 115.099 220.921 115.485 220.998 115.717C222.647 120.795 221.506 123.064 220.397 125.241Z" fill="#111111"/>
<path d="M246.028 106.085L242.961 111.889L246.028 106.085Z" fill="white"/>
<path d="M242.958 112.29C242.896 112.29 242.835 112.275 242.773 112.244C242.573 112.136 242.496 111.889 242.604 111.688L245.655 105.884C245.763 105.683 246.01 105.606 246.21 105.714C246.41 105.822 246.487 106.069 246.379 106.27L243.328 112.074C243.251 112.213 243.112 112.29 242.958 112.29Z" fill="#111111"/>
<path d="M241.494 103.26L238.273 109.403L241.494 103.26Z" fill="white"/>
<path d="M238.274 109.805C238.202 109.805 238.135 109.789 238.074 109.759C237.873 109.65 237.796 109.403 237.904 109.203L241.141 103.075C241.249 102.874 241.495 102.797 241.696 102.905C241.896 103.013 241.973 103.26 241.865 103.461L238.629 109.589C238.552 109.728 238.413 109.805 238.274 109.805Z" fill="#111111"/>
<path d="M250.727 108.57L247.676 114.374L250.727 108.57Z" fill="white"/>
<path d="M247.677 114.775C247.605 114.775 247.538 114.76 247.476 114.729C247.276 114.621 247.199 114.374 247.307 114.173L250.358 108.385C250.466 108.184 250.713 108.107 250.913 108.215C251.113 108.323 251.19 108.57 251.083 108.771L248.031 114.559C247.954 114.698 247.815 114.775 247.677 114.775Z" fill="#111111"/>
<path d="M242.158 138.654L213.137 185.749C208.93 192.572 201.856 197.094 193.919 198.051C187.662 198.808 181.343 197.28 176.118 193.745L143.584 171.764L142.32 149.984L154.65 147.329C157.932 146.619 161.369 146.835 164.529 147.978L188.602 166.099L219.41 121.906L242.158 138.654Z" fill="#111111"/>
<path d="M213.138 186.166C213.06 186.166 212.983 186.15 212.922 186.104C212.721 185.981 212.66 185.734 212.783 185.533L241.603 138.762L219.503 122.493L184.056 173.339C183.917 173.524 183.67 173.57 183.485 173.431C183.3 173.308 183.254 173.045 183.377 172.86L219.071 121.675C219.133 121.582 219.241 121.521 219.348 121.505C219.456 121.49 219.564 121.505 219.657 121.582L242.404 138.315C242.574 138.438 242.62 138.685 242.512 138.87L213.477 185.965C213.4 186.104 213.261 186.166 213.138 186.166Z" fill="#111111"/>
<path d="M95.5631 214.058H173.254L154.713 154.878C153.542 151.127 149.766 148.811 145.883 149.475C145.883 149.475 125.57 152.284 118.989 154.106C112.454 155.912 97.7824 163.923 97.7824 163.923C94.5767 165.173 92.5578 168.353 92.7736 171.78L95.5631 214.058Z" fill="#111111"/>
<g opacity="0.4">
<path d="M139.331 182.446C139.228 182.446 139.125 182.436 139.022 182.415C138.483 182.291 137.99 181.875 137.697 181.273C137.512 180.856 137.42 180.439 137.327 180.022L137.281 179.806C137.204 179.405 137.096 179.297 137.019 179.266C136.942 179.251 136.818 179.281 136.711 179.343C136.587 179.405 136.495 179.498 136.402 179.575C136.341 179.626 136.274 179.678 136.202 179.729C135.74 180.1 135.185 180.3 134.645 180.3C134.014 180.316 133.428 180.053 133.058 179.606C132.58 179.019 132.565 178.247 132.596 177.707C132.673 176.673 132.95 175.623 133.428 174.697C133.536 174.496 133.782 174.419 133.983 174.512C134.183 174.62 134.26 174.867 134.152 175.067C133.736 175.901 133.474 176.827 133.428 177.769C133.382 178.386 133.474 178.803 133.705 179.081C133.906 179.328 134.26 179.482 134.63 179.482C135 179.482 135.37 179.343 135.709 179.081C135.76 179.04 135.817 178.993 135.878 178.942C136.002 178.834 136.125 178.726 136.279 178.633C136.618 178.432 136.973 178.386 137.281 178.494C137.882 178.695 138.036 179.374 138.082 179.636L138.128 179.853C138.221 180.238 138.298 180.594 138.437 180.918C138.622 181.288 138.914 181.551 139.207 181.612C139.5 181.674 139.824 181.52 139.885 181.304C139.947 181.072 140.178 180.949 140.394 181.01C140.61 181.057 140.748 181.288 140.687 181.504C140.517 182.122 139.916 182.446 139.331 182.446Z" fill="white"/>
</g>
<path d="M173.253 214.475C173.068 214.475 172.914 214.352 172.852 214.182L156.562 162.132C156.485 161.916 156.608 161.685 156.824 161.623C157.04 161.561 157.271 161.669 157.348 161.885L173.638 213.935C173.7 214.151 173.592 214.383 173.361 214.444C173.32 214.465 173.284 214.475 173.253 214.475Z" fill="#111111"/>
<path d="M130.008 131.199L131.949 151.096C131.949 151.096 145.019 161.113 132.997 166.47C115.798 174.157 111.837 157.471 111.837 157.471L108.816 132.002L130.008 131.199Z" fill="white"/>
<path fill-rule="evenodd" clip-rule="evenodd" d="M124.673 168.909C122.654 168.909 120.79 168.492 119.094 167.658C113.192 164.741 111.496 157.857 111.435 157.563L108.414 132.048C108.399 131.924 108.429 131.816 108.506 131.724C108.584 131.647 108.691 131.585 108.799 131.585L129.99 130.782C130.237 130.767 130.407 130.936 130.422 131.153L132.333 150.895C133.35 151.698 139.006 156.421 138.452 161.129C138.174 163.475 136.402 165.405 133.165 166.856C130.098 168.229 127.247 168.909 124.673 168.909ZM109.277 132.387L112.236 157.424C112.252 157.44 113.916 164.17 119.464 166.917C123.101 168.708 127.602 168.446 132.826 166.099C135.785 164.787 137.404 163.074 137.635 161.036C138.174 156.452 131.763 151.482 131.701 151.435C131.609 151.358 131.547 151.25 131.532 151.142L129.636 131.616L109.277 132.387Z" fill="#111111"/>
<path d="M118.308 104.155C118.739 107.335 122.192 109.481 126.014 108.956C129.851 108.446 132.61 105.452 132.194 102.288C131.762 99.1077 125.69 92.5784 121.868 93.1032C118.03 93.628 117.876 100.991 118.308 104.155Z" fill="#111111"/>
<path d="M108.428 136.308C107.55 135.521 106.717 134.656 105.947 133.73C102.51 129.578 99.7975 124.546 96.1758 119.576L120.68 98.3513C121.282 98.6137 133.226 105.714 138.928 121.922C142.843 133.067 139.113 139.086 130.883 141.433C126.999 142.529 122.977 142.621 119.17 141.772" fill="white"/>
<path d="M124.335 142.745C122.578 142.745 120.821 142.56 119.095 142.174C118.864 142.127 118.725 141.911 118.772 141.695C118.818 141.464 119.049 141.325 119.265 141.371C123.072 142.22 127.048 142.097 130.777 141.031C134.754 139.905 137.482 137.929 138.899 135.181C140.579 131.94 140.456 127.525 138.545 122.061C133.228 106.949 122.409 99.8641 120.729 98.8453L96.7328 119.637C98.1815 121.644 99.4761 123.651 100.724 125.596C102.558 128.42 104.285 131.091 106.257 133.468C107.012 134.379 107.829 135.228 108.692 135.999C108.862 136.154 108.877 136.416 108.739 136.586C108.584 136.756 108.322 136.771 108.153 136.617C107.259 135.814 106.396 134.934 105.625 134.008C103.622 131.569 101.88 128.883 100.046 126.043C98.7209 124.006 97.3647 121.906 95.8543 119.823C95.731 119.637 95.7464 119.406 95.916 119.267L120.421 98.0272C120.544 97.9346 120.714 97.9037 120.852 97.9655C120.976 98.0272 133.367 104.881 139.316 121.783C141.319 127.463 141.427 132.11 139.639 135.567C138.113 138.515 135.201 140.63 130.993 141.819C128.836 142.436 126.585 142.745 124.335 142.745Z" fill="#111111"/>
<path d="M110.032 144.906L110.217 140.306L111.758 129.794C112.559 130.581 113.9 130.165 114.116 129.069C114.516 127.093 111.696 121.428 108.583 118.094C108.583 118.094 129.897 110.993 127.123 100.914C122.269 83.2707 112.405 85.5706 102.079 100.235C96.9624 107.489 82.5833 114.791 93.3561 125.982C90.2275 136.401 103.944 145.601 110.032 144.906Z" fill="#111111"/>
<path d="M114.47 137.867C114.47 137.867 112.097 140.352 108.136 140.677C104.175 141.016 99.1045 130.751 101.74 128.559C104.375 126.383 111.758 129.794 111.758 129.794" fill="white"/>
<path d="M107.951 141.109C105.501 141.109 102.865 137.79 101.494 134.425C100.307 131.523 100.307 129.223 101.478 128.251C104.283 125.92 111.619 129.269 111.943 129.424C112.143 129.516 112.236 129.763 112.143 129.964C112.035 130.165 111.804 130.257 111.588 130.165C109.6 129.239 103.99 127.216 102.002 128.883C101.154 129.594 101.247 131.647 102.249 134.116C103.543 137.265 106.102 140.445 108.105 140.275C111.866 139.966 114.147 137.605 114.177 137.589C114.332 137.42 114.594 137.42 114.748 137.574C114.917 137.728 114.917 137.991 114.763 138.145C114.671 138.253 112.251 140.754 108.167 141.093C108.095 141.104 108.023 141.109 107.951 141.109Z" fill="#111111"/>
<path d="M109.711 132.218C109.002 131.6 108.154 131.122 107.26 130.844C106.69 130.659 106.089 130.551 105.504 130.659C104.918 130.751 104.348 131.075 104.055 131.6C103.639 132.326 103.854 133.252 104.163 134.039C104.717 135.459 105.796 136.833 107.399 137.188" fill="white"/>
<path d="M107.397 137.589C107.377 137.589 107.351 137.589 107.32 137.589C105.779 137.25 104.484 135.999 103.775 134.193C103.313 133.02 103.282 132.11 103.698 131.4C104.022 130.798 104.669 130.381 105.425 130.257C106.01 130.149 106.642 130.211 107.382 130.442C108.322 130.751 109.231 131.245 109.986 131.909C110.156 132.063 110.171 132.326 110.017 132.495C109.879 132.665 109.617 132.681 109.447 132.526C108.784 131.94 107.983 131.492 107.135 131.23C106.519 131.044 106.01 130.983 105.563 131.06C105.055 131.153 104.623 131.43 104.407 131.801C104.13 132.279 104.176 132.974 104.531 133.885C104.823 134.626 105.702 136.385 107.49 136.787C107.721 136.833 107.86 137.049 107.798 137.281C107.767 137.466 107.598 137.589 107.397 137.589Z" fill="#111111"/>
<path d="M124.103 122.586C124.535 123.527 124.381 124.531 123.764 124.824C123.132 125.117 122.269 124.608 121.822 123.666C121.375 122.725 121.53 121.721 122.161 121.428C122.793 121.135 123.656 121.644 124.103 122.586Z" fill="#111111"/>
<path d="M127.91 121.227C128.234 122.184 130.268 124.947 131.131 125.472C131.994 126.012 134.214 126.182 134.491 127.155C134.738 128.065 134.506 129.084 133.89 129.794" fill="white"/>
<path d="M133.89 130.196C133.782 130.196 133.69 130.165 133.612 130.103C133.443 129.949 133.428 129.686 133.582 129.516C134.106 128.914 134.306 128.035 134.09 127.278C133.967 126.861 132.996 126.568 132.287 126.352C131.763 126.198 131.27 126.043 130.915 125.827C129.96 125.241 127.864 122.4 127.525 121.366C127.448 121.15 127.556 120.919 127.771 120.841C127.987 120.764 128.218 120.888 128.295 121.104C128.588 121.968 130.561 124.639 131.347 125.133C131.609 125.287 132.056 125.426 132.534 125.565C133.52 125.858 134.645 126.198 134.876 127.047C135.169 128.081 134.907 129.254 134.198 130.057C134.106 130.149 133.998 130.196 133.89 130.196Z" fill="#111111"/>
<path d="M127.971 134.842C127.416 134.842 126.861 134.734 126.352 134.518C125.351 134.07 124.534 133.175 124.179 132.125C124.102 131.909 124.226 131.677 124.426 131.6C124.642 131.538 124.888 131.647 124.95 131.863C125.243 132.696 125.89 133.406 126.692 133.761C127.493 134.116 128.448 134.116 129.25 133.761C129.466 133.669 129.697 133.761 129.789 133.977C129.882 134.178 129.789 134.425 129.574 134.518C129.08 134.734 128.526 134.842 127.971 134.842Z" fill="#111111"/>
<path d="M119.867 121.49C119.815 121.49 119.759 121.474 119.697 121.443C119.497 121.351 119.404 121.104 119.497 120.888C120.221 119.39 121.423 118.727 123.273 118.788C123.489 118.804 123.674 118.989 123.658 119.221C123.658 119.452 123.458 119.622 123.242 119.607C121.331 119.545 120.653 120.394 120.252 121.243C120.175 121.397 120.021 121.49 119.867 121.49Z" fill="#111111"/>
<path d="M132.611 118.032C133.058 118.974 132.904 119.977 132.272 120.27C131.64 120.564 130.777 120.054 130.33 119.113C129.883 118.171 130.037 117.168 130.669 116.874C131.301 116.581 132.164 117.091 132.611 118.032Z" fill="#111111"/>
<path d="M128.388 116.936C128.295 116.936 128.218 116.905 128.156 116.859C127.956 116.735 127.91 116.473 128.048 116.288C128.942 114.945 130.191 114.266 131.747 114.235C131.963 114.235 132.163 114.42 132.163 114.636C132.179 114.868 131.994 115.053 131.763 115.053C130.468 115.084 129.482 115.64 128.727 116.751C128.65 116.859 128.511 116.936 128.388 116.936Z" fill="#111111"/>
<path d="M268.112 214.352H65.432C65.2162 214.352 65.0312 214.167 65.0312 213.95C65.0312 213.719 65.2162 213.534 65.432 213.534H268.112C268.343 213.534 268.528 213.719 268.528 213.95C268.528 214.167 268.343 214.352 268.112 214.352Z" fill="#111111"/>
<path d="M273.214 125.025L170.88 186.984C165.686 186.475 161.633 182.106 161.633 176.781V125.025H273.214Z" fill="url(#paint0_linear_8757_21850)"/>
<path fill-rule="evenodd" clip-rule="evenodd" d="M170.878 187.385C170.858 187.385 170.842 187.385 170.832 187.385C165.361 186.861 161.23 182.307 161.23 176.796V125.025C161.23 124.809 161.4 124.623 161.631 124.623H273.212C273.397 124.623 273.551 124.747 273.613 124.917C273.659 125.102 273.582 125.287 273.428 125.38L171.079 187.339C171.017 187.37 170.95 187.385 170.878 187.385ZM162.047 125.441V176.796C162.047 181.828 165.792 186.012 170.77 186.552L271.733 125.441H162.047Z" fill="#111111"/>
<path d="M273.213 125.025V176.781C273.213 182.446 268.636 187.03 262.995 187.03H171.85C171.521 187.03 171.197 187.015 170.879 186.984L273.213 125.025Z" fill="url(#paint1_linear_8757_21850)"/>
<path fill-rule="evenodd" clip-rule="evenodd" d="M262.995 187.432H171.85C171.526 187.432 171.203 187.416 170.833 187.385C170.663 187.37 170.509 187.246 170.478 187.077C170.432 186.891 170.509 186.722 170.663 186.629L272.997 124.685C273.121 124.608 273.29 124.608 273.413 124.67C273.537 124.747 273.614 124.886 273.614 125.025V176.796C273.614 182.662 268.851 187.432 262.995 187.432ZM172.266 186.614H262.995C268.405 186.614 272.797 182.214 272.797 176.796V125.765L172.266 186.614Z" fill="#111111"/>
<path d="M273.214 125.025L260.638 132.634L217.423 158.814L161.633 125.025L174.209 112.938L202.366 85.8638L210.504 78.0378C214.372 74.3178 220.475 74.3178 224.359 78.0378L232.496 85.8638L260.638 112.938L273.214 125.025Z" fill="#111111"/>
<path fill-rule="evenodd" clip-rule="evenodd" d="M217.421 159.215C217.349 159.215 217.277 159.194 217.205 159.153L161.414 125.38C161.307 125.318 161.245 125.21 161.229 125.071C161.214 124.947 161.26 124.824 161.353 124.731L210.208 77.7445C214.246 73.8547 220.596 73.8547 224.633 77.7445L273.489 124.731C273.581 124.824 273.627 124.947 273.612 125.071C273.597 125.21 273.535 125.318 273.427 125.38L217.637 159.153C217.575 159.194 217.503 159.215 217.421 159.215ZM162.308 124.963L217.421 158.335L272.533 124.963L224.063 78.3311C220.334 74.75 214.508 74.75 210.778 78.3311L162.308 124.963Z" fill="#111111"/>
<path d="M260.636 97.7802V130.226C260.636 131.724 259.865 133.113 258.571 133.885L219.641 157.471C218.269 158.289 216.574 158.289 215.202 157.471L176.257 133.885C174.977 133.113 174.191 131.724 174.191 130.226V97.7802C174.191 91.2046 179.524 85.8638 186.089 85.8638H248.738C255.319 85.8638 260.636 91.2046 260.636 97.7802Z" fill="white"/>
<path fill-rule="evenodd" clip-rule="evenodd" d="M217.424 158.505C216.591 158.505 215.744 158.273 215.004 157.81L176.059 134.24C174.656 133.391 173.793 131.847 173.793 130.226V97.7803C173.793 90.9885 179.31 85.447 186.092 85.447H248.74C255.537 85.447 261.054 90.9885 261.054 97.7803V130.226C261.054 131.847 260.191 133.391 258.789 134.24L219.859 157.81C219.104 158.273 218.271 158.505 217.424 158.505ZM186.092 86.2806C179.757 86.2806 174.61 91.4361 174.61 97.7803V130.226C174.61 131.569 175.334 132.835 176.475 133.53L215.42 157.116C216.653 157.857 218.194 157.857 219.427 157.116L258.373 133.53C259.513 132.835 260.238 131.569 260.238 130.226V97.7803C260.238 91.4361 255.075 86.2806 248.74 86.2806H186.092Z" fill="#111111"/>
<path d="M225.36 128.93C223.829 128.93 222.504 128.698 221.384 128.235C221.137 128.132 220.901 128.019 220.675 127.896C219.35 127.155 217.762 127.232 216.437 127.957C216.426 127.957 216.421 127.962 216.421 127.973C215.671 128.374 214.942 128.575 214.233 128.575C212.63 128.575 211.12 127.901 209.702 126.553C208.284 125.194 207.575 123.712 207.575 122.107C207.575 119.339 208.623 116.813 210.719 114.528C212.825 112.244 215.214 111.101 217.885 111.101C218.492 111.101 218.995 111.333 219.396 111.796C219.796 112.259 219.997 112.82 219.997 113.479C219.997 114.374 219.278 115.038 217.839 115.47C215.918 116.036 214.562 116.684 213.77 117.415C212.599 118.475 212.013 120.039 212.013 122.107C212.013 122.539 212.209 122.956 212.599 123.357C213.041 123.8 213.596 124.006 214.264 123.975C215.517 123.923 216.678 122.714 217.747 120.347C218.712 118.289 219.57 117.26 220.32 117.26C220.927 117.26 221.42 117.492 221.8 117.955C222.18 118.418 222.37 118.984 222.37 119.653C222.37 119.951 222.319 120.399 222.216 120.996C222.124 121.593 222.077 122.04 222.077 122.339C222.077 123.316 222.483 123.929 223.295 124.176C223.613 124.289 224.302 124.345 225.36 124.345C227.333 124.345 228.715 123.841 229.506 122.833C230.235 121.937 230.6 120.456 230.6 118.387C230.6 114.724 229.177 111.734 226.331 109.419C223.732 107.299 220.624 106.239 217.007 106.239C212.805 106.239 209.512 107.88 207.128 111.163C204.981 114.096 203.907 117.78 203.907 122.215C203.907 126.301 205.171 129.748 207.698 132.557C210.328 135.49 213.709 136.956 217.839 136.956C218.959 136.956 220.223 136.74 221.63 136.308C221.743 136.277 221.856 136.236 221.969 136.185L225.591 134.795C226.228 134.559 226.639 134.44 226.824 134.44C227.42 134.44 227.934 134.682 228.365 135.166C228.797 135.65 229.013 136.216 229.013 136.864C229.013 138.284 227.477 139.431 224.405 140.306C222.072 140.965 219.899 141.294 217.885 141.294C215.841 141.294 213.755 140.887 211.628 140.074C209.501 139.262 207.678 138.176 206.157 136.818C201.677 132.814 199.438 127.947 199.438 122.215C199.438 116.483 200.968 111.688 204.03 107.829C207.287 103.713 211.613 101.655 217.007 101.655C221.887 101.655 226.069 103.167 229.552 106.193C233.21 109.403 235.039 113.468 235.039 118.387C235.039 121.742 234.242 124.325 232.65 126.136C230.996 127.998 228.566 128.93 225.36 128.93Z" fill="#111111"/>
<path d="M217.423 158.814L161.633 125.025L217.423 158.814Z" fill="#111111"/>
<path d="M217.421 159.215C217.349 159.215 217.277 159.194 217.205 159.153L161.414 125.38C161.23 125.271 161.168 125.009 161.276 124.824C161.399 124.623 161.646 124.561 161.846 124.685L217.637 158.459C217.821 158.567 217.883 158.829 217.775 159.014C217.698 159.153 217.559 159.215 217.421 159.215Z" fill="#111111"/>
<path d="M179.773 154.476C180.343 155.325 180.451 156.39 180.112 157.316C180.02 157.579 179.881 157.841 179.711 158.073L170.387 167.967C174.764 167.427 175.149 172.135 175.149 172.135C178.417 172.428 178.293 176.765 178.293 176.765C179.758 176.812 180.466 177.8 180.821 178.911C181.36 180.671 180.836 182.569 179.588 183.912L171.82 192.309C171.62 192.525 171.389 192.68 171.142 192.788C170.341 193.143 169.355 192.958 168.754 192.248C168.152 191.553 168.091 190.565 168.569 189.809L168.723 189.562L162.126 194.424L148.117 174.882H148.133C148.133 174.882 171.343 156.822 175.119 153.735C176.583 152.562 178.74 152.886 179.773 154.476Z" fill="white"/>
<path fill-rule="evenodd" clip-rule="evenodd" d="M162.124 194.841C162.104 194.841 162.083 194.836 162.063 194.825C161.955 194.81 161.862 194.748 161.801 194.671L147.791 175.129C147.714 175.037 147.699 174.898 147.73 174.79C147.745 174.682 147.822 174.589 147.899 174.543C148.793 173.848 171.171 156.421 174.854 153.426C175.64 152.794 176.673 152.516 177.659 152.67C178.661 152.824 179.555 153.396 180.125 154.245C180.742 155.186 180.88 156.39 180.495 157.471C180.392 157.759 180.243 158.037 180.048 158.304C180.038 158.325 180.028 158.34 180.017 158.35L171.371 167.519C172.281 167.566 173.067 167.874 173.729 168.415C174.993 169.449 175.394 171.07 175.502 171.764C177.921 172.196 178.646 174.759 178.707 176.38C179.909 176.565 180.773 177.398 181.204 178.788C181.774 180.64 181.281 182.708 179.894 184.19L172.111 192.587C171.906 192.824 171.644 193.014 171.325 193.158C170.323 193.606 169.137 193.344 168.428 192.51C167.996 192.001 167.796 191.352 167.842 190.719L162.371 194.764C162.309 194.81 162.217 194.841 162.124 194.841ZM148.685 174.975L162.217 193.853L168.474 189.222C168.628 189.114 168.844 189.114 168.998 189.253C169.137 189.377 169.167 189.593 169.075 189.762L168.921 190.009C168.52 190.627 168.582 191.414 169.06 191.985C169.522 192.525 170.323 192.711 170.986 192.417C171.202 192.314 171.377 192.186 171.51 192.031L179.293 183.634C180.48 182.369 180.911 180.609 180.418 179.035C180.048 177.815 179.355 177.213 178.276 177.167C178.06 177.167 177.875 176.966 177.891 176.75C177.891 176.58 177.952 172.798 175.101 172.536C174.901 172.521 174.747 172.366 174.731 172.166C174.731 172.15 174.546 170.128 173.205 169.048C172.481 168.461 171.556 168.229 170.431 168.368C170.262 168.384 170.092 168.307 170.015 168.152C169.938 167.998 169.969 167.797 170.077 167.674L179.401 157.81C179.534 157.604 179.642 157.393 179.725 157.177C180.033 156.359 179.925 155.433 179.432 154.692C179 154.044 178.307 153.596 177.536 153.473C176.765 153.365 175.979 153.565 175.378 154.059C171.865 156.915 151.444 172.829 148.685 174.975Z" fill="#111111"/>
<path d="M168.723 189.562L172.005 186.073L168.723 189.562Z" fill="white"/>
<path d="M168.721 189.978C168.613 189.978 168.521 189.932 168.444 189.855C168.274 189.701 168.259 189.438 168.428 189.284L171.711 185.795C171.865 185.626 172.127 185.626 172.281 185.78C172.451 185.934 172.466 186.197 172.297 186.366L169.014 189.84C168.937 189.932 168.829 189.978 168.721 189.978Z" fill="#111111"/>
<path d="M175.146 172.135L169.305 177.63L175.146 172.135Z" fill="white"/>
<path d="M169.305 178.047C169.197 178.047 169.089 178 169.012 177.908C168.858 177.753 168.858 177.491 169.028 177.337L174.853 171.826C175.023 171.672 175.285 171.687 175.439 171.857C175.593 172.011 175.578 172.274 175.423 172.428L169.582 177.923C169.505 178 169.413 178.047 169.305 178.047Z" fill="#111111"/>
<path d="M178.29 176.765L173.004 181.334L178.29 176.765Z" fill="white"/>
<path d="M173.006 181.736C172.898 181.736 172.775 181.689 172.698 181.597C172.543 181.427 172.574 181.165 172.744 181.01L178.03 176.457C178.2 176.302 178.462 176.318 178.616 176.488C178.754 176.673 178.739 176.92 178.569 177.074L173.268 181.643C173.191 181.705 173.098 181.736 173.006 181.736Z" fill="#111111"/>
<path d="M164.96 172.984C164.837 172.984 164.729 172.937 164.652 172.845C164.498 172.659 164.513 172.413 164.698 172.258L170.123 167.643C170.293 167.504 170.555 167.519 170.693 167.689C170.847 167.859 170.817 168.121 170.647 168.276L165.222 172.891C165.145 172.953 165.053 172.984 164.96 172.984Z" fill="#111111"/>
<path d="M105.932 159.693L88.917 167.936C83.2455 170.761 79.8857 176.781 80.5022 183.094C81.319 191.723 83.9082 203.963 86.1121 213.379C88.0539 221.73 94.8968 228.028 103.358 229.309C108.505 230.096 113.776 228.908 118.107 226.006L164.573 194.872L151.766 169.742L111.541 196.878L105.932 159.693Z" fill="#111111"/>
<path d="M118.109 226.423C117.97 226.423 117.847 226.361 117.77 226.237C117.646 226.052 117.693 225.79 117.878 225.666L164.036 194.733L151.614 170.344L111.775 197.218C111.667 197.295 111.513 197.311 111.389 197.264C111.251 197.203 111.158 197.079 111.143 196.94L107.336 171.703C107.305 171.486 107.459 171.27 107.675 171.239C107.906 171.209 108.122 171.363 108.153 171.579L111.852 196.184L151.537 169.403C151.629 169.341 151.753 169.325 151.861 169.356C151.984 169.387 152.076 169.464 152.123 169.557L164.945 194.686C165.038 194.872 164.976 195.103 164.806 195.227L118.34 226.345C118.263 226.392 118.186 226.423 118.109 226.423Z" fill="#111111"/>
<path d="M105.932 201.308C105.808 201.308 105.685 201.247 105.608 201.139C105.469 200.953 105.516 200.691 105.7 200.552L111.31 196.554C111.495 196.415 111.757 196.462 111.881 196.647C112.019 196.832 111.973 197.079 111.788 197.218L106.178 201.231C106.101 201.278 106.024 201.308 105.932 201.308Z" fill="#111111"/>
<path d="M235.853 80.9089C235.715 80.9089 235.576 80.8472 235.499 80.7237C234.281 78.8559 233.31 76.8338 232.586 74.7346C232.509 74.5185 232.617 74.2869 232.833 74.2098C233.048 74.1326 233.28 74.2406 233.357 74.4567C234.066 76.5097 235.006 78.4546 236.192 80.276C236.316 80.4613 236.254 80.7237 236.069 80.8472C235.997 80.8883 235.925 80.9089 235.853 80.9089ZM231.646 68.5757C231.43 68.5757 231.261 68.4059 231.245 68.1898C231.199 67.665 231.184 67.1247 231.184 66.5844C231.184 64.8556 231.384 63.1577 231.769 61.5369C231.831 61.3054 232.047 61.1819 232.278 61.2282C232.494 61.2745 232.632 61.5061 232.571 61.7222C232.201 63.2812 232 64.9174 232 66.5844C232 67.1093 232.016 67.6187 232.062 68.1435C232.077 68.3596 231.908 68.5602 231.677 68.5757C231.666 68.5757 231.656 68.5757 231.646 68.5757ZM253.192 66.3529C252.966 66.3529 252.745 66.3426 252.529 66.322C252.298 66.3066 252.128 66.1059 252.159 65.8744C252.174 65.6583 252.375 65.4885 252.591 65.5039C253.115 65.5502 253.654 65.5348 254.163 65.4576C255.642 65.2415 256.983 64.4389 258.046 63.1731C258.185 62.9879 258.447 62.9725 258.617 63.1114C258.786 63.2657 258.817 63.5127 258.678 63.698C257.476 65.1335 255.966 66.0133 254.286 66.2757C253.926 66.3272 253.561 66.3529 253.192 66.3529ZM246.749 63.5127C246.657 63.5127 246.549 63.4664 246.472 63.3892C246.256 63.1937 246.051 62.993 245.856 62.7872C244.515 61.3826 243.467 59.7155 242.712 57.8478C242.619 57.6317 242.727 57.4001 242.943 57.3075C243.143 57.2303 243.39 57.3229 243.467 57.539C244.191 59.3142 245.193 60.8886 246.457 62.2161C246.642 62.4116 246.832 62.602 247.027 62.7872C247.196 62.9416 247.212 63.204 247.058 63.3738C246.965 63.4664 246.857 63.5127 246.749 63.5127ZM260.358 57.7243C260.142 57.7243 259.957 57.5545 259.942 57.3384C259.911 56.7981 259.819 56.2579 259.665 55.7639C259.233 54.2975 258.432 52.97 257.26 51.8124C257.091 51.658 257.091 51.3956 257.26 51.2258C257.414 51.0714 257.676 51.0714 257.831 51.2258C259.11 52.4915 259.988 53.9271 260.451 55.5324C260.62 56.0881 260.728 56.6901 260.759 57.2921C260.774 57.5236 260.605 57.7088 260.373 57.7243C260.373 57.7243 260.368 57.7243 260.358 57.7243ZM234.821 56.0572C234.744 56.0572 234.651 56.0263 234.59 55.98C234.405 55.8565 234.358 55.5941 234.482 55.4089C235.73 53.572 237.364 51.9204 239.182 50.6392C239.367 50.5157 239.614 50.5621 239.753 50.7473C239.876 50.9325 239.83 51.1795 239.645 51.3184C237.919 52.5378 236.362 54.1123 235.16 55.872C235.083 55.9955 234.944 56.0572 234.821 56.0572ZM241.895 51.6734C241.664 51.6734 241.494 51.4728 241.494 51.2567C241.525 49.3272 241.895 47.4749 242.573 45.7461C242.712 45.4065 242.866 45.0515 243.02 44.7273C243.128 44.5112 243.359 44.434 243.575 44.5266C243.775 44.6193 243.867 44.8662 243.76 45.0823C243.605 45.3911 243.467 45.7306 243.343 46.0548C242.696 47.691 242.342 49.4352 242.311 51.2721C242.311 51.4882 242.126 51.6734 241.895 51.6734ZM251.882 48.7561C251.841 48.7561 251.805 48.7509 251.774 48.7406C251.188 48.5863 250.602 48.4782 250.017 48.4165C248.522 48.2467 246.981 48.3393 245.455 48.6943C245.239 48.7406 245.008 48.6017 244.962 48.3702C244.915 48.1541 245.054 47.938 245.27 47.8917C246.888 47.5212 248.522 47.4286 250.109 47.5984C250.726 47.6756 251.358 47.7836 251.974 47.9534C252.205 47.9997 252.329 48.2312 252.267 48.4473C252.221 48.6326 252.051 48.7561 251.882 48.7561ZM247.273 40.0348C247.166 40.0348 247.058 40.0039 246.981 39.9113C246.827 39.757 246.827 39.4946 246.996 39.3402C248.522 37.8584 250.34 36.5309 252.375 35.4195C252.575 35.3115 252.837 35.3732 252.945 35.5739C253.053 35.7745 252.976 36.0215 252.775 36.1296C250.803 37.2255 249.046 38.4912 247.566 39.9268C247.474 40.0039 247.381 40.0348 247.273 40.0348ZM258.617 33.5981C258.447 33.5981 258.277 33.49 258.216 33.3048C258.154 33.0887 258.262 32.8572 258.478 32.7954C260.743 32.0236 263.055 31.4216 264.827 30.974C265.043 30.9277 265.274 31.0512 265.336 31.2673C265.382 31.4988 265.244 31.7149 265.028 31.7766C263.271 32.2088 260.975 32.8108 258.74 33.5672C258.699 33.5878 258.658 33.5981 258.617 33.5981ZM271.316 30.2331C271.131 30.2331 270.961 30.1096 270.915 29.9089C270.869 29.6928 271.008 29.4767 271.223 29.415L277.604 27.8714C277.835 27.8096 278.051 27.9486 278.112 28.1647C278.159 28.3962 278.02 28.6123 277.804 28.674L271.408 30.2176C271.377 30.2279 271.347 30.2331 271.316 30.2331ZM284.092 27.1305C283.907 27.1305 283.738 27.007 283.691 26.8063C283.645 26.5902 283.784 26.3741 284 26.3124L285.757 25.8956C285.972 25.8338 286.204 25.9728 286.25 26.1889C286.311 26.4204 286.173 26.6365 285.942 26.6983L284.185 27.115C284.154 27.1253 284.123 27.1305 284.092 27.1305Z" fill="#111111"/>
<path d="M212.382 67.7267C212.361 67.7267 212.336 67.7267 212.305 67.7267C212.089 67.6804 211.935 67.4797 211.981 67.2482C212.058 66.7697 212.104 66.2603 212.104 65.7509C212.104 64.2382 211.704 62.6329 210.918 61.1356C210.81 60.9349 210.887 60.688 211.087 60.5799C211.303 60.4873 211.55 60.5645 211.642 60.7651C212.49 62.3705 212.921 64.0993 212.921 65.7509C212.921 66.3066 212.875 66.8623 212.783 67.3871C212.752 67.5878 212.582 67.7267 212.382 67.7267ZM193.148 67.5723C192.922 67.5723 192.696 67.5672 192.47 67.5569C192.239 67.5415 192.069 67.3562 192.085 67.1247C192.085 66.8932 192.3 66.7234 192.516 66.7388C193.888 66.816 195.29 66.6462 196.631 66.2449C197.355 66.0288 198.033 65.7509 198.65 65.4268C198.85 65.3187 199.097 65.3959 199.205 65.5966C199.313 65.7972 199.236 66.0442 199.035 66.1523C198.373 66.5073 197.648 66.8006 196.862 67.0321C195.645 67.3871 194.396 67.5723 193.148 67.5723ZM186.505 65.1798C186.398 65.1798 186.305 65.1335 186.228 65.0717C184.702 63.6516 183.808 61.5215 183.808 59.3605C183.808 59.165 183.814 58.9694 183.824 58.7739C183.855 58.5424 184.055 58.388 184.271 58.4035C184.502 58.4189 184.671 58.6196 184.656 58.8357C184.635 59.0106 184.625 59.1855 184.625 59.3605C184.625 61.29 185.427 63.204 186.783 64.4697C186.952 64.6241 186.952 64.8865 186.798 65.0409C186.721 65.1335 186.613 65.1798 186.505 65.1798ZM202.626 61.1356C202.606 61.1356 202.585 61.1356 202.565 61.1356C202.333 61.0893 202.179 60.8886 202.225 60.6571C202.303 60.1786 202.333 59.6538 202.333 59.1135C202.333 58.4652 202.287 57.7706 202.179 57.0142C202.041 56.119 201.856 55.2082 201.624 54.3284C201.604 54.2769 201.599 54.2306 201.609 54.1895C201.342 54.1174 201.075 54.0506 200.808 53.9888C200.592 53.9425 200.453 53.711 200.499 53.4949C200.546 53.2788 200.777 53.1398 200.993 53.1861C203.119 53.6801 205.03 54.4365 206.664 55.4398C206.839 55.5427 207.003 55.6507 207.157 55.7639C207.358 55.8874 207.404 56.1498 207.281 56.3351C207.142 56.5203 206.895 56.5666 206.71 56.4431C206.556 56.3402 206.397 56.2424 206.233 56.1498C205.123 55.4552 203.875 54.8841 202.503 54.4519C202.703 55.2545 202.873 56.0881 202.981 56.8907C203.104 57.6934 203.166 58.4189 203.166 59.1135C203.166 59.7001 203.119 60.2712 203.027 60.796C202.996 60.9967 202.827 61.1356 202.626 61.1356ZM187.908 54.1895C187.738 54.1895 187.6 54.0969 187.523 53.9271C187.446 53.7264 187.538 53.4794 187.738 53.4023C189.526 52.6305 191.591 52.507 193.194 52.4915C193.441 52.4812 193.687 52.4761 193.934 52.4761H194.381C194.612 52.4761 194.782 52.6768 194.782 52.8929C194.782 53.1244 194.597 53.3096 194.381 53.3096C194.381 53.3096 194.376 53.3096 194.365 53.3096L193.934 53.2942C193.687 53.2942 193.446 53.2993 193.21 53.3096C191.684 53.3251 189.727 53.4486 188.062 54.1586C188.011 54.1792 187.959 54.1895 187.908 54.1895ZM199.498 48.5708C199.359 48.5708 199.22 48.4937 199.143 48.3547C198.111 46.5333 196.831 44.7736 195.352 43.0911C195.198 42.9213 195.213 42.6589 195.383 42.52C195.552 42.3656 195.814 42.3811 195.968 42.5509C197.494 44.2642 198.789 46.0857 199.852 47.9534C199.975 48.1386 199.898 48.401 199.698 48.5091C199.636 48.5503 199.57 48.5708 199.498 48.5708ZM190.882 38.7228C190.79 38.7228 190.697 38.7073 190.62 38.6456C189.696 37.9047 188.709 37.1946 187.723 36.5463C186.922 36.0215 186.074 35.5121 185.211 35.0182C185.026 34.9101 184.949 34.6477 185.057 34.4625C185.18 34.2618 185.427 34.1846 185.627 34.3081C186.505 34.8021 187.353 35.3269 188.17 35.8517C189.187 36.5309 190.189 37.2409 191.129 37.9973C191.314 38.1362 191.345 38.3986 191.206 38.5684C191.114 38.6765 191.006 38.7228 190.882 38.7228ZM179.539 32.1471C179.478 32.1471 179.421 32.1317 179.37 32.1008C177.52 31.2981 175.532 30.5263 173.282 29.7237C173.066 29.6619 172.943 29.415 173.02 29.1989C173.097 28.9982 173.328 28.8747 173.544 28.9519C175.825 29.7545 177.829 30.5418 179.693 31.3599C179.909 31.4371 180.002 31.684 179.909 31.9001C179.848 32.0545 179.693 32.1471 179.539 32.1471ZM167.164 27.7016C167.123 27.7016 167.082 27.6964 167.04 27.6861C165.941 27.3363 164.837 26.9967 163.727 26.6674C163.511 26.5902 163.388 26.3587 163.449 26.1426C163.527 25.9265 163.758 25.803 163.973 25.8802C165.073 26.2095 166.177 26.549 167.287 26.8989C167.503 26.9607 167.626 27.1922 167.564 27.4083C167.503 27.5935 167.349 27.7016 167.164 27.7016Z" fill="#111111"/>
<path d="M259.988 20.5702L300.999 17.5293L286.45 34.0919L259.988 20.5702Z" fill="#BBB3E3"/>
<path d="M267.957 24.6453L293.941 19.0575L271.301 26.3432L268.789 32.4867L267.957 24.6453Z" fill="#111111"/>
<path d="M268.789 32.4867L276.68 29.0908L271.301 26.3433L268.789 32.4867Z" fill="#8E82C9"/>
<path d="M170.229 14.0409L129.219 11L143.767 27.5627L170.229 14.0409Z" fill="#BBB3E3"/>
<path d="M162.262 18.116L136.277 12.5282L158.917 19.8139L161.429 25.9574L162.262 18.116Z" fill="#111111"/>
<path d="M161.43 25.9573L153.539 22.5614L158.918 19.8138L161.43 25.9573Z" fill="#8E82C9"/>
<path d="M83.6463 127.355C86.8057 139.503 79.5313 151.914 67.4023 155.063C55.2732 158.227 42.8822 150.926 39.7382 138.778C36.5787 126.63 43.8531 114.235 55.9822 111.071C68.1112 107.922 80.5023 115.207 83.6463 127.355Z" fill="#111111"/>
<path d="M60.6674 144.088L51.5898 138.747L54.3794 134.008L58.7101 136.57L66.6625 123.033L71.3786 125.812L60.6674 144.088Z" fill="white"/>
<path d="M82.5849 138.315L85.3899 146.882C85.8522 148.271 84.7888 149.691 83.3247 149.645L74.3242 149.336L82.5849 138.315Z" fill="#111111"/>
<path d="M162.434 88.7348C162.372 88.7348 162.316 88.7194 162.264 88.6885C162.048 88.5959 161.971 88.3489 162.064 88.1483C162.958 86.2342 163.528 84.1504 163.759 81.9585C163.774 81.7269 163.975 81.5726 164.206 81.588C164.422 81.6189 164.591 81.8196 164.576 82.0357C164.329 84.3202 163.744 86.4966 162.804 88.4878C162.742 88.6422 162.588 88.7348 162.434 88.7348ZM139.948 77.8989C139.748 77.8989 139.563 77.7445 139.532 77.5438C139.501 77.3277 139.655 77.1116 139.871 77.0808C140.672 76.9418 141.366 76.6331 141.936 76.17C142.861 75.4291 143.416 74.256 143.523 72.8822C143.539 72.6507 143.739 72.4809 143.955 72.5117C144.186 72.5272 144.356 72.7124 144.34 72.944C144.217 74.5493 143.554 75.9231 142.46 76.8029C141.766 77.3586 140.95 77.7291 140.01 77.8834C139.989 77.8937 139.968 77.8989 139.948 77.8989ZM133.583 76.6331C133.521 76.6331 133.465 76.6177 133.413 76.5868C131.718 75.8305 129.406 74.4875 128.081 72.4963C127.942 72.3111 128.004 72.0641 128.189 71.9252C128.374 71.8017 128.636 71.8634 128.759 72.0487C129.976 73.8701 132.15 75.1204 133.752 75.8459C133.953 75.9385 134.045 76.1855 133.953 76.3861C133.891 76.5405 133.737 76.6331 133.583 76.6331ZM163.836 75.8613C163.636 75.8613 163.466 75.7224 163.435 75.5217C163.004 73.3916 162.264 71.3541 161.232 69.4863C161.124 69.2857 161.201 69.0233 161.401 68.9152C161.601 68.8071 161.848 68.8843 161.956 69.085C163.019 71.0299 163.79 73.1446 164.237 75.3674C164.283 75.5835 164.144 75.7996 163.913 75.8459C163.882 75.8562 163.857 75.8613 163.836 75.8613ZM141.427 67.4642C141.335 67.4642 141.227 67.4334 141.15 67.3407C140.41 66.6153 139.516 65.9206 138.422 65.2415C137.59 64.7167 136.711 64.2381 135.802 63.8059C135.602 63.6979 135.509 63.4509 135.617 63.2502C135.71 63.0496 135.956 62.957 136.157 63.0496C137.097 63.4972 137.991 64.0066 138.854 64.5314C139.994 65.2569 140.934 65.9824 141.72 66.7696C141.89 66.924 141.89 67.1864 141.72 67.3407C141.643 67.4179 141.535 67.4642 141.427 67.4642ZM128.281 66.4763C128.209 66.4763 128.137 66.4558 128.065 66.4146C127.88 66.3065 127.803 66.0441 127.927 65.8589C128.851 64.2381 130.285 63.0187 131.333 62.2624C131.81 61.9228 132.334 61.5832 132.843 61.2899C133.043 61.1664 133.29 61.2436 133.413 61.4288C133.521 61.6295 133.46 61.8765 133.259 61.9999C132.766 62.2932 132.273 62.6019 131.81 62.9415C130.84 63.6361 129.483 64.7784 128.636 66.2602C128.559 66.3992 128.42 66.4763 128.281 66.4763ZM157.579 64.516C157.486 64.516 157.379 64.4851 157.302 64.4079C157.086 64.2124 156.87 64.022 156.654 63.8368C155.252 62.6791 153.649 61.7067 151.907 60.9657C151.692 60.8731 151.599 60.6262 151.692 60.4255C151.784 60.2094 152.015 60.1168 152.231 60.2094C154.05 60.9812 155.714 61.9845 157.178 63.2039C157.404 63.3995 157.63 63.6001 157.856 63.8059C158.026 63.9603 158.041 64.2227 157.887 64.3925C157.795 64.4697 157.687 64.516 157.579 64.516ZM97.057 61.9845C96.8258 61.9845 96.6563 61.7993 96.6408 61.5832C96.6254 61.3516 96.8104 61.1664 97.0416 61.151C99.4304 61.0738 101.788 60.8731 103.576 60.7188C103.807 60.7033 104.008 60.8731 104.023 61.0892C104.038 61.3208 103.869 61.5214 103.653 61.5369C101.85 61.6912 99.4766 61.8919 97.0724 61.9845C97.0621 61.9845 97.057 61.9845 97.057 61.9845ZM90.4761 61.9228C90.4761 61.9228 90.471 61.9228 90.4607 61.9228C88.488 61.7993 86.6848 61.5832 84.9125 61.2436C84.5734 61.1818 84.2292 61.1098 83.8799 61.0275C83.6641 60.9812 83.5254 60.7496 83.5717 60.5335C83.6333 60.3174 83.8491 60.1785 84.0648 60.2248C84.4039 60.2969 84.7378 60.3689 85.0666 60.4409C86.8081 60.7651 88.5805 60.9812 90.507 61.1047C90.7381 61.1201 90.9077 61.3208 90.8923 61.5369C90.8768 61.753 90.6919 61.9228 90.4761 61.9228ZM129.776 61.6912C129.745 61.6912 129.714 61.6861 129.684 61.6758C127.711 61.2127 125.553 60.8886 123.257 60.7033C123.026 60.6879 122.856 60.4872 122.872 60.2711C122.902 60.0396 123.103 59.8698 123.319 59.8852C125.661 60.0705 127.865 60.3946 129.869 60.8731C130.1 60.9349 130.238 61.151 130.177 61.3671C130.131 61.5677 129.961 61.6912 129.776 61.6912ZM110.157 60.9503C109.941 60.9503 109.772 60.796 109.756 60.5798C109.725 60.3483 109.895 60.1476 110.126 60.1322C110.804 60.0808 111.482 60.0293 112.16 59.9779C113.794 59.8544 115.274 59.7772 116.707 59.7463C116.707 59.7463 116.712 59.7463 116.722 59.7463C116.938 59.7463 117.123 59.9161 117.123 60.1476C117.138 60.3637 116.954 60.5644 116.738 60.5644C115.304 60.5953 113.84 60.6725 112.222 60.7959C111.544 60.8474 110.866 60.8989 110.188 60.9503C110.178 60.9503 110.167 60.9503 110.157 60.9503ZM139.177 59.7309C138.992 59.7309 138.807 59.6074 138.777 59.4067C138.73 59.1906 138.869 58.9591 139.1 58.9128C141.258 58.4806 143.539 58.3571 145.758 58.5732C145.989 58.5886 146.143 58.7893 146.128 59.0208C146.097 59.2524 145.897 59.4067 145.681 59.3913C143.539 59.1906 141.35 59.2987 139.254 59.7309C139.234 59.7309 139.208 59.7309 139.177 59.7309ZM77.7614 58.9282C77.6998 58.9282 77.6433 58.9128 77.5919 58.8819C76.359 58.3108 75.1723 57.6625 74.078 56.9524C73.8777 56.8289 73.8314 56.5665 73.9547 56.3813C74.078 56.1806 74.3246 56.1343 74.5096 56.2578C75.5884 56.9524 76.7443 57.5853 77.931 58.141C78.1467 58.2336 78.2392 58.4806 78.1313 58.6812C78.0697 58.8356 77.9156 58.9282 77.7614 58.9282Z" fill="#111111"/>
<path d="M82.4295 45.8542L43.4531 32.7183L53.4399 52.3681L82.4295 45.8542Z" fill="#BBB3E3"/>
<path d="M73.6907 47.8145L49.9258 35.9443L70.0381 48.6326L70.9474 55.2083L73.6907 47.8145Z" fill="#111111"/>
<path d="M70.9489 55.2082L64.1523 49.96L70.0396 48.6326L70.9489 55.2082Z" fill="#8E82C9"/>
<path d="M158.627 110.515L156.223 113.108C155.098 114.328 153.202 114.405 152 113.278L149.396 110.885C148.193 109.759 148.116 107.86 149.226 106.656L151.63 104.047C152.755 102.828 154.636 102.751 155.868 103.877L158.458 106.285C159.675 107.412 159.752 109.295 158.627 110.515Z" fill="#C7C7C7"/>
<path d="M86.8992 88.5805L85.2502 90.371C84.4796 91.2046 83.185 91.2509 82.3527 90.4791L80.565 88.8429C79.7482 88.0711 79.6865 86.7745 80.4571 85.9409L82.1062 84.1504C82.8767 83.3168 84.1713 83.2705 85.0036 84.0269L86.7913 85.694C87.6236 86.4503 87.6698 87.7469 86.8992 88.5805Z" fill="#C7C7C7"/>
<path d="M137.804 48.1232L136.155 49.8983C135.384 50.7319 134.09 50.7936 133.257 50.0218L131.485 48.3702C130.653 47.5984 130.591 46.3018 131.362 45.4682L133.011 43.6777C133.781 42.8441 135.076 42.7978 135.908 43.5696L137.696 45.2213C138.528 45.9931 138.574 47.2897 137.804 48.1232Z" fill="#C7C7C7"/>
<path d="M67.3734 181.859L65.7244 183.65C64.9538 184.483 63.6592 184.53 62.827 183.758L61.0392 182.106C60.207 181.35 60.1607 180.038 60.9313 179.22L62.5804 177.414C63.3356 176.596 64.6456 176.534 65.4778 177.306L67.2656 178.957C68.0824 179.729 68.144 181.026 67.3734 181.859Z" fill="#C7C7C7"/>
<path d="M261.531 76.1238L260.452 77.2969C259.943 77.8526 259.08 77.8835 258.541 77.3741L257.354 76.2936C256.815 75.7842 256.784 74.9352 257.293 74.3796L258.371 73.191C258.88 72.6507 259.728 72.6199 260.283 73.1293L261.454 74.2098C262.009 74.7191 262.039 75.5836 261.531 76.1238Z" fill="#C7C7C7"/>
<g opacity="0.4">
<path d="M102.406 177.537C102.221 177.537 102.051 177.414 102.005 177.228C101.743 176.225 101.265 175.253 100.618 174.435C100.186 173.879 99.7856 173.57 99.3695 173.508C98.9996 173.431 98.5835 173.57 98.2752 173.848C97.967 174.11 97.7512 174.512 97.6742 174.959C97.6536 175.042 97.6382 175.119 97.6279 175.191C97.6125 175.376 97.5817 175.561 97.5201 175.747C97.3968 176.148 97.1502 176.426 96.8265 176.565C96.1947 176.812 95.5936 176.364 95.3624 176.194L95.1621 176.04C94.8076 175.777 94.4685 175.531 94.0987 175.361C93.6671 175.175 93.2202 175.16 92.9119 175.33C92.6191 175.484 92.4496 175.87 92.5729 176.117C92.6654 176.333 92.5883 176.58 92.3879 176.673C92.1876 176.781 91.941 176.704 91.8331 176.503C91.5095 175.855 91.8331 174.959 92.5267 174.589C93.0661 174.311 93.7596 174.327 94.4223 174.604C94.8847 174.805 95.2854 175.098 95.6552 175.392L95.8556 175.531C96.1638 175.757 96.3847 175.844 96.5183 175.793C96.6108 175.762 96.6878 175.639 96.7341 175.484C96.7803 175.376 96.7957 175.222 96.8265 175.083C96.8368 174.99 96.8471 174.898 96.8574 174.805C96.9807 174.172 97.2889 173.616 97.7358 173.231C98.229 172.783 98.9071 172.582 99.5236 172.69C100.34 172.845 100.911 173.462 101.265 173.925C101.974 174.836 102.513 175.916 102.806 177.028C102.853 177.244 102.729 177.475 102.513 177.522C102.472 177.532 102.436 177.537 102.406 177.537Z" fill="white"/>
</g>
<g opacity="0.4">
<path d="M88.7627 191.152C88.0229 191.152 87.4218 190.704 87.0365 190.364C86.2814 189.685 85.6341 188.852 85.2025 187.941C85.1101 187.725 85.1871 187.478 85.4029 187.385C85.6032 187.293 85.8498 187.37 85.9423 187.586C86.3276 188.404 86.8978 189.145 87.576 189.747C88.0383 190.148 88.4236 190.318 88.7627 190.318C89.0709 190.318 89.41 190.148 89.6103 189.87C89.8261 189.593 89.934 189.238 89.934 188.836C89.934 188.775 89.934 188.708 89.934 188.636C89.934 188.481 89.9185 188.311 89.9494 188.142C89.9956 187.756 90.1651 187.462 90.4271 187.293C90.9511 186.953 91.5676 187.246 91.7988 187.354L91.9991 187.447C92.3382 187.617 92.6618 187.787 93.0009 187.864C93.3862 187.941 93.7561 187.895 93.9872 187.709C94.203 187.54 94.2801 187.2 94.1414 187.03C94.0027 186.86 94.0335 186.598 94.2184 186.459C94.388 186.32 94.65 186.351 94.7887 186.536C95.2048 187.061 95.0661 187.895 94.4958 188.342C94.0797 188.697 93.4633 188.805 92.816 188.666C92.3844 188.558 91.9991 188.373 91.6292 188.188L91.4443 188.095C91.0898 187.926 90.9357 187.941 90.8741 187.972C90.8124 188.018 90.7662 188.111 90.7508 188.234C90.7508 188.358 90.7508 188.481 90.7508 188.605C90.7611 188.687 90.7662 188.764 90.7662 188.836C90.7662 189.423 90.5813 189.963 90.273 190.38C89.9031 190.843 89.3483 191.136 88.7781 191.152C88.7678 191.152 88.7627 191.152 88.7627 191.152Z" fill="white"/>
</g>
<g opacity="0.4">
<path d="M101.986 200.722C101.416 200.722 100.861 200.29 100.723 199.672C100.584 199.147 100.738 198.53 101.139 198.005C101.401 197.666 101.724 197.388 102.048 197.125L102.217 196.986C102.526 196.739 102.572 196.6 102.572 196.523C102.557 196.462 102.479 196.369 102.372 196.307C102.279 196.245 102.156 196.199 102.048 196.153C101.976 196.122 101.904 196.091 101.832 196.06C101.308 195.829 100.892 195.427 100.645 194.964C100.368 194.439 100.337 193.807 100.568 193.297C100.861 192.618 101.539 192.248 102.002 192.047C102.926 191.63 103.959 191.399 104.976 191.383C105.207 191.383 105.377 191.553 105.392 191.785C105.392 192.016 105.207 192.201 104.976 192.201C104.082 192.217 103.173 192.417 102.341 192.788C101.786 193.035 101.462 193.313 101.324 193.621C101.185 193.915 101.216 194.285 101.37 194.594C101.524 194.887 101.817 195.15 102.171 195.319C102.233 195.34 102.295 195.366 102.356 195.396C102.495 195.458 102.664 195.52 102.803 195.613C103.127 195.813 103.327 196.091 103.373 196.415C103.466 197.017 102.942 197.465 102.741 197.619L102.572 197.758C102.279 198.005 102.002 198.237 101.786 198.515C101.539 198.823 101.447 199.194 101.509 199.472C101.57 199.734 101.848 199.935 102.063 199.888C102.279 199.842 102.495 199.981 102.557 200.197C102.603 200.413 102.464 200.645 102.248 200.691C102.166 200.712 102.079 200.722 101.986 200.722Z" fill="white"/>
</g>
<g opacity="0.4">
<path d="M94.9762 210.308C94.894 210.308 94.8118 210.302 94.7296 210.292C94.2827 210.199 93.8666 209.86 93.62 209.366C93.4505 209.042 93.3734 208.702 93.2963 208.378L93.2655 208.224C93.1885 207.9 93.096 207.869 93.096 207.869C93.0806 207.869 93.0189 207.869 92.9265 207.93C92.8494 207.977 92.7878 208.038 92.7107 208.1C92.6593 208.152 92.608 208.198 92.5566 208.239C92.1867 208.532 91.7398 208.718 91.2928 208.733C90.7688 208.748 90.2911 208.548 89.9828 208.177C89.6746 207.822 89.5359 207.328 89.5667 206.649C89.5975 205.831 89.7979 204.998 90.1678 204.257C90.2602 204.041 90.5068 203.963 90.7072 204.056C90.9075 204.164 91 204.396 90.9075 204.612C90.5993 205.26 90.4143 205.97 90.3835 206.68C90.3681 207.143 90.4452 207.452 90.6147 207.653C90.7534 207.822 91.0154 207.915 91.262 207.9C91.5394 207.9 91.8014 207.791 92.048 207.591C92.0891 207.56 92.1302 207.524 92.1713 207.483C92.2792 207.39 92.3716 207.313 92.4949 207.236C92.7724 207.051 93.0806 207.004 93.3426 207.081C93.8666 207.251 94.0053 207.838 94.0515 208.023L94.0978 208.193C94.1594 208.486 94.2365 208.764 94.3444 208.995C94.4831 209.258 94.6834 209.443 94.8992 209.474C95.0687 209.52 95.2845 209.412 95.3153 209.289C95.3615 209.073 95.5927 208.934 95.8085 208.98C96.0242 209.042 96.1629 209.258 96.1167 209.474C95.9934 209.968 95.5002 210.308 94.9762 210.308Z" fill="white"/>
</g>
<g opacity="0.4">
<path d="M119.279 212.932C119.14 212.932 119.001 212.854 118.924 212.731C118.631 212.237 118.816 211.527 119.34 211.187C119.741 210.925 120.265 210.879 120.789 211.064C121.128 211.172 121.421 211.357 121.698 211.542L121.852 211.635C122.13 211.805 122.207 211.774 122.207 211.774C122.222 211.759 122.268 211.712 122.284 211.62C122.299 211.527 122.315 211.419 122.315 211.326C122.325 211.265 122.33 211.198 122.33 211.126C122.392 210.647 122.592 210.215 122.9 209.891C123.255 209.52 123.733 209.32 124.21 209.366C124.688 209.412 125.135 209.675 125.582 210.169C126.137 210.771 126.568 211.512 126.83 212.299C126.907 212.515 126.784 212.746 126.568 212.824C126.368 212.901 126.121 212.777 126.06 212.561C125.829 211.882 125.459 211.249 124.981 210.724C124.673 210.385 124.395 210.215 124.149 210.184C123.917 210.169 123.671 210.277 123.486 210.462C123.301 210.647 123.193 210.925 123.147 211.234C123.147 211.285 123.142 211.337 123.131 211.388C123.131 211.527 123.116 211.666 123.085 211.805C123.008 212.129 122.823 212.376 122.577 212.499C122.083 212.746 121.575 212.438 121.421 212.33L121.267 212.237C121.005 212.083 120.773 211.928 120.527 211.836C120.249 211.743 119.972 211.758 119.787 211.882C119.648 211.975 119.556 212.191 119.633 212.314C119.741 212.499 119.679 212.762 119.494 212.87C119.422 212.911 119.35 212.932 119.279 212.932Z" fill="white"/>
</g>
<g opacity="0.4">
<path d="M107.676 219.6C107.563 219.6 107.46 219.59 107.367 219.569C106.813 219.446 106.335 219.029 106.042 218.427C105.842 218.01 105.749 217.593 105.672 217.177L105.626 216.96C105.533 216.559 105.426 216.451 105.349 216.42C105.271 216.389 105.148 216.42 105.04 216.497C104.932 216.559 104.825 216.652 104.732 216.729C104.67 216.78 104.609 216.832 104.547 216.883C104.069 217.254 103.515 217.454 102.975 217.454C102.374 217.47 101.758 217.207 101.403 216.76C100.91 216.158 100.91 215.386 100.941 214.861C101.002 213.827 101.28 212.777 101.758 211.851C101.865 211.635 102.112 211.558 102.312 211.666C102.513 211.774 102.605 212.021 102.497 212.222C102.066 213.055 101.819 213.981 101.758 214.907C101.711 215.54 101.804 215.957 102.035 216.235C102.235 216.482 102.59 216.621 102.96 216.636C103.33 216.636 103.715 216.482 104.039 216.235C104.1 216.194 104.157 216.147 104.208 216.096C104.331 215.988 104.455 215.88 104.624 215.787C104.948 215.587 105.302 215.54 105.611 215.633C106.212 215.849 106.366 216.528 106.427 216.775L106.474 217.007C106.551 217.393 106.628 217.748 106.782 218.056C106.951 218.442 107.244 218.705 107.537 218.766C107.83 218.828 108.169 218.674 108.231 218.442C108.277 218.226 108.508 218.103 108.724 218.149C108.939 218.211 109.078 218.442 109.017 218.658C108.862 219.276 108.246 219.6 107.676 219.6Z" fill="white"/>
</g>
<g opacity="0.4">
<path d="M139.826 208.409C139.286 208.409 138.762 208.023 138.546 207.56C138.315 207.05 138.346 206.402 138.639 205.8C138.855 205.399 139.132 205.075 139.409 204.751L139.548 204.581C139.81 204.272 139.841 204.118 139.81 204.041C139.779 203.963 139.687 203.886 139.564 203.84C139.44 203.794 139.317 203.763 139.194 203.732C139.111 203.722 139.029 203.706 138.947 203.685C138.377 203.531 137.868 203.207 137.545 202.79C137.159 202.296 137.005 201.663 137.144 201.108C137.313 200.367 137.914 199.888 138.361 199.58C139.209 199.008 140.211 198.592 141.243 198.406C141.475 198.36 141.69 198.514 141.721 198.731C141.767 198.962 141.613 199.163 141.398 199.209C140.473 199.379 139.579 199.749 138.808 200.259C138.3 200.614 138.022 200.938 137.93 201.293C137.868 201.602 137.961 201.988 138.192 202.281C138.408 202.559 138.762 202.775 139.163 202.883C139.235 202.903 139.302 202.919 139.363 202.929C139.533 202.975 139.687 203.006 139.872 203.068C140.226 203.222 140.488 203.469 140.581 203.778C140.796 204.38 140.35 204.905 140.18 205.106L140.026 205.291C139.779 205.584 139.533 205.862 139.379 206.171C139.194 206.541 139.163 206.927 139.286 207.205C139.409 207.467 139.748 207.652 139.964 207.56C140.165 207.467 140.411 207.56 140.504 207.776C140.581 207.992 140.488 208.224 140.272 208.316C140.129 208.378 139.98 208.409 139.826 208.409Z" fill="white"/>
</g>
<g opacity="0.4">
<path d="M124.013 201.231C123.273 201.231 122.518 201.123 121.809 200.922C121.593 200.861 121.47 200.629 121.531 200.413C121.593 200.182 121.824 200.058 122.04 200.135C122.949 200.398 123.905 200.475 124.83 200.367C125.446 200.29 125.847 200.12 126.078 199.842C126.278 199.595 126.371 199.225 126.294 198.854C126.217 198.499 126.016 198.159 125.708 197.866C125.657 197.825 125.6 197.784 125.539 197.743C125.415 197.635 125.277 197.527 125.169 197.388C124.907 197.094 124.783 196.755 124.83 196.431C124.922 195.798 125.569 195.535 125.801 195.427L126.016 195.335C126.371 195.196 126.71 195.057 127.003 194.841C127.326 194.594 127.542 194.27 127.557 193.961C127.557 193.668 127.342 193.359 127.111 193.343C126.879 193.328 126.71 193.127 126.741 192.911C126.756 192.68 126.956 192.51 127.172 192.525C127.927 192.587 128.39 193.328 128.374 193.992C128.343 194.563 128.035 195.103 127.48 195.504C127.126 195.767 126.725 195.937 126.325 196.106L126.124 196.184C125.754 196.338 125.662 196.477 125.646 196.554C125.631 196.616 125.693 196.739 125.785 196.847C125.862 196.94 125.97 197.017 126.063 197.094C126.124 197.146 126.186 197.202 126.247 197.264C126.694 197.666 127.003 198.175 127.095 198.7C127.218 199.317 127.064 199.935 126.694 200.382C126.217 200.969 125.446 201.123 124.922 201.185C124.624 201.216 124.321 201.231 124.013 201.231Z" fill="white"/>
</g>
<g opacity="0.4">
<path d="M150.288 192.201C150.185 192.201 150.082 192.191 149.979 192.17C149.425 192.047 148.947 191.63 148.654 191.028C148.454 190.611 148.361 190.195 148.284 189.778L148.238 189.562C148.145 189.16 148.038 189.052 147.96 189.021C147.899 188.991 147.776 189.021 147.652 189.099C147.544 189.16 147.452 189.253 147.344 189.33C147.282 189.382 147.221 189.433 147.159 189.485C146.681 189.855 146.126 190.056 145.587 190.056C144.955 190.071 144.37 189.793 144.015 189.361C143.537 188.759 143.522 187.987 143.553 187.462C143.614 186.428 143.907 185.379 144.385 184.452C144.477 184.236 144.724 184.159 144.924 184.267C145.14 184.375 145.217 184.622 145.109 184.823C144.678 185.656 144.431 186.583 144.37 187.509C144.339 188.142 144.416 188.558 144.647 188.836C144.847 189.083 145.233 189.238 145.587 189.238C145.942 189.222 146.327 189.083 146.65 188.836C146.712 188.795 146.769 188.749 146.82 188.697C146.943 188.589 147.082 188.481 147.236 188.389C147.575 188.188 147.914 188.142 148.222 188.234C148.839 188.45 148.978 189.13 149.039 189.376L149.086 189.608C149.163 189.994 149.24 190.349 149.394 190.658C149.579 191.028 149.856 191.291 150.164 191.368C150.442 191.429 150.781 191.275 150.842 191.044C150.904 190.827 151.12 190.704 151.336 190.75C151.567 190.812 151.69 191.044 151.628 191.26C151.474 191.877 150.858 192.201 150.288 192.201Z" fill="white"/>
</g>
<g opacity="0.4">
<path d="M123.733 180.748C123.63 180.748 123.527 180.738 123.425 180.717C122.87 180.594 122.392 180.177 122.099 179.575C121.914 179.158 121.822 178.741 121.729 178.325L121.683 178.108C121.591 177.707 121.483 177.599 121.421 177.568C121.344 177.553 121.221 177.584 121.098 177.645C120.99 177.707 120.897 177.8 120.805 177.877C120.733 177.928 120.666 177.98 120.604 178.031C120.127 178.402 119.572 178.602 119.032 178.602C118.4 178.602 117.83 178.355 117.46 177.908C116.983 177.321 116.967 176.549 116.998 176.009C117.06 174.975 117.352 173.925 117.83 172.999C117.923 172.799 118.169 172.706 118.385 172.814C118.585 172.922 118.662 173.169 118.555 173.37C118.138 174.203 117.876 175.129 117.815 176.055C117.784 176.688 117.876 177.105 118.092 177.383C118.308 177.63 118.678 177.8 119.032 177.784C119.387 177.784 119.772 177.63 120.111 177.383C120.163 177.342 120.214 177.295 120.265 177.244C120.389 177.136 120.527 177.028 120.681 176.935C121.02 176.735 121.375 176.688 121.668 176.796C122.284 176.997 122.438 177.676 122.485 177.939L122.531 178.155C122.608 178.541 122.685 178.896 122.839 179.22C123.024 179.59 123.301 179.853 123.61 179.914C123.887 179.976 124.226 179.822 124.288 179.59C124.349 179.374 124.581 179.251 124.796 179.297C125.012 179.359 125.135 179.59 125.089 179.806C124.92 180.424 124.319 180.748 123.733 180.748Z" fill="white"/>
</g>
<g opacity="0.4">
<path d="M148.086 163.676C147.973 163.676 147.87 163.666 147.778 163.645C147.223 163.522 146.745 163.105 146.452 162.503C146.252 162.086 146.159 161.654 146.067 161.237L146.036 161.036C145.944 160.635 145.836 160.527 145.759 160.496C145.682 160.481 145.574 160.496 145.45 160.573C145.343 160.635 145.235 160.728 145.142 160.805C145.081 160.856 145.014 160.908 144.942 160.959C144.48 161.33 143.925 161.53 143.385 161.53C142.753 161.546 142.168 161.283 141.813 160.836C141.32 160.249 141.32 159.462 141.351 158.937C141.413 157.903 141.69 156.853 142.168 155.927C142.276 155.726 142.522 155.634 142.723 155.742C142.923 155.85 143 156.097 142.908 156.298C142.476 157.131 142.229 158.057 142.168 158.983C142.122 159.616 142.214 160.033 142.445 160.311C142.646 160.558 142.985 160.712 143.37 160.712C143.74 160.712 144.125 160.558 144.449 160.311C144.51 160.27 144.567 160.223 144.618 160.172C144.742 160.064 144.865 159.956 145.034 159.863C145.358 159.663 145.712 159.616 146.021 159.724C146.622 159.925 146.776 160.604 146.838 160.851L146.884 161.083C146.961 161.453 147.038 161.824 147.192 162.148C147.362 162.518 147.654 162.781 147.947 162.842C148.24 162.904 148.579 162.75 148.641 162.518C148.687 162.302 148.918 162.179 149.134 162.225C149.35 162.287 149.488 162.518 149.427 162.734C149.273 163.352 148.656 163.676 148.086 163.676Z" fill="white"/>
</g>
<g opacity="0.4">
<path d="M163.28 210.477C163.177 210.477 163.074 210.462 162.972 210.431C162.432 210.308 161.939 209.891 161.646 209.289C161.461 208.887 161.369 208.455 161.276 208.038L161.23 207.822C161.158 207.503 161.071 207.323 160.968 207.282C160.891 207.267 160.768 207.298 160.644 207.359C160.537 207.436 160.444 207.514 160.352 207.591C160.28 207.653 160.213 207.709 160.151 207.761C159.689 208.116 159.119 208.316 158.595 208.332C157.994 208.332 157.377 208.069 157.007 207.622C156.529 207.035 156.514 206.263 156.545 205.723C156.607 204.689 156.899 203.655 157.377 202.713C157.485 202.512 157.732 202.435 157.932 202.528C158.132 202.636 158.209 202.883 158.101 203.084C157.685 203.917 157.423 204.859 157.362 205.785C157.331 206.402 157.423 206.819 157.639 207.097C157.855 207.359 158.209 207.514 158.579 207.498C158.934 207.498 159.319 207.359 159.658 207.097C159.709 207.056 159.761 207.015 159.812 206.973C159.951 206.865 160.074 206.757 160.228 206.665C160.567 206.464 160.922 206.402 161.23 206.51C161.831 206.711 161.985 207.39 162.031 207.653L162.078 207.869C162.17 208.255 162.232 208.61 162.386 208.934C162.571 209.304 162.864 209.567 163.157 209.628C163.449 209.706 163.773 209.536 163.835 209.32C163.896 209.104 164.127 208.965 164.343 209.026C164.559 209.073 164.682 209.304 164.636 209.52C164.467 210.138 163.865 210.477 163.28 210.477Z" fill="white"/>
</g>
<g opacity="0.4">
<path d="M159.644 157.826C159.542 157.826 159.439 157.815 159.336 157.795C158.781 157.671 158.304 157.239 158.011 156.637C157.81 156.236 157.718 155.804 157.641 155.387L157.595 155.171C157.502 154.785 157.394 154.661 157.317 154.646C157.256 154.615 157.132 154.646 157.009 154.723C156.901 154.785 156.809 154.862 156.701 154.955C156.639 155.006 156.578 155.058 156.516 155.109C156.038 155.464 155.483 155.665 154.944 155.68C154.297 155.665 153.726 155.418 153.372 154.97C152.879 154.384 152.879 153.612 152.91 153.087C152.971 152.037 153.264 151.003 153.742 150.062C153.834 149.861 154.081 149.784 154.281 149.892C154.482 149.984 154.574 150.231 154.466 150.432C154.035 151.281 153.788 152.207 153.726 153.133C153.696 153.751 153.773 154.183 154.004 154.461C154.204 154.708 154.589 154.847 154.944 154.847C155.298 154.847 155.684 154.708 156.007 154.461C156.069 154.409 156.125 154.363 156.177 154.322C156.3 154.214 156.439 154.106 156.593 154.013C156.917 153.812 157.271 153.751 157.579 153.859C158.196 154.059 158.334 154.739 158.396 155.001L158.442 155.217C158.519 155.603 158.596 155.958 158.751 156.282C158.936 156.653 159.213 156.915 159.521 156.992C159.799 157.054 160.138 156.9 160.199 156.668C160.261 156.452 160.477 156.313 160.692 156.375C160.924 156.436 161.047 156.653 160.985 156.869C160.831 157.486 160.215 157.826 159.644 157.826Z" fill="white"/>
</g>
<g opacity="0.4">
<path d="M188.787 195.458C188.541 195.458 188.294 195.412 188.063 195.319C187.369 195.011 186.999 194.331 186.784 193.853C186.352 192.896 186.121 191.846 186.105 190.797C186.105 190.565 186.29 190.38 186.522 190.38C186.753 190.38 186.938 190.565 186.938 190.781C186.938 191.723 187.153 192.664 187.523 193.513C187.785 194.084 188.047 194.409 188.386 194.563C188.679 194.686 189.065 194.656 189.388 194.47C189.712 194.301 189.989 194.007 190.159 193.621C190.19 193.56 190.22 193.493 190.251 193.421C190.313 193.282 190.375 193.112 190.467 192.958C190.667 192.634 190.96 192.417 191.284 192.371C191.916 192.263 192.363 192.803 192.532 193.004L192.671 193.174C192.917 193.482 193.149 193.76 193.441 193.976C193.765 194.223 194.135 194.316 194.443 194.239C194.721 194.162 194.952 193.868 194.89 193.637C194.844 193.421 194.983 193.205 195.198 193.143C195.43 193.097 195.645 193.236 195.692 193.452C195.861 194.193 195.291 194.872 194.644 195.041C194.104 195.18 193.488 195.042 192.948 194.64C192.578 194.362 192.301 194.023 192.039 193.699L191.9 193.529C191.638 193.22 191.484 193.174 191.407 193.174C191.33 193.189 191.238 193.282 191.176 193.39C191.099 193.498 191.053 193.621 191.006 193.745C190.976 193.817 190.945 193.894 190.914 193.976C190.652 194.517 190.251 194.949 189.789 195.196C189.465 195.366 189.126 195.458 188.787 195.458Z" fill="white"/>
</g>
<defs>
<linearGradient id="paint0_linear_8757_21850" x1="161.825" y1="162.975" x2="274.565" y2="162.592" gradientUnits="userSpaceOnUse">
<stop stop-color="#35A1DA"/>
<stop offset="0.25" stop-color="#857BBD"/>
<stop offset="0.5" stop-color="#E8584B"/>
<stop offset="0.75" stop-color="#584F9E"/>
<stop offset="1" stop-color="#CE4C9B"/>
</linearGradient>
<linearGradient id="paint1_linear_8757_21850" x1="171.055" y1="163.003" x2="274.452" y2="162.682" gradientUnits="userSpaceOnUse">
<stop stop-color="#35A1DA"/>
<stop offset="0.25" stop-color="#857BBD"/>
<stop offset="0.5" stop-color="#E8584B"/>
<stop offset="0.75" stop-color="#584F9E"/>
<stop offset="1" stop-color="#CE4C9B"/>
</linearGradient>
</defs>
</svg>
