<svg width="135" height="43" viewBox="0 0 135 43" fill="none" xmlns="http://www.w3.org/2000/svg">
<path d="M13.0753 13.2344C12.9825 12.366 12.5914 11.6899 11.902 11.206C11.2192 10.7221 10.331 10.4801 9.23722 10.4801C8.46828 10.4801 7.80871 10.5961 7.25852 10.8281C6.70833 11.0601 6.28741 11.375 5.99574 11.7727C5.70407 12.1705 5.55492 12.6245 5.5483 13.1349C5.5483 13.5592 5.64441 13.9271 5.83665 14.2386C6.03551 14.5502 6.30398 14.8153 6.64205 15.0341C6.98011 15.2462 7.35464 15.4252 7.76562 15.571C8.17661 15.7169 8.59091 15.8395 9.00852 15.9389L10.9176 16.4162C11.6866 16.5952 12.4257 16.8371 13.1349 17.142C13.8509 17.447 14.4905 17.8314 15.054 18.2955C15.6241 18.7595 16.0748 19.3196 16.4062 19.9759C16.7377 20.6321 16.9034 21.401 16.9034 22.2827C16.9034 23.4759 16.5985 24.5265 15.9886 25.4347C15.3788 26.3362 14.4972 27.0421 13.3438 27.5526C12.197 28.0563 10.8082 28.3082 9.17756 28.3082C7.59328 28.3082 6.2178 28.063 5.05114 27.5724C3.8911 27.0819 2.98295 26.366 2.3267 25.4247C1.67708 24.4834 1.32576 23.3366 1.27273 21.9844H4.90199C4.95502 22.6937 5.17377 23.2836 5.55824 23.7543C5.94271 24.2249 6.44318 24.5762 7.05966 24.8082C7.68277 25.0402 8.37879 25.1562 9.14773 25.1562C9.94981 25.1562 10.6525 25.0369 11.2557 24.7983C11.8655 24.553 12.3428 24.215 12.6875 23.7841C13.0322 23.3466 13.2079 22.8362 13.2145 22.2528C13.2079 21.7225 13.0521 21.285 12.7472 20.9403C12.4422 20.589 12.0147 20.2973 11.4645 20.0653C10.9209 19.8267 10.2846 19.6146 9.5554 19.429L7.23864 18.8324C5.56155 18.4015 4.2358 17.7486 3.26136 16.8736C2.29356 15.992 1.80966 14.822 1.80966 13.3636C1.80966 12.1638 2.13447 11.1132 2.78409 10.2116C3.44034 9.31013 4.33191 8.6108 5.45881 8.11364C6.5857 7.60985 7.86174 7.35795 9.28693 7.35795C10.732 7.35795 11.9981 7.60985 13.0852 8.11364C14.179 8.6108 15.0374 9.3035 15.6605 10.1918C16.2836 11.0734 16.6051 12.0876 16.625 13.2344H13.0753ZM23.8679 28.3082C22.9001 28.3082 22.0284 28.1359 21.2529 27.7912C20.4839 27.4399 19.8741 26.9228 19.4233 26.2401C18.9792 25.5573 18.7571 24.7154 18.7571 23.7145C18.7571 22.8527 18.9162 22.1402 19.2344 21.5767C19.5526 21.0133 19.9868 20.5625 20.5369 20.2244C21.0871 19.8864 21.7069 19.6312 22.3963 19.4588C23.0923 19.2798 23.8116 19.1506 24.554 19.071C25.4489 18.9782 26.1747 18.8954 26.7315 18.8224C27.2884 18.7429 27.6927 18.6236 27.9446 18.4645C28.2031 18.2988 28.3324 18.0436 28.3324 17.6989V17.6392C28.3324 16.8902 28.1103 16.3101 27.6662 15.8991C27.2221 15.4882 26.5824 15.2827 25.7472 15.2827C24.8655 15.2827 24.1662 15.4749 23.6492 15.8594C23.1387 16.2438 22.794 16.6979 22.6151 17.2216L19.2543 16.7443C19.5194 15.8163 19.9569 15.0407 20.5668 14.4176C21.1766 13.7879 21.9224 13.3172 22.804 13.0057C23.6856 12.6875 24.6601 12.5284 25.7273 12.5284C26.4631 12.5284 27.1956 12.6146 27.9247 12.7869C28.6539 12.9593 29.3201 13.2443 29.9233 13.642C30.5265 14.0331 31.0104 14.5668 31.375 15.2429C31.7462 15.919 31.9318 16.7642 31.9318 17.7784V28H28.4716V25.902H28.3523C28.1335 26.3262 27.8253 26.724 27.4276 27.0952C27.0365 27.4598 26.5426 27.7547 25.946 27.9801C25.3561 28.1989 24.6634 28.3082 23.8679 28.3082ZM24.8026 25.6634C25.5251 25.6634 26.1515 25.5208 26.6818 25.2358C27.2121 24.9441 27.6198 24.5597 27.9048 24.0824C28.1965 23.6051 28.3423 23.0848 28.3423 22.5213V20.7216C28.2297 20.8144 28.0374 20.9006 27.7656 20.9801C27.5005 21.0597 27.2022 21.1293 26.8708 21.1889C26.5393 21.2486 26.2112 21.3016 25.8864 21.348C25.5616 21.3944 25.2798 21.4342 25.0412 21.4673C24.5043 21.5402 24.0237 21.6596 23.5994 21.8253C23.1752 21.991 22.8405 22.223 22.5952 22.5213C22.3499 22.813 22.2273 23.1908 22.2273 23.6548C22.2273 24.3177 22.4692 24.8182 22.9531 25.1562C23.437 25.4943 24.0535 25.6634 24.8026 25.6634ZM38.5906 7.63636V28H34.9912V7.63636H38.5906ZM48.4933 28.2983C46.962 28.2983 45.6396 27.9801 44.526 27.3438C43.419 26.7008 42.5672 25.7926 41.9706 24.6193C41.374 23.4394 41.0757 22.0507 41.0757 20.4531C41.0757 18.8821 41.374 17.5033 41.9706 16.3168C42.5738 15.1236 43.4156 14.1955 44.4961 13.5327C45.5766 12.8632 46.846 12.5284 48.3044 12.5284C49.2457 12.5284 50.1339 12.6809 50.9691 12.9858C51.811 13.2841 52.5534 13.7481 53.1964 14.3778C53.846 15.0076 54.3565 15.8097 54.7277 16.7841C55.0989 17.7519 55.2845 18.9053 55.2845 20.2443V21.348H42.766V18.9219H51.8342C51.8276 18.2325 51.6784 17.6193 51.3868 17.0824C51.0951 16.5388 50.6874 16.1113 50.1637 15.7997C49.6467 15.4882 49.0435 15.3324 48.3541 15.3324C47.6183 15.3324 46.972 15.5114 46.4152 15.8693C45.8584 16.2206 45.4242 16.6847 45.1126 17.2614C44.8077 17.8314 44.6519 18.4579 44.6453 19.1406V21.2585C44.6453 22.1468 44.8077 22.9091 45.1325 23.5455C45.4573 24.1752 45.9114 24.6591 46.4947 24.9972C47.078 25.3286 47.7608 25.4943 48.543 25.4943C49.0667 25.4943 49.5406 25.4214 49.9649 25.2756C50.3891 25.1231 50.757 24.901 51.0686 24.6094C51.3801 24.3177 51.6155 23.9564 51.7745 23.5256L55.1353 23.9034C54.9232 24.7917 54.5189 25.5672 53.9223 26.2301C53.3323 26.8864 52.5766 27.3968 51.6552 27.7614C50.7338 28.1193 49.6798 28.2983 48.4933 28.2983ZM69.8406 16.7642L66.5594 17.1222C66.4666 16.7907 66.3042 16.4792 66.0721 16.1875C65.8468 15.8958 65.5418 15.6605 65.1574 15.4815C64.7729 15.3026 64.3023 15.2131 63.7454 15.2131C62.9964 15.2131 62.3667 15.3755 61.8562 15.7003C61.3524 16.0251 61.1039 16.446 61.1105 16.9631C61.1039 17.4072 61.2663 17.7685 61.5977 18.0469C61.9358 18.3253 62.4926 18.554 63.2682 18.733L65.8733 19.2898C67.3184 19.6013 68.3922 20.0952 69.0949 20.7713C69.8042 21.4474 70.1621 22.3324 70.1687 23.4261C70.1621 24.3873 69.8804 25.2358 69.3236 25.9716C68.7734 26.7008 68.0077 27.2708 67.0267 27.6818C66.0456 28.0928 64.9187 28.2983 63.646 28.2983C61.7767 28.2983 60.272 27.9072 59.1318 27.125C57.9917 26.3362 57.3122 25.2391 57.0935 23.8338L60.6034 23.4957C60.7625 24.1851 61.1006 24.7055 61.6176 25.0568C62.1346 25.4081 62.8075 25.5838 63.6361 25.5838C64.4912 25.5838 65.1773 25.4081 65.6943 25.0568C66.218 24.7055 66.4798 24.2713 66.4798 23.7543C66.4798 23.3168 66.3108 22.9555 65.9727 22.6705C65.6413 22.3854 65.1242 22.1667 64.4216 22.0142L61.8165 21.4673C60.3515 21.1624 59.2677 20.6487 58.565 19.9261C57.8624 19.197 57.5144 18.2756 57.521 17.1619C57.5144 16.2206 57.7696 15.4053 58.2866 14.7159C58.8103 14.0199 59.5362 13.483 60.4642 13.1051C61.3988 12.7206 62.476 12.5284 63.6957 12.5284C65.4855 12.5284 66.8941 12.9096 67.9216 13.6719C68.9557 14.4342 69.5953 15.465 69.8406 16.7642ZM79.1212 28V7.63636H82.7206V15.2528H82.8698C83.0554 14.8816 83.3172 14.4872 83.6553 14.0696C83.9933 13.6454 84.4507 13.2841 85.0274 12.9858C85.6041 12.6809 86.3399 12.5284 87.2348 12.5284C88.4147 12.5284 89.4787 12.83 90.4266 13.4332C91.3811 14.0298 92.1368 14.9148 92.6936 16.0881C93.2571 17.2547 93.5388 18.6866 93.5388 20.3835C93.5388 22.0606 93.2637 23.4858 92.7135 24.6591C92.1633 25.8324 91.4143 26.7273 90.4663 27.3438C89.5184 27.9602 88.4446 28.2685 87.2448 28.2685C86.3698 28.2685 85.6439 28.1226 85.0672 27.831C84.4905 27.5393 84.0265 27.188 83.6752 26.777C83.3305 26.3594 83.062 25.965 82.8698 25.5938H82.661V28H79.1212ZM82.651 20.3636C82.651 21.3513 82.7902 22.2164 83.0686 22.9588C83.3537 23.7012 83.7613 24.2812 84.2916 24.6989C84.8286 25.1098 85.4782 25.3153 86.2405 25.3153C87.036 25.3153 87.7021 25.1032 88.2391 24.679C88.776 24.2481 89.1804 23.6615 89.4521 22.919C89.7306 22.17 89.8698 21.3182 89.8698 20.3636C89.8698 19.4157 89.7339 18.5739 89.4621 17.8381C89.1903 17.1023 88.786 16.5256 88.249 16.108C87.7121 15.6903 87.0426 15.4815 86.2405 15.4815C85.4716 15.4815 84.8186 15.6837 84.2817 16.0881C83.7448 16.4924 83.3371 17.0592 83.0587 17.7884C82.7869 18.5175 82.651 19.3759 82.651 20.3636ZM102.701 28.2983C101.209 28.2983 99.9166 27.9702 98.8229 27.3139C97.7291 26.6577 96.8807 25.7396 96.2774 24.5597C95.6809 23.3797 95.3826 22.0009 95.3826 20.4233C95.3826 18.8456 95.6809 17.4635 96.2774 16.277C96.8807 15.0904 97.7291 14.169 98.8229 13.5128C99.9166 12.8565 101.209 12.5284 102.701 12.5284C104.192 12.5284 105.485 12.8565 106.579 13.5128C107.672 14.169 108.518 15.0904 109.114 16.277C109.717 17.4635 110.019 18.8456 110.019 20.4233C110.019 22.0009 109.717 23.3797 109.114 24.5597C108.518 25.7396 107.672 26.6577 106.579 27.3139C105.485 27.9702 104.192 28.2983 102.701 28.2983ZM102.721 25.4148C103.529 25.4148 104.205 25.1927 104.749 24.7486C105.293 24.2978 105.697 23.6946 105.962 22.9389C106.234 22.1832 106.37 21.3414 106.37 20.4134C106.37 19.4787 106.234 18.6335 105.962 17.8778C105.697 17.1155 105.293 16.509 104.749 16.0582C104.205 15.6075 103.529 15.3821 102.721 15.3821C101.892 15.3821 101.203 15.6075 100.652 16.0582C100.109 16.509 99.7012 17.1155 99.4294 17.8778C99.1643 18.6335 99.0317 19.4787 99.0317 20.4134C99.0317 21.3414 99.1643 22.1832 99.4294 22.9389C99.7012 23.6946 100.109 24.2978 100.652 24.7486C101.203 25.1927 101.892 25.4148 102.721 25.4148ZM120.14 12.7273V15.5114H111.361V12.7273H120.14ZM113.528 9.06818H117.128V23.4062C117.128 23.8902 117.201 24.2614 117.346 24.5199C117.499 24.7718 117.698 24.9441 117.943 25.0369C118.188 25.1297 118.46 25.1761 118.758 25.1761C118.984 25.1761 119.189 25.1596 119.375 25.1264C119.567 25.0933 119.713 25.0634 119.812 25.0369L120.419 27.8509C120.227 27.9171 119.951 27.9901 119.594 28.0696C119.242 28.1491 118.811 28.1955 118.301 28.2088C117.399 28.2353 116.587 28.0994 115.865 27.8011C115.142 27.4962 114.569 27.0256 114.145 26.3892C113.727 25.7528 113.522 24.9574 113.528 24.0028V9.06818Z" fill="url(#paint0_linear_8923_28373)"/>
<path d="M3.88032 39.3398C6.70145 38.6914 8.59544 38.8786 11.2179 38.6892C16.9558 38.2734 24.5136 37.534 30.3889 37.135C34.8307 36.8296 39.3557 36.5743 43.7807 36.3611C44.0088 36.3501 44.1472 36.3812 44.2508 36.3763C45.2176 36.3301 46.8347 36.2151 47.8045 36.1749C49.814 36.0888 53.3444 35.9367 55.1954 35.9085C55.9807 35.8954 56.7899 35.8747 57.0998 35.9559C57.3883 35.9511 57.5434 35.8637 57.6186 35.8568C57.6195 35.8568 57.6203 35.8569 57.6212 35.8569C57.8615 35.8353 58.4723 35.8741 58.6068 35.8665C58.627 35.8654 58.5012 35.8094 58.8283 35.8176C58.8574 35.8183 58.8317 35.8596 59.1069 35.8521C59.1782 35.8499 60.0978 35.7613 60.3618 35.7504C61.2411 35.7131 63.327 35.7114 64.3793 35.6902C64.5391 35.6869 64.6308 35.6613 64.7997 35.6576C64.8869 35.6556 65.0183 35.6789 65.0451 35.6783C65.1627 35.675 65.6751 35.5485 65.4947 35.7829C66.0315 35.7586 65.872 35.6851 65.8833 35.6353C66.4667 35.618 66.7499 35.7225 66.9006 35.6047C69.4709 35.577 72.0425 35.568 74.6126 35.5804C74.912 35.5819 75.212 35.5838 75.5126 35.5863C75.5135 35.5675 75.5144 35.5487 75.5153 35.5299C76.3624 35.6083 76.6562 35.4841 77.1419 35.5974C77.4404 35.5762 77.7373 35.5554 78.0358 35.5351C85.7074 35.7066 93.3475 35.9948 100.894 36.5092C101.215 36.5312 101.293 36.5765 101.82 36.6136C102.404 36.6549 103.207 36.6657 103.982 36.7237C104.66 36.7741 105.628 36.8855 106.385 36.9507C106.555 36.9652 106.679 36.9496 106.698 36.9512C106.81 36.961 106.813 37.0014 106.921 37.0111C107.051 37.0226 107.21 37.0054 107.359 37.0191C107.916 37.0701 108.519 37.1091 108.595 37.116C108.938 37.1479 109.01 37.1933 109.039 37.196C109.419 37.2322 109.279 37.1852 109.374 37.1951C109.865 37.2468 110.196 37.3632 110.874 37.3359C110.853 37.3669 110.832 37.398 110.81 37.4291C111.328 37.4919 110.992 37.3758 111.1 37.3691C111.145 37.3669 112.252 37.4735 112.334 37.4826C112.629 37.514 112.632 37.5582 112.658 37.561C112.715 37.5674 113.472 37.5849 113.854 37.6576C114.304 37.7434 113.762 37.7835 113.873 37.8103C113.892 37.8148 114.367 37.8486 114.427 37.882C114.495 37.9181 114.086 37.8804 114.091 37.8934C114.095 37.9024 114.767 38.0253 114.633 38.0547C114.527 38.0866 113.609 37.95 113.408 37.9519C113.375 37.9522 113.432 38.0087 113.403 38.008C113.271 38.0023 111.172 37.8201 111.064 37.8032C111.178 37.7895 111.291 37.7758 111.404 37.7621C111.257 37.747 111.108 37.7319 110.96 37.7168C111.173 37.7163 111.385 37.7158 111.597 37.7153C111.302 37.4965 110.339 37.6102 110.298 37.7031C110.278 37.746 110.835 37.9078 110.302 37.9294C110.381 37.9475 110.46 37.9657 110.539 37.9838C110.704 37.979 110.879 37.9752 111.048 37.9709C110.937 37.9495 110.825 37.9281 110.714 37.9068C110.756 37.897 110.799 37.8873 110.842 37.8775C111.159 37.8832 111.475 37.8889 111.79 37.8947C111.949 37.9185 111.913 37.9549 112.022 37.9721C113.383 38.188 112.488 37.9865 113.399 38.0851C113.527 38.1178 113.655 38.1505 113.782 38.1832C113.744 38.092 114.141 38.1828 114.623 38.1889C114.563 38.2118 114.503 38.2348 114.443 38.2578C115.126 38.3044 116.554 38.5814 116.18 38.3895C116.339 38.4178 116.498 38.4461 116.655 38.4744C116.792 38.4617 116.928 38.4489 117.064 38.4361C117.248 38.4565 117.431 38.477 117.623 38.4983C117.622 38.5121 117.622 38.526 117.622 38.5398C117.47 38.5254 117.319 38.511 117.174 38.4973C117.28 38.5497 117.385 38.6021 117.496 38.6551C117.609 38.6589 117.721 38.6626 117.833 38.6663C117.369 38.5818 117.992 38.5761 118.145 38.535C118.538 38.5523 118.776 38.6482 118.905 38.6641C118.967 38.6716 119.687 38.6144 119.396 38.7265C119.773 38.7466 120.154 38.7673 120.525 38.7874C120.669 38.8126 120.812 38.8378 120.954 38.8629C120.637 38.8965 121.529 39.0655 120.863 39.0255C120.364 38.9957 120.244 38.9225 120.004 38.899C119.786 38.8777 119.667 38.9071 119.427 38.8854C117.876 38.7442 116.59 38.6142 115.084 38.4572C114.794 38.4268 114.526 38.4226 114.329 38.4018C114.106 38.3783 114.39 38.3524 114.104 38.3391C113.803 38.3252 113.734 38.3612 113.654 38.3549C113.605 38.3509 113.451 38.2991 113.306 38.2861C112.706 38.2324 111.856 38.195 111.768 38.1872C111.674 38.178 109.999 38.0007 109.926 37.9888C109.884 37.9819 109.983 37.85 109.604 37.9678C109.489 37.9609 109.374 37.9542 109.259 37.9474C109.28 37.9211 109.3 37.8948 109.321 37.8686C108.63 37.9176 108.869 37.8778 108.208 37.8323C106.65 37.7251 104.322 37.5224 102.605 37.4102C102.223 37.3851 102.074 37.408 101.619 37.3786C101.194 37.3506 100.1 37.1766 100.33 37.3307C99.4025 37.1485 99.2364 37.3448 98.7734 37.1859C98.7151 37.2009 98.6568 37.2159 98.5985 37.2309C98.089 37.1178 97.9321 37.1786 97.3744 37.1537C97.1343 37.1432 97.4163 37.0749 96.9259 37.1402C96.8337 37.1275 96.7415 37.1148 96.6492 37.1021C96.672 37.0828 96.6948 37.0634 96.7176 37.0441C96.1775 37.0285 96.1429 37.0159 96.2 37.0967C95.9407 37.0672 95.6784 37.0377 95.4212 37.0087C95.3875 37.0322 95.3539 37.0557 95.3202 37.0792C95.4483 37.1271 101.338 37.4279 102.172 37.4726C103.122 37.5966 105.078 37.6702 105.842 37.7437C106.156 37.7735 106.291 37.8415 106.744 37.8842C107.198 37.9268 107.769 37.9202 108.007 37.9377C108.822 37.9944 112.607 38.3286 110.023 38.1808C110.095 38.2149 110.166 38.249 110.237 38.2831C111.266 38.2747 110.9 38.3024 111.752 38.386C112.112 38.4213 112.961 38.4335 112.902 38.5561C112.244 38.5214 111.539 38.4193 110.954 38.371C110.892 38.3659 110.206 38.3656 109.856 38.3206C109.54 38.2797 109.77 38.1771 109.064 38.2551C108.559 38.08 108.243 38.1754 108.11 38.1775C107.876 38.1808 107.855 38.1134 107.623 38.087C107.369 38.0581 107.189 38.0876 107.154 38.0851C106.803 38.0574 104.97 37.9217 104.891 37.8899C104.965 37.8839 105.04 37.8778 105.114 37.8718C104.642 37.8172 104.735 37.8916 104.61 37.8902C104.517 37.883 104.424 37.8758 104.331 37.8686C104.369 37.8575 104.407 37.8464 104.445 37.8352C103.882 37.7963 104.31 37.8764 103.509 37.8161C103.001 37.778 102.489 37.6882 102.438 37.6885C102.424 37.6886 102.58 37.7357 102.374 37.7258C102.033 37.7093 101.441 37.667 101.378 37.6139C101.21 37.6091 101.221 37.6577 101.198 37.6572C101.095 37.6541 99.4344 37.5583 99.1316 37.5421C98.2965 37.4953 97.3807 37.4275 96.4794 37.3815C96.3867 37.3767 96.4476 37.3497 96.3548 37.3451C96.206 37.3376 95.4365 37.3406 95.3243 37.3377C95.0403 37.3294 94.2932 37.2684 94.1744 37.2759C94.1575 37.2769 94.4017 37.3318 94.1129 37.3287C93.792 37.3253 93.9674 37.2792 93.95 37.2777C93.2993 37.223 92.8846 37.24 92.4411 37.2246C92.2972 37.2195 92.0337 37.1642 91.8298 37.1663C91.8064 37.1666 91.8508 37.2075 91.8277 37.2083C91.5196 37.2131 91.2356 37.1274 91.1027 37.1163C90.7777 37.0892 90.9524 37.1507 90.9354 37.1502C90.7186 37.1415 90.4266 37.1084 90.0977 37.0958C88.629 37.0396 87.4279 36.9927 85.8657 36.9329C85.6695 36.9255 85.438 36.8801 85.408 36.879C85.3153 36.8761 85.3402 36.9208 85.0722 36.9108C84.5057 36.8895 83.9807 36.8752 83.4207 36.858C83.308 36.8546 83.2611 36.8125 83.1752 36.8092C82.8875 36.7981 81.9007 36.8792 81.8873 36.7465C81.3108 36.8498 80.9329 36.7404 80.4726 36.7321C79.382 36.7115 77.6721 36.7111 76.5807 36.689C76.3507 36.684 76.2432 36.6495 76.1155 36.6469C75.9186 36.6424 74.9314 36.6527 74.6126 36.6538C74.5592 36.6539 74.5242 36.6536 74.5144 36.6529C74.3803 36.6427 74.4606 36.4927 73.7708 36.6241C73.3662 36.6342 73.4138 36.5728 73.3302 36.5697C72.6779 36.5468 72.0441 36.6874 72.162 36.5612C71.4028 36.5993 70.9112 36.6727 70.6002 36.5579C70.6047 36.6152 70.2479 36.6525 69.8172 36.635C70.257 36.5346 70.2019 36.4728 71.2685 36.4824C71.2853 36.4826 71.2535 36.5243 71.2703 36.5244C71.4226 36.5261 71.7399 36.5031 71.9994 36.5039C72.2589 36.5048 72.115 36.5339 72.2188 36.5328C72.3139 36.5318 72.3106 36.4921 72.4482 36.4909C72.8946 36.4873 73.2896 36.4752 73.5435 36.4739C73.7035 36.4731 73.8826 36.5077 74.0067 36.5075C74.1627 36.5072 74.3755 36.5041 74.6126 36.5003C75.1023 36.4923 75.6991 36.4827 76.1123 36.4877C76.2399 36.4893 76.186 36.528 76.4653 36.5331C76.498 36.5337 76.6172 36.4937 76.8624 36.4873C77.108 36.4809 77.2971 36.503 77.4529 36.5004C77.5835 36.4983 77.5292 36.4614 77.7971 36.4622C78.0184 36.4602 80.5602 36.5285 80.6946 36.5396C80.8923 36.5521 80.9853 36.605 81.1063 36.6015C81.1276 36.6006 81.1647 36.5523 81.2386 36.5505C82.4599 36.5175 85.1451 36.6651 86.5328 36.7192C89.4359 36.8278 92.1085 36.9279 95.0357 37.0829C95.0882 37.0774 95.1407 37.0718 95.1932 37.0663C94.8984 37.049 94.6032 37.032 94.3077 37.0153C94.3071 36.9921 94.3065 36.9689 94.3059 36.9457C93.9063 36.9199 93.9562 36.9775 93.9657 37.0111C93.8184 36.989 93.6711 36.9669 93.5236 36.945C93.3905 37.0183 92.4082 36.9127 91.8999 36.8875C91.5692 36.8708 91.1738 36.8823 90.9993 36.8715C90.6306 36.8488 90.6425 36.7997 90.6135 36.7975C90.564 36.794 90.0477 36.8136 89.6768 36.7952C89.1283 36.7683 89.0722 36.6891 88.3178 36.7221C87.3562 36.6421 86.2876 36.621 85.2499 36.5922C85.4503 36.5283 84.5164 36.5635 84.0965 36.5498C81.5373 36.4621 78.3882 36.3703 75.788 36.3327C75.4544 36.3278 75.2031 36.2857 75.0178 36.2867C74.9173 36.2873 74.8734 36.3362 74.7341 36.3297C74.7173 36.3288 74.704 36.3068 74.6126 36.2909C74.5712 36.2837 74.5137 36.2778 74.4327 36.2757C73.7848 36.2578 72.1708 36.3403 71.7617 36.2556C69.5453 36.2826 67.3294 36.3248 65.1155 36.3804C65.0596 36.3627 65.0036 36.3451 64.9477 36.3274C64.5318 36.4305 62.8614 36.4098 62.0526 36.4348C60.6314 36.4772 58.8005 36.5596 57.5574 36.6032C57.2845 36.6127 57.0603 36.5929 56.8026 36.602C56.6917 36.606 56.555 36.6458 56.4397 36.6499C55.148 36.696 53.3951 36.7253 52.0936 36.7795C49.1357 36.9022 46.3537 37.0284 43.3579 37.1896C33.2826 37.7346 23.2578 38.5243 13.2888 39.4159C13.1569 39.4277 13.1599 39.3868 13.0582 39.3959C12.4599 39.4487 11.0858 39.6109 10.3936 39.6756C9.81766 39.7292 8.99203 39.7474 8.78468 39.8303C10.738 39.7337 12.7941 39.5337 14.8525 39.3755C14.9937 39.3647 15.0149 39.4014 15.0324 39.4006C15.3572 39.3849 15.1464 39.3505 15.6202 39.306C15.7709 39.2914 17.2907 39.2816 17.0902 39.1766C17.425 39.1956 19.9447 39.006 20.4098 38.9523C20.5555 38.9353 20.4491 38.9078 20.4779 38.9036C20.6034 38.8852 20.6646 38.9302 20.7779 38.9222C21.0793 38.9004 21.8539 38.7967 21.9884 38.7862C22.3145 38.7602 23.3152 38.721 23.7635 38.6763C24.1719 38.6355 24.0962 38.5891 24.4378 38.5577C24.7089 38.533 24.4153 38.5997 25.0248 38.5659C25.3253 38.549 26.3938 38.4363 26.6591 38.4166C26.9252 38.3966 27.2022 38.4072 27.558 38.3785C28.064 38.3375 29.1944 38.238 29.7184 38.1908C29.7491 38.1881 29.8213 38.1423 29.8974 38.1377C30.0551 38.1282 30.0113 38.1816 30.1309 38.1782C30.2419 38.1748 32.3456 38.0227 32.6952 38.0005C32.9368 37.9845 33.1023 37.9435 33.2365 37.9348C33.3418 37.928 33.3559 37.9689 33.4635 37.9622C33.4968 37.96 33.7781 37.905 34.0634 37.8871C34.3301 37.8702 35.3685 37.8376 35.4818 37.8308C35.558 37.8261 35.4725 37.8018 35.6979 37.7882C35.9035 37.7758 36.0414 37.8057 36.159 37.7988C36.4319 37.7829 36.736 37.731 37.0276 37.7128C37.8671 37.6605 37.8289 37.711 37.8791 37.7094C38.0198 37.7052 38.0736 37.6582 38.1197 37.6545C38.3186 37.6388 38.7821 37.6029 38.9542 37.591C39.167 37.5763 39.2598 37.6124 39.4868 37.5992C39.6561 37.5893 39.9959 37.5289 40.3845 37.5046C41.2676 37.4491 42.2932 37.3845 43.1528 37.3399C43.4089 37.3266 43.4504 37.3624 43.5288 37.3592C43.9413 37.3425 44.1711 37.2881 44.2892 37.2825C45.1264 37.2423 46.6132 37.2348 47.3976 37.2034C47.722 37.1899 49.0889 37.0954 49.875 37.0667C49.9646 37.0633 49.882 37.0967 49.9815 37.0877C50.2195 37.0661 50.1948 37.0066 50.316 37.0032C50.3744 37.0017 50.5092 37.03 50.6799 37.0261C51.5627 37.0059 52.1595 36.9553 52.562 36.9409C56.4161 36.8038 60.3528 36.6988 63.9511 36.6286C64.3543 36.6207 64.8496 36.5746 65.4562 36.5984C65.4752 36.6169 65.4941 36.6353 65.5132 36.6538C65.534 36.6349 65.5549 36.6161 65.5757 36.5972C66.2619 36.5749 66.5212 36.5468 67.2234 36.5596C67.2839 36.5606 67.4697 36.6437 67.5825 36.5355C68.2786 36.603 67.8959 36.5304 68.4113 36.5164C68.9266 36.5027 69.4279 36.5209 69.9281 36.5213C70.2025 36.5566 69.0534 36.6566 68.9787 36.6575C68.858 36.6585 68.7319 36.6071 68.6157 36.6057C68.2714 36.6015 67.9392 36.6481 67.8614 36.6019C67.4169 36.6581 67.9709 36.6254 67.9157 36.6712C67.6186 36.6567 67.3205 36.6424 67.023 36.6283C66.8737 36.7832 65.2294 36.6119 65.3457 36.7269C65.2149 36.706 65.084 36.6851 64.9532 36.6643C64.3852 36.8218 64.0447 36.7255 63.2795 36.6989C63.3351 36.7164 63.3906 36.7339 63.4462 36.7514C63.4306 36.7594 62.7571 36.8046 62.9964 36.7195C62.3079 36.8405 62.3329 36.6651 61.7176 36.8068C61.3508 36.8323 61.5703 36.7531 60.9125 36.7716C60.5209 36.7826 60.0366 36.8343 59.6005 36.8496C59.5001 36.853 59.4551 36.8118 59.3658 36.8144C59.2764 36.817 59.2341 36.8599 59.1259 36.8641C58.9025 36.873 58.6123 36.8525 58.4729 36.8596C58.3481 36.8658 58.1706 36.908 57.8701 36.9233C56.8164 36.9774 57.1321 36.9151 56.965 36.9027C56.7851 36.8898 56.6585 36.9631 56.3014 36.9673C56.2656 36.9677 56.3567 36.9214 56.2404 36.9271C56.1466 36.9317 56.101 36.98 55.7909 36.9996C55.6667 37.0068 53.7536 37.0869 53.4569 37.1C53.0072 37.1184 52.0082 37.1188 51.547 37.1385C51.3689 37.1459 51.1812 37.1914 50.9917 37.1992C50.3582 37.2251 49.3485 37.2663 48.5544 37.3012C47.8456 37.3318 46.5669 37.3104 46.1801 37.4048C45.1731 37.4645 44.9288 37.4135 44.8529 37.4164C44.6489 37.4245 44.5569 37.4717 44.2952 37.4873C40.9443 37.6845 36.5217 37.9217 33.3437 38.139C25.9692 38.6397 18.6042 39.2545 11.207 39.9357C11.1894 39.9562 11.1719 39.9768 11.1543 39.9973C12.0106 39.9284 13.0592 39.8639 13.9103 39.794C15.0821 39.6969 16.7811 39.4686 17.6149 39.526C17.278 39.5663 16.7279 39.5648 16.7367 39.6304C17.3511 39.5815 17.9416 39.5353 18.5636 39.4871C18.5425 39.4582 18.5215 39.4294 18.5005 39.4005C19.1568 39.3357 19.7882 39.2894 20.4299 39.2319C20.5412 39.222 20.46 39.2009 20.5571 39.1927C20.6658 39.1837 20.5944 39.2178 20.6148 39.2164C20.89 39.194 20.9718 39.1587 21.0056 39.1563C21.0925 39.1503 21.0269 39.1829 21.2786 39.1699C21.7541 39.1453 22.0581 39.0485 21.9648 39.1766C22.1105 39.1648 22.2567 39.153 22.4035 39.1412C22.4389 39.1056 22.4743 39.0699 22.5098 39.0342C23.4246 39.0935 23.8458 38.8282 24.3607 38.9724C24.5217 38.9317 24.6834 38.891 24.8457 38.8503C24.9409 38.8757 25.0363 38.9012 25.1319 38.9266C25.1479 38.8972 25.1639 38.8678 25.1799 38.8384C26.0715 38.7906 27.0419 38.6839 27.8835 38.6252C28.4785 38.5838 28.6232 38.5844 29.1568 38.5438C30.341 38.4543 29.1755 38.5933 30.1484 38.5844C30.0956 38.5537 30.0429 38.5229 29.9902 38.4921C30.1492 38.4682 30.3086 38.4443 30.4685 38.4204C30.5824 38.4405 30.6965 38.4607 30.8109 38.4808C31.2992 38.3007 31.634 38.3956 31.7024 38.3909C31.7569 38.3869 31.9444 38.286 32.5431 38.3198C32.2929 38.2166 32.9885 38.289 33.0445 38.286C33.0966 38.2829 33.7692 38.2113 34.0455 38.1943C34.2621 38.1809 34.7278 38.1763 35.0537 38.1541C35.3414 38.1344 35.3099 38.0957 35.3308 38.0939C35.6782 38.0683 35.4622 38.1138 35.7132 38.0993C35.964 38.0849 36.1573 38.038 36.2119 38.0377C36.2393 38.0376 36.1502 38.0812 36.2757 38.0769C36.6125 38.0657 37.2219 37.9946 37.6118 37.9718C37.7499 37.9637 37.9262 37.9851 38.0805 37.9768C38.3177 37.9638 38.4247 37.9146 38.559 37.9078C38.606 37.9056 38.9091 37.9535 39.2825 37.9213C39.3535 37.9151 39.5544 37.7634 39.8447 37.9447C39.8646 37.9156 39.8845 37.8866 39.9044 37.8575C41.1622 37.7157 41.5343 37.922 42.0762 37.691C42.9884 37.6633 42.3672 37.7757 42.4678 37.7822C42.5328 37.7862 42.8294 37.7485 42.8623 37.748C42.9204 37.7473 42.9118 37.7728 42.9754 37.7693C44.1432 37.702 43.6226 37.6826 43.992 37.633C44.8762 37.5152 45.5636 37.6387 44.0301 37.6706C44.0308 37.6846 44.0316 37.6985 44.0323 37.7125C44.4145 37.6789 45.3618 37.6368 45.0488 37.7239C44.8115 37.7912 42.5234 37.8759 43.8183 37.8859C44.111 37.8882 44.2644 37.8275 44.7722 37.8999C45.1037 37.8883 45.1448 37.7584 45.5975 37.7868C45.5212 37.7461 45.445 37.7053 45.3687 37.6646C45.9791 37.5756 46.7444 37.6159 47.2192 37.5683C47.3804 37.5519 47.9539 37.3124 47.8275 37.5308C48.0943 37.5046 49.3661 37.4855 49.6031 37.4563C49.6602 37.4492 49.7282 37.3327 50.5574 37.3363C50.6155 37.348 50.6737 37.3596 50.7319 37.3713C49.9761 37.4449 51.3159 37.4294 50.9571 37.5521C50.8312 37.5091 50.2297 37.5056 50.1323 37.4857C49.9659 37.4513 50.4538 37.376 49.8298 37.4181C49.444 37.6144 50.5662 37.4826 50.4017 37.6602C51.2217 37.5453 51.3023 37.6182 51.4875 37.6135C52.2762 37.5936 52.7735 37.5556 53.5231 37.5465C53.7037 37.5043 52.3477 37.507 52.182 37.5292C52.7925 37.3806 51.7324 37.4177 51.2906 37.5101C51.2517 37.4743 51.2127 37.4384 51.1738 37.4026C51.7542 37.3985 52.3219 37.3857 52.8986 37.3322C52.9368 37.3447 52.9749 37.3572 53.0131 37.3697C52.8843 37.3958 52.7556 37.422 52.6269 37.4483C53.1086 37.4637 52.8159 37.3659 53.4607 37.4365C53.4789 37.3936 53.4972 37.3507 53.5154 37.3078C54.1331 37.298 54.7449 37.2893 55.3573 37.2814C55.6725 37.1853 56.8557 37.1765 56.643 37.2933C57.1208 37.2851 56.5292 37.2465 56.976 37.205C57.1705 37.187 57.5518 37.1714 57.6471 37.1978C57.6097 37.3032 57.0395 37.3347 56.8697 37.412C56.9789 37.43 59.6136 37.2744 59.383 37.4042C59.5945 37.4127 59.4955 37.3527 59.8761 37.3258C60.9467 37.2502 62.595 37.3334 63.4531 37.1593C62.4413 37.0952 62.1455 37.1945 61.3741 37.2177C60.8805 37.2306 57.8683 37.3341 58.5383 37.2044C58.4283 37.2218 58.3184 37.2392 58.2086 37.2566C58.0961 37.2273 57.9837 37.198 57.8712 37.1687C58.185 37.1541 58.4991 37.1397 58.8136 37.1255C58.8897 37.1559 58.9659 37.1864 59.042 37.2169C59.076 37.1925 59.1099 37.1681 59.1439 37.1437C59.2764 37.1352 59.4089 37.1267 59.5415 37.1182C59.505 37.1474 59.4685 37.1765 59.4321 37.2056C59.6367 37.2045 59.8414 37.2035 60.0463 37.2025C59.9901 37.1666 59.934 37.1306 59.8778 37.0947C60.842 37.0584 60.5164 37.091 61.0535 37.1469C61.4513 37.1437 60.7775 37.0889 61.6187 37.0491C62.5979 37.0036 61.9572 37.1333 63.2274 37.0795C63.2453 37.0604 63.2632 37.0413 63.2811 37.0222C63.5611 37.0346 63.8413 37.0473 64.1217 37.0602C64.0842 37.0377 64.0467 37.0152 64.0092 36.9927C64.5882 36.9894 65.3788 36.9301 65.5721 37.018C64.9872 36.9848 64.9961 37.1443 65.1484 37.1707C65.4619 37.22 70.0959 37.0975 70.9947 37.0926C72.1436 37.0789 73.0119 37.1264 74.0607 37.0465C73.3498 36.9811 70.8493 37.0478 70.3746 37.0091C70.3277 37.0052 70.3395 36.8588 70.0392 37.0261C69.066 37.0075 67.9068 37.0682 66.6902 37.0831C66.7266 37.0404 66.7631 36.9978 66.7995 36.9551C67.5483 37.0326 68.2367 36.8272 68.1416 36.9919C68.2901 36.9899 68.4385 36.988 68.5871 36.9862C68.5867 36.958 68.5864 36.9299 68.586 36.9017C68.8099 36.8989 69.0339 36.8963 69.258 36.8938C69.2583 36.922 69.2586 36.9501 69.2589 36.9783C69.4444 36.9762 69.6299 36.9742 69.8155 36.9724C69.8345 36.9441 69.8536 36.9159 69.8726 36.8876C70.4289 36.9394 72.3227 36.7712 71.4908 36.9443C71.7518 36.9426 72.0128 36.941 72.2738 36.9397C72.2728 36.9192 72.2719 36.8986 72.2709 36.878C72.3831 36.8747 72.4953 36.8714 72.6075 36.8681C72.5706 36.8869 72.5338 36.9057 72.4969 36.9245C73.0109 36.8888 73.4986 36.9856 73.8359 36.9206C73.6133 36.9069 73.3906 36.8934 73.1679 36.88C73.595 36.9052 74.3815 36.849 74.4519 36.8489C74.5118 36.8488 74.5638 36.852 74.6126 36.8567C74.7382 36.8688 74.8432 36.8909 75.0102 36.8927C75.2193 36.8948 75.1907 36.8628 75.2297 36.864C76.3603 36.9004 75.9286 37.0724 76.4594 36.8705C76.5156 36.8989 76.5719 36.9273 76.6282 36.9557C76.7035 36.9329 76.7789 36.9101 76.8544 36.8874C77.192 36.8924 77.523 36.8979 77.8571 36.9041C77.7462 36.8678 77.6353 36.8315 77.5245 36.7954C78.0245 36.7851 78.2577 36.8587 78.3062 36.8609C78.4434 36.8668 78.507 36.8237 78.5495 36.8242C80.5964 36.8603 79.3545 36.8791 80.3701 37.0633C80.7346 37.0058 80.3684 36.9332 80.3181 36.8662C80.8007 36.9069 80.952 36.8919 81.4632 36.9073C81.5962 36.9114 81.7385 36.9505 81.8225 36.953C81.8953 36.9552 82.1238 36.923 82.2987 36.9274C82.59 36.9346 82.9747 36.9676 83.3726 36.9785C83.7028 36.9872 84.7184 36.9916 85.4243 37.0161C85.7256 37.0266 85.6545 37.0558 85.7323 37.0586C85.7647 37.0598 86.0009 37.0302 86.1942 37.0372C87.7715 37.094 89.3857 37.1871 90.9701 37.2628C92.0869 37.3163 93.2199 37.3448 94.3392 37.4102C94.5769 37.4242 94.4494 37.4449 94.5532 37.4517C94.5888 37.454 94.6346 37.4078 95.0005 37.4482C95.1326 37.4628 94.9782 37.488 95.1085 37.4972C95.1718 37.5016 95.2013 37.4605 95.5722 37.4723C96.2509 37.4941 96.6107 37.5731 96.671 37.575C96.785 37.5786 96.7539 37.5414 96.9046 37.5493C97.6418 37.588 98.2516 37.6206 98.9136 37.6605C99.2242 37.6781 101.331 37.8132 101.452 37.829C101.712 37.8612 101.464 37.9177 101.798 37.9386C101.893 37.9266 101.988 37.9146 102.082 37.9026C101.935 37.878 101.788 37.8534 101.64 37.8289C102.048 37.8811 102.512 37.8806 102.812 37.9036C102.869 37.9078 103.375 37.978 103.641 37.994C103.528 37.9995 103.415 38.0051 103.302 38.0107C103.34 38.0254 103.379 38.0401 103.418 38.0547C103.948 38.0755 104.503 38.1174 105.038 38.1606C105.231 38.1761 105.164 38.1997 105.359 38.2156C106.495 38.3092 106.227 38.1688 107.305 38.4787C106.941 38.4288 105.569 38.3504 105.381 38.329C105.246 38.3133 104.73 38.0846 104.91 38.2928C103.814 38.2096 104.776 38.1742 103.746 38.1212C103.765 38.1463 103.784 38.1714 103.802 38.1966C103.441 38.1849 103.175 38.1775 102.963 38.1203C102.883 38.2295 101.677 38.0757 101.004 38.0376C100.041 37.9823 98.9527 37.9384 97.9944 37.883C97.6668 37.864 97.4836 37.8076 97.4424 37.8052C97.3822 37.8018 97.2106 37.8307 97.0903 37.8236C96.6421 37.7967 95.2723 37.6491 94.929 37.7398C97.6082 37.8923 100.275 38.0663 102.95 38.2599C102.612 38.1802 105.331 38.3761 105.459 38.3903C105.585 38.4023 105.476 38.4319 105.513 38.437C105.788 38.4744 106.037 38.4388 106.127 38.4458C106.195 38.4511 106.331 38.4875 106.574 38.506C106.619 38.5094 106.633 38.4833 106.681 38.487C106.997 38.5119 107.308 38.537 107.622 38.5621C107.641 38.5639 107.718 38.6099 107.797 38.6163C107.876 38.6227 107.958 38.5895 107.978 38.591C108.224 38.6112 108.666 38.6732 108.906 38.6933C108.99 38.7002 108.935 38.6665 109.028 38.6745C109.317 38.6991 109.217 38.7479 109.573 38.7629C109.693 38.7679 109.689 38.7239 109.915 38.7486C110.075 38.7662 110.051 38.8421 110.077 38.847C110.112 38.8534 110.666 38.8388 110.85 38.9056C110.436 39.0047 111.29 38.9503 111.253 38.8905C111.474 38.9238 111.694 38.9572 111.913 38.9906C111.989 38.9829 112.066 38.9752 112.142 38.9675C113.01 39.1085 113.582 39.1207 114.447 39.2194C114.491 39.2243 115.213 39.3225 115.181 39.3399C114.74 39.334 114.305 39.2959 114.027 39.2065C113.551 39.2861 113.55 39.1881 112.791 39.1369C112.543 39.1204 112.522 39.1519 112.493 39.1498C111.523 39.0803 109.943 38.9601 109.297 38.8097C109.11 38.8204 109.774 38.8861 109.514 38.8838C109.37 38.8801 105.979 38.6389 107.07 38.6145C106.958 38.6087 106.845 38.6029 106.732 38.597C106.611 38.6932 106.051 38.6252 106.122 38.5255C106.067 38.5428 106.012 38.5601 105.957 38.5773C105.85 38.5872 105.724 38.5873 105.552 38.5798C104.894 38.5475 100.933 38.2253 100.715 38.2289C100.709 38.2534 100.702 38.278 100.696 38.3025C102.452 38.4508 104.152 38.5126 106.048 38.7313C105.994 38.7037 105.94 38.6761 105.886 38.6484C106.651 38.7405 107.409 38.8336 108.158 38.9273C107.364 38.9049 106.063 38.8377 105.228 38.7394C105.079 38.7218 105.191 38.6977 105.157 38.6911C105.068 38.6741 104.968 38.7231 104.644 38.7041C104.32 38.6851 103.505 38.5846 103.429 38.5803C103.281 38.5718 102.894 38.6085 102.649 38.5901C102.329 38.566 102.547 38.5415 102.482 38.5361C102.216 38.5131 101.975 38.5159 101.766 38.4982C101.456 38.4719 100.808 38.3567 100.586 38.4452C100.805 38.4649 101.031 38.4852 101.253 38.5053C100.043 38.4587 99.1165 38.265 97.9185 38.2914C97.6422 38.3993 98.6193 38.4441 97.7907 38.4453C97.9411 38.4529 98.0895 38.4605 98.2415 38.4684C98.2786 38.4445 98.3157 38.4206 98.3529 38.3967C98.6123 38.432 98.8712 38.4675 99.1296 38.5032C99.057 38.475 98.9844 38.4469 98.9118 38.4188C99.8364 38.461 100.753 38.4998 101.073 38.6477C101.094 38.6187 101.115 38.5898 101.136 38.5608C101.993 38.6566 103.274 38.6206 103.024 38.7718C103.064 38.7658 103.105 38.7598 103.146 38.7538C103.66 38.8259 103.445 38.7403 103.64 38.7467C103.697 38.7484 104.699 38.8593 104.25 38.8761C105.225 38.9877 104.934 38.8078 105.203 38.8212C105.811 38.9457 106.964 38.9189 106.476 39.0045C106.569 39.0164 106.662 39.0284 106.755 39.0404C107.07 38.9677 107.362 39.1014 107.688 39.1645C107.8 39.1757 107.911 39.1869 108.022 39.1981C108.099 39.1715 108.176 39.145 108.255 39.1186C109.309 39.3611 109.006 38.9092 109.46 39.3058C109.383 39.3209 109.306 39.336 109.229 39.351C109.049 39.3463 108.869 39.3417 108.689 39.3371C109.416 39.4062 110.118 39.4747 110.843 39.5462C111.76 39.7256 112.267 39.6607 113.285 39.8311C113.382 39.8302 113.478 39.8293 113.574 39.8284C113.47 39.9004 113.101 39.8552 113.787 39.9534C113.84 40.0158 113.375 39.9813 113.165 39.9184C113.114 39.9032 113.556 39.8986 113.064 39.8531C112.733 39.8226 113.318 39.9434 112.341 39.8314C112.376 39.8486 112.411 39.8657 112.446 39.8829C112.34 39.8731 112.233 39.8633 112.127 39.8535C112.034 39.8129 111.942 39.7723 111.849 39.7317C111.6 39.757 111.457 39.8102 110.892 39.7477C111.048 39.7407 110.845 39.658 110.563 39.6351C110.561 39.6584 110.559 39.6818 110.557 39.7051C109.888 39.6634 110.126 39.6145 109.564 39.6213C109.51 39.598 109.456 39.5748 109.401 39.5516C109.092 39.6026 107.955 39.562 108.171 39.4642C107.85 39.5502 107.197 39.4473 106.958 39.3386C106.937 39.3603 106.916 39.382 106.896 39.4037C106.764 39.398 106.633 39.3924 106.501 39.3868C106.429 39.367 106.357 39.3472 106.284 39.3274C106.19 39.3341 106.096 39.3409 106.001 39.3477C105.946 39.32 105.892 39.2923 105.837 39.2647C105.683 39.2808 105.535 39.2975 105.384 39.314C105.295 39.2885 105.206 39.263 105.117 39.2375C105.104 39.2852 104.201 39.2279 103.949 39.1773C103.873 39.1858 103.796 39.1944 103.719 39.2029C103.684 39.177 103.649 39.1512 103.614 39.1253C103.556 39.1397 103.498 39.1541 103.44 39.1684C103.312 39.1404 103.183 39.1124 103.057 39.0846C102.525 39.1601 102.515 39.0595 102.395 39.0517C102.173 39.037 101.409 39.0546 101.281 39.0422C101.154 39.0297 101.096 38.9847 100.993 38.9738C99.3125 38.7949 99.9987 38.952 99.6594 38.9464C99.4765 38.9438 99.3498 38.8972 99.188 38.8909C98.9108 38.8792 97.5123 38.8408 97.4345 38.8315C97.3185 38.8172 97.6039 38.655 97.2224 38.6777C97.2041 38.7731 96.3988 38.6266 96.7699 38.7838C96.4365 38.7517 96.1025 38.7199 95.7678 38.6884C95.7988 38.8047 95.3906 38.707 94.943 38.6879C94.3087 38.6599 92.8699 38.6579 92.9282 38.5439C92.7747 38.5628 92.6214 38.5818 92.4679 38.6008C91.4297 38.5101 90.4016 38.4991 89.3688 38.4544C86.2971 38.3209 82.9672 38.1844 79.911 38.1052C79.7645 38.1013 79.7864 38.0634 79.6802 38.0607C79.1202 38.0456 77.6787 38.0523 76.8998 38.0382C76.6493 38.0334 76.5279 37.9952 76.4486 37.993C76.1795 37.9851 76.2428 38.0348 76.119 38.0326C75.9351 38.0291 75.0147 37.9852 74.6126 37.9769C74.5866 37.9763 74.5628 37.9759 74.5413 37.9756C74.3653 37.9732 74.157 38.0125 73.9508 38.0007C73.9331 37.9998 73.9658 37.9594 73.9508 37.9587C73.575 37.9544 73.8011 37.9889 73.6739 37.9873C72.7673 37.976 71.7982 37.9799 70.814 37.9795C70.5696 37.9793 70.1954 37.9543 69.9856 37.9536C69.9056 37.9535 70.0494 37.9826 69.7729 37.9829C69.6781 37.9829 69.6454 37.9435 69.5384 37.9421C69.0776 37.9362 68.9251 38.0658 68.5281 37.9679C67.7658 37.9839 66.4329 38.0373 65.7368 38.0508C65.5719 38.0539 65.4912 38.0319 65.3342 38.0352C65.2228 38.0376 65.0274 38.0777 64.8537 38.0815C64.6799 38.0853 64.4055 38.0561 64.0697 38.0644C63.7167 38.073 63.2786 38.1034 63.1992 38.1051C63.1032 38.1072 63.0575 38.0645 62.9615 38.0672C62.6713 38.0752 61.8964 38.1369 61.5239 38.1512C61.1238 38.1663 60.8818 38.1516 60.7441 38.1557C60.6167 38.1597 60.4691 38.2006 60.411 38.2026C60.3205 38.2056 60.298 38.1631 60.1831 38.1666C59.9955 38.1725 59.8028 38.2051 59.5218 38.2139C54.4624 38.3739 49.5038 38.5572 44.5881 38.7802C44.0351 38.8054 43.7244 38.8519 42.916 38.8817C42.5886 38.8938 42.7239 38.8419 42.4702 38.8642C42.3572 38.8742 42.3878 38.9076 42.2448 38.9171C41.6181 38.9589 40.8674 38.9689 40.5917 38.9853C40.4821 38.9918 40.3591 39.0387 40.135 39.0522C38.4778 39.1525 36.4947 39.2628 34.7013 39.3867C33.7417 39.4526 32.3266 39.5678 31.222 39.6474C28.2079 39.8639 24.9929 40.0977 22.2308 40.3249C18.0903 40.6649 13.9886 41.0634 9.82772 41.4216C11.7661 41.3302 14.4331 41.0759 16.5585 40.9005C22.7843 40.3836 29.388 39.8242 35.787 39.4195C37.9938 39.2792 40.8214 39.1096 43.2375 39.0028C43.3479 38.9978 43.5753 38.955 43.815 38.9456C43.8653 38.9436 44.5019 38.9661 44.7136 38.9558C44.5094 38.867 45.3367 38.9129 45.5926 38.8978C45.9144 38.8784 46.585 38.7953 47.3473 38.7869C48.0397 38.7793 47.8502 38.8266 47.8885 38.8272C48.1304 38.8313 48.2118 38.7659 48.3966 38.7511C49.151 38.6884 53.0627 38.5576 54.1606 38.5219C54.4446 38.5118 54.4526 38.5506 54.5161 38.5484C54.6836 38.5425 54.9207 38.4951 55.1897 38.4857C55.6745 38.4687 56.2358 38.4863 56.5038 38.4773C57.1461 38.4557 58.3582 38.3733 59.1887 38.3482C59.4225 38.3411 59.4094 38.3822 59.5153 38.379C59.9807 38.3645 61.199 38.2834 61.7743 38.2689C62.7124 38.2447 63.6821 38.2491 64.6381 38.2166C64.6989 38.2336 64.7597 38.2505 64.8205 38.2675C64.9156 38.2466 65.0106 38.2257 65.1057 38.2048C66.7201 38.1885 68.3666 38.1236 69.9728 38.1108C70.1579 38.109 71.0751 38.136 71.228 38.1353C71.3551 38.1344 71.4799 38.0886 71.6684 38.094C71.9324 38.1016 71.6845 38.1886 72.1156 38.1617C72.2315 38.1545 72.1189 38.1184 72.3518 38.1058C72.4287 38.1011 73.9219 38.0816 74.0021 38.0846C74.1359 38.0887 74.2552 38.1671 74.2897 38.1688C74.4691 38.1775 74.4614 38.1173 74.5818 38.1118C74.592 38.1113 74.6023 38.1109 74.6126 38.1105C74.9604 38.0976 75.398 38.137 75.4539 38.1364C76.1483 38.1267 77.4591 38.0893 78.1861 38.1279C78.2871 38.1332 78.2744 38.1779 78.2922 38.1796C78.4066 38.1904 78.4786 38.1403 78.5877 38.1407C79.1752 38.1431 80.0961 38.1938 80.684 38.2152C80.7519 38.2176 80.8958 38.1961 81.017 38.2012C81.703 38.2305 81.4796 38.2651 81.5185 38.2676C81.6109 38.274 81.7747 38.2343 82.0213 38.2378C82.657 38.2461 83.8686 38.2871 84.5495 38.313C85.0591 38.3323 85.0497 38.3821 85.083 38.3841C85.1542 38.3883 85.3537 38.3552 85.6888 38.3626C86.3336 38.3767 86.2588 38.4135 86.5238 38.4216C86.5461 38.4225 86.5088 38.3827 86.803 38.3899C87.3715 38.4036 88.6465 38.4939 89.2543 38.5195C89.4881 38.5292 89.5444 38.4947 89.7838 38.5049C90.1626 38.5207 91.019 38.6016 91.0863 38.605C91.1053 38.6059 91.1498 38.5655 91.2612 38.571C91.3838 38.577 91.5032 38.6048 91.5945 38.6092C92.1147 38.6343 93.0123 38.6072 92.756 38.7456C92.9237 38.7169 93.0934 38.6884 93.2623 38.66C94.3548 38.7259 95.405 38.7708 96.49 38.8285C96.733 38.8415 96.9338 38.8825 97.1384 38.8937C97.3439 38.9047 98.2439 38.9137 98.3986 38.9229C98.6709 38.9382 100.201 39.0343 100.389 39.0509C100.756 39.0823 101.119 39.1702 101.27 39.1684C101.393 39.1671 101.283 39.124 101.516 39.1302C101.919 39.1409 102.595 39.2347 102.716 39.2428C102.768 39.2463 102.673 39.2117 103.159 39.245C103.423 39.2632 103.565 39.304 103.661 39.3109C103.691 39.313 103.65 39.2605 104.173 39.3061C104.534 39.3377 104.684 39.3872 104.722 39.3901C104.778 39.3947 104.918 39.3646 105.145 39.3833C105.667 39.4265 106.655 39.5501 107.156 39.5938C107.253 39.6023 107.224 39.5509 107.612 39.5865C107.889 39.6121 107.837 39.647 107.941 39.6569C108.102 39.6724 108.359 39.6454 108.726 39.6772C109.188 39.7146 112.607 40.0579 112.769 40.0874C112.887 40.1065 113.028 40.1196 113.086 40.1459C113.033 40.1616 112.98 40.1772 112.927 40.1928C112.409 40.0754 112.615 40.1754 112.477 40.1684C112.278 40.1582 111.523 40.0819 111.337 40.084C111.271 40.0848 111.417 40.1408 111.062 40.1326C110.682 40.1237 110.514 40.0322 110.359 40.1246C109.841 39.9633 109.318 40.0441 109.931 40.1288C110.266 40.1733 113.665 40.512 114.352 40.5838C114.896 40.6384 115.977 40.7073 116.653 40.7796C117.043 40.821 118.063 40.9248 118.011 40.976C118.371 41.018 117.995 40.9256 118.071 40.9252C118.238 40.9249 119.327 41.0701 119.557 41.0916C120.612 41.1886 121.949 41.2618 122.939 41.436C122.892 41.4461 122.844 41.4562 122.796 41.4663C122.574 41.4706 121.514 41.3221 121.38 41.381C122.95 41.5409 124.46 41.6999 126.036 41.8715C125.994 41.8047 127.95 42.0214 128.013 42.057C127.973 42.0823 127.939 42.1084 127.903 42.1342C126.863 41.9051 126.902 42.0592 126.196 41.9025C125.906 41.8697 125.988 41.9279 125.842 41.9214C124.368 41.8551 125.833 41.8189 124.7 41.7413C125.018 41.8468 124.13 41.7778 123.712 41.7431C123.613 41.7343 122.394 41.5891 122.252 41.5759C121.42 41.4962 120.043 41.3963 119.21 41.2754C118.583 41.209 118.229 41.2253 117.642 41.1805C117.195 41.1465 117.325 41.1233 117.115 41.1028C116.688 41.0611 116.535 41.1554 116.272 40.979C115.977 40.97 115.679 40.9611 115.379 40.9521C115.381 40.9287 115.383 40.9054 115.385 40.8821C115.199 40.8648 115.004 40.8468 114.826 40.8304C114.77 40.8487 114.714 40.867 114.658 40.8853C114.079 40.8002 114.326 40.7662 114.223 40.6902C114.097 40.6742 113.971 40.6581 113.844 40.6421C113.741 40.6839 113.638 40.7258 113.535 40.7676C112.961 40.7118 112.397 40.6576 111.834 40.6043C111.799 40.5778 111.765 40.5513 111.73 40.5249C111.727 40.548 111.724 40.5712 111.72 40.5944C110.754 40.5149 109.799 40.4387 108.835 40.3639C108.577 40.3799 110.114 40.5364 110.225 40.5487C110.878 40.6157 112.603 40.7291 112.592 40.8121C113.002 40.7857 114.224 40.9114 114.586 41.0197C114.02 40.9634 113.447 40.9071 112.866 40.8509C112.882 40.8804 112.899 40.9099 112.915 40.9393C112.21 40.7637 112.114 40.7615 111.369 40.8035C111.371 40.7661 111.374 40.7288 111.376 40.6914C110.85 40.7763 109.962 40.4794 109.925 40.6377C109.656 40.6019 109.386 40.5662 109.114 40.5306C108.526 40.5022 109.417 40.6972 107.127 40.4639C106.969 40.4479 107.005 40.4097 106.766 40.3936C106.697 40.389 106.297 40.4168 105.539 40.3521C105.422 40.3421 105.416 40.306 105.295 40.2922C105.016 40.26 104.45 40.2877 104.713 40.1928C103.599 40.0755 104.054 40.2041 103.704 40.2155C103.47 40.223 103.522 40.159 103.319 40.1595C103.068 40.1603 103.247 40.2412 102.262 40.1391C102.373 40.1424 102.484 40.1457 102.595 40.149C102.541 40.1265 102.486 40.104 102.432 40.0815C101.865 40.0857 101.922 40.0247 101.648 40.1099C101.241 40.0347 100.878 40.0058 100.32 39.9763C99.2299 39.9197 99.7826 40.0687 98.5433 39.8364C98.3397 39.8445 98.1333 39.8527 97.9317 39.8612C97.6039 39.7958 97.8751 39.7568 97.3817 39.7147C97.7618 39.8488 96.721 39.744 96.5377 39.8317C96.5206 39.8072 96.5034 39.7827 96.4863 39.7582C96.3755 39.7515 96.2646 39.7448 96.1537 39.7382C96.1523 39.757 96.1508 39.7757 96.1494 39.7944C96.0025 39.7716 95.8555 39.7488 95.7084 39.726C95.5962 39.7381 95.4831 39.7501 95.372 39.7624C95.1927 39.7126 95.0132 39.6629 94.8335 39.6133C94.7195 39.6041 94.6054 39.5949 94.4912 39.5858C94.5258 39.6158 94.5604 39.6458 94.595 39.6758C94.4486 39.6582 94.3022 39.6406 94.1556 39.6231C94.3242 39.6785 94.2138 39.7261 93.7558 39.6996C93.3776 39.6779 93.8093 39.605 92.993 39.6013C92.9357 39.6012 92.8322 39.6637 92.0651 39.6349C91.1444 39.6011 91.5937 39.5743 91.4298 39.5643C91.3976 39.5625 91.1147 39.5829 90.8509 39.5751C90.7012 39.5707 90.5584 39.5361 90.5386 39.5353C90.4462 39.5322 90.4174 39.5701 90.2894 39.5655C89.9651 39.5537 89.531 39.5146 89.2132 39.5025C89.0688 39.4969 88.9319 39.5142 88.8675 39.5117C88.7675 39.5076 88.6422 39.4666 88.5411 39.4624C88.1677 39.4471 87.5963 39.5419 87.4295 39.3712C87.0646 39.5073 86.32 39.2968 86.3712 39.4C85.4146 39.3234 82.8521 39.3696 82.933 39.2037C82.3867 39.3339 82.4391 39.2304 82.2107 39.2266C81.9556 39.2225 82.087 39.254 81.8845 39.2476C81.4118 39.233 80.961 39.2106 80.4922 39.2004C80.5663 39.1787 80.6404 39.157 80.7146 39.1352C80.2223 39.1176 80.3906 39.1751 79.889 39.1759C78.9625 39.1784 79.3532 39.1424 79.2175 39.079C79.2527 39.138 78.1615 39.1126 78.0513 39.104C77.9854 39.0986 78.2755 39.0259 77.6093 39.0427C77.6454 39.0664 77.6816 39.0902 77.7177 39.114C77.4166 39.0782 76.587 39.1116 76.4466 39.103C76.3821 39.0989 76.038 38.9083 75.7225 39.056C75.6846 39.0325 75.6467 39.009 75.6088 38.9855C75.2758 39.011 74.9437 39.0371 74.6126 39.0638C74.5961 39.0652 74.5795 39.0665 74.5629 39.0678C74.507 39.0258 74.451 38.9837 74.3949 38.9417C74.2836 38.9417 74.1723 38.9418 74.061 38.9419C74.1349 38.9792 74.2088 39.0165 74.2827 39.0538C73.5954 39.0372 72.7557 39.0993 72.6135 38.974C72.4663 38.998 72.3191 39.0221 72.1719 39.0462C72.0758 39.0048 71.9797 38.9634 71.8836 38.922C71.2014 38.9368 71.1904 38.9651 70.7242 39.0134C70.7421 38.9806 70.7601 38.9477 70.7781 38.9149C70.4343 38.9635 69.8065 39.0121 69.3102 39.0234C69.0743 39.0286 68.6686 38.9885 68.6131 38.9933C68.5568 38.9982 68.0061 39.1825 67.944 39.0301C67.1295 39.1094 66.7692 39.0461 66.4386 39.0532C66.2237 39.0579 66.1264 39.0964 65.8839 39.1045C65.5367 39.1161 65.1872 39.1049 64.9871 39.1113C64.8727 39.1151 64.852 39.1514 64.7731 39.154C64.3999 39.167 64.6188 39.1258 64.2238 39.1363C64.1874 39.1375 63.8997 39.1873 63.5746 39.1888C63.3928 39.1896 62.9219 39.151 62.8806 39.1521C62.6969 39.1573 62.8459 39.2521 62.2157 39.1535C62.2343 39.1718 62.253 39.19 62.2717 39.2083C61.4966 39.2747 61.3726 39.1949 61.2158 39.1931C61.1959 39.1931 61.0078 39.2303 60.8939 39.2289C60.7019 39.2265 60.6234 39.1844 60.5809 39.1836C60.4311 39.1809 59.9282 39.2142 59.5984 39.1811C59.6707 39.3045 58.5221 39.3832 58.2639 39.2492C58.0614 39.2835 57.8601 39.318 57.6569 39.3526C57.5636 39.3321 57.4704 39.3117 57.3771 39.2913C57.3216 39.3165 57.2661 39.3416 57.2107 39.3668C56.9112 39.3252 56.612 39.2838 56.3131 39.2426C56.2959 39.2947 56.2788 39.3468 56.2616 39.399C56.1782 39.396 56.0949 39.393 56.0116 39.39C55.9453 39.3514 55.879 39.3127 55.8127 39.2741C55.7092 39.2855 55.6057 39.297 55.5022 39.3085C55.4776 39.339 55.453 39.3695 55.4283 39.4001C54.8716 39.4543 55.1511 39.161 54.0947 39.4491C53.9275 39.432 53.7604 39.415 53.5935 39.3981C53.4103 39.5189 53.0566 39.4638 52.7744 39.4879C52.5756 39.5049 52.5882 39.5495 52.3172 39.5615C52.0462 39.5735 52.0542 39.53 52.0331 39.5306C51.8122 39.537 51.6475 39.5819 51.4856 39.5811C51.4612 39.581 51.398 39.5323 51.1921 39.5377C50.9853 39.5432 50.8607 39.6031 50.5508 39.6062C50.3919 39.6078 50.3442 39.5667 50.2034 39.569C49.5325 39.5797 48.8714 39.8288 48.3612 39.5927C48.2523 39.6306 47.4368 39.7842 47.0838 39.7948C46.5364 39.8108 46.7448 39.7497 46.5272 39.751C46.496 39.7512 46.3303 39.7764 45.8738 39.7962C45.7921 39.7997 45.8125 39.8275 45.8008 39.8284C45.2708 39.8543 44.2357 39.885 43.6456 39.9124C43.5931 39.9148 43.3224 40.0094 42.8533 39.9269C42.175 40.0432 40.8664 39.9451 39.9646 40.118C39.8391 40.1279 39.6851 40.1082 39.6297 40.1124C39.1511 40.1496 39.3368 40.2253 38.2456 40.1634C38.3369 40.2023 38.0828 40.2577 37.7224 40.2764C37.1811 40.3046 37.5599 40.1983 37.1266 40.2319C37.1281 40.2552 37.1295 40.2785 37.1309 40.3018C36.1275 40.3014 35.9582 40.4122 34.9443 40.4782C34.5817 40.5018 34.047 40.4851 33.9616 40.4906C33.9283 40.4929 33.5404 40.5751 33.5033 40.5781C33.2932 40.5938 33.1732 40.5758 32.9926 40.5878C32.4028 40.6269 31.6671 40.751 31.793 40.6091C31.628 40.6486 31.4636 40.6881 31.2996 40.7276C30.6627 40.6295 30.2143 40.8576 30.0749 40.7292C29.9662 40.7655 29.8583 40.8017 29.7495 40.8381C27.0482 41.0166 24.3635 41.2077 21.6929 41.4107C21.5841 41.4639 20.4047 41.5452 20.3478 41.5432C20.072 41.5347 20.351 41.4143 19.7983 41.4827C19.7407 41.5301 19.6831 41.5775 19.6258 41.6248C18.9235 41.6978 19.2542 41.6277 18.9708 41.6228C18.8529 41.638 18.8937 41.6676 18.7344 41.6835C17.8812 41.7688 16.1131 41.9247 15.1991 42.0098C15.0153 42.0268 15.0405 41.9937 14.9836 41.9987C14.8222 42.0135 14.4955 42.0819 14.1709 42.1114C12.1846 42.2908 9.35077 42.539 7.33643 42.7097C7.1957 42.7216 7.17512 42.6868 7.08149 42.6944C6.95124 42.7051 6.67175 42.7632 6.54233 42.7733C6.41948 42.783 6.34066 42.763 6.21089 42.773C5.5489 42.8254 4.75024 42.9558 4.08077 42.9443C4.05031 42.9405 3.29685 42.8726 3.29235 42.8635C3.19681 42.816 3.78865 42.661 2.79058 42.6846C3.65483 42.5173 3.41304 42.4118 2.21446 42.4796C2.77344 42.4014 3.37778 42.3196 3.96981 42.2402C3.96899 42.2249 3.96817 42.2095 3.96735 42.1941C3.42282 42.1754 2.86824 42.2092 2.07574 42.2899C2.10142 42.2727 2.13835 42.2543 2.15428 42.2382C2.82931 42.0917 3.76054 41.9787 4.25385 41.8291C3.48323 41.8382 2.61214 41.8598 1.81244 41.8768C1.85156 41.8611 1.89246 41.8452 1.93514 41.8292C2.17505 41.7879 2.39502 41.7519 2.74281 41.7027C3.03205 41.6598 3.30704 41.6191 3.47975 41.5869C4.71176 41.3509 2.39027 41.6258 2.78631 41.52C4.07622 41.3822 5.35525 41.2511 6.64965 41.1222C6.7218 41.063 1.68734 41.4647 1.72829 41.3256C1.8256 41.3123 1.94968 41.2962 2.05416 41.2822C2.14288 41.2701 2.23748 41.2573 2.33789 41.2439C2.53494 41.2175 2.78029 41.186 2.9535 41.1625C2.79185 41.1441 2.57887 41.1313 2.39109 41.116C2.44056 41.0992 2.49144 41.0822 2.5437 41.0651C3.22272 40.9631 3.89348 40.8636 4.60458 40.7612C2.48263 41.0121 1.5526 41.0984 1.02148 40.8759C1.00931 40.8701 1.15917 40.8457 1.17374 40.8368C1.63599 40.9596 3.77108 40.6695 4.91259 40.5168C4.81156 40.5013 4.47863 40.5331 4.17065 40.5653C3.8574 40.598 3.60326 40.6273 3.46637 40.6264C3.40085 40.6244 3.62243 40.5648 3.47064 40.5626C3.06797 40.5569 1.57699 40.6592 1.75725 40.581C1.8966 40.5258 4.37151 40.2075 4.87552 40.1608C3.71905 40.2135 2.52465 40.3217 1.41452 40.3641C2.1316 40.169 2.71955 39.9634 4.0424 39.8171C4.44234 39.7132 1.65284 39.9295 1.57097 39.9083C1.83526 39.8612 2.04555 39.8203 2.29137 39.7757C2.55854 39.7289 2.76977 39.6883 3.00885 39.6449C2.63519 39.6946 2.17314 39.7544 1.80138 39.805C1.79871 39.7935 1.79604 39.7821 1.79338 39.7706C2.87849 39.5958 3.77293 39.3999 5.00182 39.279C4.97961 39.2501 4.79067 39.2557 4.57616 39.2718C4.3267 39.2916 4.0519 39.3219 3.88032 39.3398ZM119.691 41.4658C119.713 41.5196 119.256 41.4658 119.015 41.4412C119.051 41.4541 119.087 41.467 119.122 41.48C118.608 41.4193 117.617 41.3037 117.569 41.3994C117.184 41.3749 117.362 41.3048 117.239 41.2831C117.184 41.2738 116.7 41.2784 116.311 41.1801C116.218 41.1715 116.124 41.1629 116.03 41.1544C116.009 41.1852 115.988 41.2161 115.966 41.247C115.839 41.1951 115.711 41.1433 115.583 41.0915C116.949 41.2117 118.32 41.3367 119.689 41.4655C119.689 41.4656 119.69 41.4657 119.691 41.4658ZM106.042 40.2953C105.535 40.2371 104.788 40.1511 104.932 40.252C105.247 40.2712 105.554 40.29 105.875 40.3103C105.931 40.3053 105.987 40.3003 106.042 40.2953ZM56.3685 39.1569C55.9476 39.0831 55.5656 39.1726 54.9213 39.1802C54.9228 39.1988 54.9244 39.2174 54.9259 39.2359C55.1873 39.1816 55.8852 39.1864 56.3685 39.1569ZM132.078 42.4757C132.171 42.4938 132.262 42.5117 132.351 42.5293C131.981 42.5858 131.869 42.5013 131.483 42.4655C131.459 42.4632 131.465 42.487 131.456 42.4861C131.356 42.4759 131.265 42.4373 131.172 42.4268C130.996 42.4069 130.824 42.4149 130.513 42.3777C130.278 42.3495 130.279 42.3054 130.194 42.2967C130.135 42.2908 129.345 42.3215 128.913 42.22C128.027 42.0176 131.811 42.431 132.078 42.4757ZM134.71 42.8821C134.593 42.8677 134.533 42.8605 134.447 42.8501C134.571 42.8317 134.519 42.8107 134.37 42.7862C134.199 42.759 133.993 42.7362 133.793 42.7122C133.812 42.6491 134.636 42.7793 134.988 42.8057C134.999 42.8258 134.865 42.8272 134.852 42.8443C134.813 42.8579 134.765 42.8705 134.71 42.8821ZM123.559 41.4657C123.909 41.496 123.841 41.5702 123.825 41.5927C123.714 41.581 123.603 41.5693 123.491 41.5576C123.513 41.5269 123.536 41.4963 123.559 41.4657ZM126.16 41.7161C126.052 41.7595 125.303 41.7024 124.932 41.6672C124.917 41.6657 125.016 41.6459 124.764 41.6217C124.693 41.6149 123.947 41.6461 124.121 41.5394C124.779 41.5949 125.498 41.658 126.16 41.716C126.16 41.7161 126.16 41.7161 126.16 41.7161ZM126.918 41.8319C126.773 41.8332 126.625 41.8343 126.476 41.8354C126.407 41.8018 126.34 41.7686 126.271 41.7351C126.425 41.7454 126.593 41.7572 126.759 41.7689C126.812 41.7899 126.865 41.8109 126.918 41.8319ZM20.0961 40.8956C20.1311 40.9203 20.1661 40.9451 20.2011 40.9699C20.3283 40.9762 20.9414 40.805 20.7423 40.7981C20.5254 40.8306 20.3101 40.8631 20.0961 40.8956ZM17.4701 41.0607C17.3419 41.0578 17.2142 41.055 17.0872 41.0521C16.9422 41.1117 16.7912 41.1718 16.6446 41.2317C17.3165 41.2044 17.9702 41.1847 17.8559 41.056C18.0025 41.0434 18.1499 41.0308 18.298 41.0181C18.1785 41.0856 18.1956 41.1029 18.5882 41.1058C18.6638 41.0196 19.0834 41.0245 19.5354 40.969C19.2103 40.9916 18.8581 41.0168 18.5251 41.0406C18.5239 41.0266 18.5227 41.0127 18.5216 40.9987C19.2732 40.9399 18.3283 40.9309 17.8555 41.0276C17.8161 41.0123 17.7768 40.997 17.7375 40.9817C17.6481 41.0081 17.5589 41.0344 17.4701 41.0607ZM71.222 38.3783C71.1297 38.3648 71.0373 38.3515 70.9448 38.3381C70.5886 38.5243 71.3156 38.3444 71.8345 38.4866C71.6627 38.3772 72.4526 38.3775 72.4978 38.37C72.4068 38.3333 72.3157 38.2967 72.2246 38.26C71.8903 38.2991 71.5561 38.3385 71.222 38.3783ZM68.6052 38.2775C68.9261 38.3647 67.3553 38.3906 66.8267 38.3796C66.6984 38.3767 66.4689 38.3302 66.3765 38.3381C66.3207 38.3576 66.2649 38.3771 66.2091 38.3966C66.1414 38.3334 65.1135 38.4239 64.7095 38.4667C64.6709 38.4441 64.6323 38.4215 64.5937 38.3989C64.4465 38.4112 64.2983 38.4235 64.1503 38.4358C64.1685 38.4122 64.1866 38.3885 64.2048 38.3649C64.0932 38.3952 63.9817 38.4255 63.8702 38.4559C63.4311 38.4965 63.6995 38.3638 63.37 38.4106C63.0039 38.4628 63.6071 38.5249 63.597 38.5744C63.8946 38.5551 64.5726 38.5127 64.8732 38.5055C65.0465 38.5015 64.8516 38.593 65.5966 38.4779C65.7608 38.4986 65.925 38.5193 66.0893 38.54C66.3893 38.4973 66.6896 38.4549 66.9901 38.4127C67.0468 38.4444 67.1034 38.4762 67.1601 38.508C67.1922 38.5125 67.8877 38.4283 67.8501 38.4044C68.1324 38.4629 68.7106 38.4663 69.3199 38.4627C69.3783 38.4444 69.4368 38.426 69.4953 38.4076C68.9064 38.4524 69.3075 38.3909 69.1315 38.3589C69.0299 38.3404 68.7192 38.3057 68.6052 38.2775ZM24.1967 40.4924C23.2015 40.6506 23.8115 40.5363 22.7439 40.6214C22.8214 40.6575 22.899 40.6936 22.9768 40.7296C23.4929 40.6111 24.3769 40.5932 24.1977 40.4923C24.1974 40.4924 24.197 40.4924 24.1967 40.4924ZM13.7552 41.5183C14.3188 41.4413 14.0245 41.4021 14.7544 41.3151C14.7547 41.3151 14.755 41.3151 14.7554 41.315C14.3743 41.3446 13.9998 41.3739 13.6321 41.4028C13.673 41.4413 13.7141 41.4798 13.7552 41.5183ZM46.7944 39.1384C47.3397 39.1303 47.2309 39.1027 47.7296 39.1446C48.4577 39.0307 47.8396 39.071 47.8363 38.999C47.6684 39.0281 47.5008 39.0572 47.3333 39.0865C46.9218 39.0387 47.3073 38.9862 47.3071 38.9797C47.3067 38.9797 47.3064 38.9797 47.306 38.9797C47.305 38.9581 47.318 38.9529 47.1607 38.9474C47.0385 39.011 46.9164 39.0747 46.7944 39.1384ZM49.1124 38.9402C48.9289 38.9965 48.8479 39.0617 49.3378 39.0703C49.3381 39.0703 49.3385 39.0703 49.3388 39.0702C49.3731 38.9615 49.8461 39.0269 50.0603 39.0103C50.116 38.9962 50.1717 38.9821 50.2275 38.968C49.8549 38.9585 49.4832 38.9492 49.1124 38.9402ZM57.296 38.5218C57.3019 38.64 56.8903 38.6647 57.4737 38.7547C57.5861 38.7489 57.6995 38.7432 57.8107 38.7375C57.8832 38.7093 57.9558 38.681 58.0284 38.6527C59.4546 38.8233 59.8682 38.4448 57.4706 38.6564C57.4702 38.6564 57.4699 38.6565 57.4695 38.6566C57.4117 38.6117 57.3539 38.5668 57.296 38.5218ZM54.7896 38.6187C54.7738 38.6814 54.7581 38.7441 54.7424 38.8068C54.4257 38.6686 54.0209 38.8266 53.3993 38.745C53.3442 38.766 53.289 38.7871 53.2339 38.8081C52.999 38.7747 50.7445 38.8559 51.2372 38.9313C51.4515 38.9639 51.9134 38.8881 51.9536 38.8878C52.0893 38.8869 52.2683 38.933 52.4974 38.9207C52.6297 38.9135 52.9067 38.8396 53.1778 38.8291C53.7852 38.8054 54.8963 38.9321 55.6837 38.7451C55.7415 38.7618 55.7994 38.7785 55.8573 38.7952C56.4473 38.7633 56.2481 38.7108 56.8007 38.7629C57.1694 38.4545 54.5932 38.8542 55.1237 38.5965C55.1234 38.5965 55.123 38.5966 55.1227 38.5966C55.0116 38.6039 54.9005 38.6113 54.7896 38.6187ZM38.5437 39.4985C38.5082 39.4475 37.8193 39.5711 37.9747 39.4346C37.7521 39.4924 37.5302 39.5502 37.309 39.6081C37.3114 39.6198 37.3138 39.6315 37.3163 39.6432C37.5383 39.6202 37.761 39.5972 37.9842 39.5744C37.9862 39.593 37.9882 39.6116 37.9902 39.6303C38.3289 39.5415 39.6919 39.4902 39.6575 39.5588C39.7295 39.5266 39.8015 39.4943 39.8736 39.4621C40.5359 39.4999 41.1115 39.3858 41.8309 39.4203C41.8849 39.394 41.939 39.3678 41.993 39.3416C42.0301 39.3583 42.0672 39.375 42.1043 39.3917C42.3648 39.3796 42.626 39.3677 42.8879 39.3559C43.7371 39.2344 42.0739 39.2267 41.8769 39.2492C41.8505 39.2523 41.8572 39.3004 41.692 39.3172C41.3973 39.3466 39.7211 39.3943 39.2163 39.4567C39.21 39.4248 39.2037 39.393 39.1974 39.3612C38.9789 39.4069 38.761 39.4527 38.5437 39.4985ZM60.4755 38.553C60.514 38.5847 60.5525 38.6163 60.591 38.648C61.2409 38.5977 61.645 38.6163 61.4774 38.5123C61.477 38.5123 61.4767 38.5123 61.4764 38.5123C61.1443 38.5256 60.8098 38.5391 60.4755 38.553ZM108.528 39.9725C108.518 39.9064 108.201 39.856 107.806 39.8708C107.823 39.8912 107.841 39.9115 107.858 39.9319C108.066 39.8932 108.324 40.0108 108.969 40.0512C108.972 40.0186 108.974 39.986 108.977 39.9534C108.828 39.9597 108.678 39.9661 108.528 39.9725ZM59.9154 38.5544C59.7167 38.5213 59.1662 38.6545 59.5308 38.6496C59.8096 38.6459 60.0221 38.5721 59.9154 38.5544ZM11.5319 41.6613C11.6763 41.6545 11.822 41.6477 11.9689 41.6408C12.0426 41.6059 12.1165 41.571 12.1909 41.5361C12.1905 41.5362 12.1902 41.5362 12.1898 41.5362C11.9676 41.5781 11.7482 41.6198 11.5319 41.6613ZM44.9443 39.2363C45.4364 39.207 45.9307 39.1781 46.4269 39.1496C46.4309 39.1312 46.435 39.1128 46.439 39.0945C45.9451 39.1851 45.7428 39.1239 45.627 39.1253C45.6275 39.1253 45.6281 39.1253 45.6286 39.1253C45.2564 39.1296 44.9066 39.1369 44.5527 39.1336C44.686 39.1677 44.8138 39.202 44.9443 39.2363ZM43.2333 39.2116C43.3241 39.3352 43.4326 39.344 44.1942 39.2136C44.163 39.1995 44.1318 39.1853 44.1006 39.1711C43.704 39.2014 43.4751 39.2433 43.5409 39.1728C43.4383 39.1857 43.3357 39.1986 43.2333 39.2116ZM51.0088 38.8779C50.9146 38.841 50.1873 38.9134 50.228 38.9323C50.2435 38.9397 51.1913 38.9502 51.0088 38.8779ZM114.029 40.4193C113.864 40.3949 113.698 40.3705 113.531 40.3461C113.755 40.3523 113.978 40.3585 114.2 40.3648C114.143 40.383 114.086 40.4011 114.029 40.4193ZM115.877 40.4063C115.994 40.4338 115.597 40.5123 116.305 40.6086C115.793 40.5628 115.256 40.5154 114.747 40.4711C114.985 40.4742 115.236 40.4787 115.482 40.4829C115.443 40.4459 115.403 40.409 115.363 40.372C115.535 40.3835 115.706 40.3949 115.877 40.4063ZM116.423 40.5425C116.156 40.429 117.609 40.5603 117.755 40.5856C117.785 40.5911 117.925 40.6713 117.977 40.6907C117.754 40.6692 117.53 40.6478 117.305 40.6263C117.378 40.6543 117.452 40.6823 117.525 40.7104C117.259 40.692 117.002 40.6747 116.746 40.6576C116.857 40.6471 116.968 40.6366 117.079 40.6261C116.862 40.5982 116.643 40.5704 116.423 40.5425ZM110.529 40.0345C110.717 40.0527 110.904 40.0709 111.091 40.0892C111.056 40.0534 111.022 40.0176 110.987 39.9818C110.875 39.9722 110.763 39.9626 110.651 39.953C110.61 39.9801 110.57 40.0073 110.529 40.0345ZM114.319 40.3263C114.037 40.4587 113.331 40.0492 114.179 40.254C114.264 40.2748 114.346 40.3134 114.319 40.3263ZM118.305 40.6577C118.889 40.5992 118.736 40.839 118.201 40.7123C118.174 40.7057 118.261 40.6619 118.305 40.6577ZM122.623 41.0875C122.67 41.0933 122.736 41.1825 123.188 41.1513C123.263 41.1685 123.337 41.1857 123.411 41.2028C123.211 41.2198 121.777 41.0944 121.978 41.0335C122.204 41.0555 122.393 41.0612 122.623 41.0875ZM121.219 40.6383C121.003 40.6186 120.785 40.5989 120.566 40.5791C120.635 40.612 120.705 40.6449 120.774 40.6777C120.666 40.6738 120.558 40.67 120.449 40.6661C120.268 40.6034 120.087 40.5406 119.903 40.4778C120.39 40.5192 120.861 40.5594 121.339 40.6008C121.299 40.6133 121.256 40.6255 121.219 40.6383ZM115.351 40.0048C115.779 40.0769 116.308 40.0917 116.988 40.162C116.988 40.1621 116.988 40.1622 116.989 40.1623C117.023 40.1659 117.08 40.2068 117.188 40.2186C117.292 40.2289 119.163 40.3716 119.006 40.4168C118.289 40.4005 118.022 40.2929 117.835 40.4087C117.802 40.3773 117.77 40.3459 117.737 40.3146C117.031 40.1979 116.842 40.2777 116.447 40.2763C116.451 40.2554 116.455 40.2344 116.458 40.2135C116.199 40.187 115.939 40.1604 115.676 40.1339C115.712 40.1512 115.748 40.1685 115.783 40.1858C115.691 40.1771 115.598 40.1685 115.505 40.1598C115.284 40.0763 114.995 40.035 115.351 40.0048ZM122.23 40.7767C122.444 40.6368 124.426 40.9541 125.341 41.0197C124.824 41.0612 124.137 40.9212 123.6 40.8637C122.572 40.7543 123.276 40.8875 123.099 40.8951C123.017 40.8993 122.467 40.7388 122.23 40.7767ZM113.798 39.891C114.3 39.9494 114.582 39.938 115.004 40.0361C114.968 40.0444 114.931 40.0528 114.894 40.0612C114.751 40.037 113.543 39.8934 113.798 39.891ZM126.661 41.2055C125.709 41.0434 126.169 41.24 125.679 41.0771C126.015 41.1065 126.327 41.1336 126.665 41.1638C126.664 41.1777 126.662 41.1916 126.661 41.2055ZM58.7836 37.9834C58.3735 37.9921 57.9158 37.9772 57.6732 38.0455C57.9514 38.046 58.2296 38.0467 58.5083 38.0475C58.6 38.0261 58.6918 38.0048 58.7836 37.9834ZM70.4868 37.1607C70.3928 37.147 70.0219 37.1932 69.9829 37.1936C69.9102 37.1944 69.9298 37.1731 69.9287 37.1676C69.4532 37.1762 69.8926 37.2371 69.5409 37.255C69.4807 37.2578 68.654 37.2348 68.3181 37.2421C67.8018 37.2528 67.284 37.2563 67.0908 37.2604C66.7642 37.2672 66.1592 37.3261 65.6235 37.3384C65.4027 37.3434 65.3249 37.3055 65.1029 37.3107C63.6751 37.3427 60.8741 37.4649 59.6032 37.4782C59.2902 37.4809 58.9909 37.4384 58.8259 37.4475C58.6962 37.4702 58.5667 37.493 58.4372 37.5157C58.0315 37.359 57.9049 37.5135 57.4716 37.5432C57.1963 37.5621 57.0661 37.5163 57.0291 37.5176C56.7839 37.5267 56.6639 37.5546 56.4718 37.5651C56.2561 37.5768 55.9457 37.5649 55.8689 37.5717C55.8219 37.5761 55.9744 37.6371 55.1402 37.6657C54.2949 37.6948 53.4437 37.7202 52.579 37.7517C52.8759 37.9412 53.1193 37.7937 53.4737 37.7727C53.5687 37.767 53.5096 37.8013 53.5924 37.7967C53.8258 37.7838 54.2753 37.7355 54.4671 37.736C54.6749 37.7365 54.6067 37.8131 54.8691 37.7762C54.8823 37.7743 54.8391 37.7452 54.9009 37.7379C55.5223 37.6648 55.7283 37.7105 56.5195 37.6851C57.0488 37.666 60.2204 37.5399 60.3337 37.5587C60.9037 37.6486 57.5589 37.7468 57.1634 37.7538C57.0257 37.7554 57.1689 37.7169 57.0433 37.7145C56.9901 37.7137 56.5145 37.7938 56.0441 37.8155C55.4731 37.8415 54.3382 37.8389 53.789 37.8617C49.1261 38.0534 44.5258 38.2398 39.8709 38.5097C39.7718 38.5155 39.6433 38.5616 39.3213 38.5806C33.2921 38.9349 27.0277 39.3487 20.9326 39.8685C19.6115 39.9811 18.2665 40.1314 16.9549 40.2169C16.7861 40.2599 16.6184 40.3028 16.4518 40.3457C16.895 40.2842 17.6569 40.2822 17.7307 40.2768C17.7561 40.2749 17.9129 40.2295 18.1736 40.2089C18.5406 40.1797 18.7068 40.1933 18.737 40.1907C18.8315 40.1828 18.7671 40.1588 18.8574 40.1513C19.5448 40.0943 20.0196 40.0463 20.6367 39.995C21.3249 39.938 21.6995 39.9623 22.1794 39.8634C22.2372 39.8822 22.2951 39.901 22.353 39.9197C22.7095 39.789 24.9538 39.6231 25.8501 39.5611C26.1366 39.541 26.0897 39.5858 26.1862 39.5784C26.2476 39.5738 26.2199 39.5218 26.9741 39.4758C27.3438 39.4536 27.4447 39.4854 27.631 39.4703C27.7325 39.462 27.7131 39.4246 27.8592 39.4138C28.6985 39.352 29.4291 39.3119 30.2396 39.2618C30.4716 39.2474 30.4767 39.2795 30.5287 39.2754C30.7202 39.2605 31.0499 39.1824 31.5425 39.1485C32.368 39.0914 33.9475 38.9859 34.6199 38.9692C34.7177 38.9668 34.8011 39.0003 34.873 38.9951C34.9819 38.987 35.0221 38.9438 35.0412 38.9424C35.4061 38.9181 35.1895 38.9699 35.4328 38.9451C35.5613 38.9319 35.6925 38.8772 35.9928 38.8529C36.3897 38.8209 36.3152 38.8806 36.4813 38.8647C36.4988 38.8627 36.5016 38.8243 36.6655 38.8128C37.2834 38.7695 38.206 38.7044 38.7864 38.67C38.9544 38.66 39.0809 38.6782 39.3161 38.6648C39.7868 38.6365 42.5032 38.4668 42.7195 38.4711C42.743 38.4714 42.5058 38.5407 42.8886 38.5182C42.9986 38.4888 43.1088 38.4594 43.219 38.43C43.4075 38.4574 43.5963 38.4849 43.7854 38.5125C43.7707 38.3833 44.8756 38.3056 44.8667 38.439C44.986 38.4382 45.1055 38.4375 45.225 38.4368C45.4689 38.3327 45.6359 38.3581 46.1156 38.2803C46.1922 38.3047 46.2689 38.329 46.3455 38.3533C46.3636 38.3337 46.3816 38.314 46.3996 38.2944C46.6624 38.383 47.0816 38.2608 47.1332 38.2577C47.3314 38.2459 47.4819 38.2646 47.575 38.2593C47.9252 38.2399 48.6626 38.17 49.0681 38.1682C49.0871 38.1682 49.0704 38.2124 49.1854 38.2125C49.3929 38.2129 49.4102 38.1485 49.6901 38.2107C49.7451 38.1895 49.8002 38.1683 49.8553 38.1472C49.915 38.1542 49.9748 38.1613 50.0346 38.1684C50.3847 38.148 50.7361 38.1279 51.0873 38.1081C50.7711 38.195 51.1406 38.2202 51.4813 38.1482C51.5969 38.1237 51.4917 38.0834 51.5303 38.075C51.5821 38.0633 53.1499 38.0227 53.2561 38.0479C53.3299 38.0309 53.4038 38.014 53.4777 37.997C53.5165 38.0237 53.5552 38.0504 53.594 38.0771C53.6347 38.0656 53.6754 38.0542 53.7161 38.0428C54.1306 38.0763 55.1811 37.9239 55.3737 37.9263C55.4764 37.9274 55.3882 38.0505 55.8795 38.021C55.8954 37.9875 55.9113 37.954 55.9272 37.9204C56.0397 37.9118 56.1522 37.9032 56.2648 37.8946C56.4765 37.8903 56.7868 37.937 56.798 37.9757C56.8634 37.9501 56.9289 37.9245 56.9944 37.8988C57.1756 37.9691 58.1213 37.9116 58.4987 37.8519C58.6105 37.8715 58.7223 37.8912 58.8342 37.9108C58.9827 37.8784 59.1313 37.846 59.28 37.8136C59.6263 37.7951 59.2616 37.8522 59.3356 37.854C59.4918 37.8573 60.2868 37.7562 60.2371 37.8557C60.3459 37.8529 60.4547 37.8502 60.5636 37.8475C60.6188 37.818 60.6741 37.7885 60.7293 37.759C60.9195 37.8505 61.2401 37.8076 61.9013 37.8264C61.9562 37.8028 62.0111 37.7792 62.066 37.7557C62.2711 37.7822 62.4762 37.8089 62.6815 37.8356C62.7226 37.7979 62.7638 37.7601 62.8049 37.7224C62.8938 37.715 62.9827 37.7077 63.0716 37.7004C63.2543 37.7786 63.5772 37.6824 63.7435 37.7129C63.9861 37.7573 63.8004 37.8202 63.3527 37.8416C63.3873 37.9005 64.7225 37.8447 65.028 37.8349C65.0075 37.8236 64.9869 37.8123 64.9664 37.8009C64.6527 37.8163 64.3393 37.8319 64.0241 37.8478C63.757 37.7024 64.6133 37.7249 65.0033 37.6982C65.0391 37.6956 65.2407 37.6345 65.6355 37.6326C65.7884 37.6319 66.3863 37.7052 66.5003 37.7081C67.4208 37.7315 66.7424 37.6226 67.6445 37.7139C67.4558 37.6365 67.9739 37.6954 68.5111 37.6732C68.6026 37.6692 69.3782 37.5952 69.4307 37.5931C69.7577 37.5792 69.4024 37.6537 69.8754 37.6305C69.932 37.6113 69.9888 37.5921 70.0455 37.5729C70.1557 37.5719 70.2658 37.5709 70.376 37.5699C71.0461 37.7301 71.2007 37.607 71.4382 37.5897C71.5342 37.5827 71.4109 37.6268 71.6598 37.616C71.7535 37.6121 71.8572 37.5753 72.1094 37.5714C72.8986 37.5596 73.1668 37.7131 73.8918 37.5511C74.0032 37.5742 74.1145 37.5973 74.2258 37.6205C74.3009 37.5925 74.376 37.5646 74.4511 37.5367C74.5137 37.5455 74.567 37.5523 74.6126 37.5576C74.983 37.6007 74.8395 37.5349 75.0235 37.536C75.5681 37.5387 76.6916 37.5618 76.7901 37.6298C77.2693 37.4801 77.8265 37.6596 78.0138 37.656C78.1246 37.6387 78.2354 37.6215 78.3464 37.6044C78.4763 37.6248 78.6063 37.6454 78.7364 37.666C78.6751 37.5143 79.3486 37.673 79.4136 37.6766C79.4904 37.6798 80.5253 37.6544 80.9116 37.6641C81.2969 37.6731 81.969 37.7303 82.0283 37.732C82.0971 37.7336 82.754 37.7095 83.2665 37.7248C83.7151 37.7353 86.374 37.884 86.2084 37.8126C86.0351 37.7876 85.788 37.7626 85.5743 37.7464C84.9111 37.6909 81.0046 37.5463 80.0107 37.5232C78.2382 37.4707 76.3963 37.4524 74.6126 37.4429C74.379 37.4416 74.1461 37.4404 73.9142 37.439C73.7959 37.4384 73.7778 37.3993 73.6763 37.3987C73.5222 37.3978 73.1313 37.438 72.9795 37.4377C72.4122 37.4362 71.722 37.4339 71.4182 37.435C70.7393 37.4377 70.2732 37.4184 69.7595 37.4197C69.5986 37.4201 68.7863 37.4773 68.2293 37.4644C68.1283 37.4548 68.0272 37.4451 67.9262 37.4355C68.2127 37.4186 68.9649 37.376 69.3145 37.3685C69.8346 37.3574 70.1064 37.3866 70.2985 37.3843C70.4593 37.3823 71.2813 37.3395 71.6554 37.3365C71.7716 37.3355 71.7957 37.3763 71.8951 37.3756C72.4345 37.3714 73.1449 37.3676 73.6126 37.3265C73.444 37.3384 74.3551 37.3577 74.6126 37.3626C74.6464 37.3632 74.6689 37.3636 74.6761 37.3635C74.7826 37.3636 74.8982 37.3253 75.1162 37.3257C75.5357 37.3267 75.4819 37.4066 76.0081 37.3289C76.1382 37.3529 76.2684 37.3771 76.3987 37.4013C76.4093 37.2936 78.0512 37.4539 78.5203 37.3321C78.5325 37.3158 76.3975 37.2516 76.2184 37.2505C75.7502 37.242 75.1844 37.2419 74.6126 37.2442C73.8851 37.2471 73.1431 37.2527 72.5691 37.2447C72.2598 37.2402 71.2868 37.1813 71.2135 37.1833C71.0951 37.186 71.2023 37.2223 71.1512 37.224C70.1046 37.2598 70.6262 37.1812 70.4868 37.1607ZM116.47 40.0388C116.156 40.0048 115.839 39.9707 115.52 39.9366C115.545 39.9155 115.57 39.8943 115.596 39.8731C115.741 39.8958 115.886 39.9185 116.031 39.9411C116.143 39.9377 116.256 39.9342 116.368 39.9307C116.402 39.9667 116.436 40.0028 116.47 40.0388ZM117.249 40.0142C117.53 40.0292 117.539 40.0797 117.603 40.0883C117.793 40.114 117.96 40.11 118.144 40.1285C117.921 40.2248 117.472 40.1275 117.249 40.0142ZM111.595 39.4562C111.656 39.4672 112.059 39.629 112.534 39.5529C112.873 39.6203 113.235 39.69 113.583 39.7588C112.98 39.6472 112.16 39.6345 111.867 39.6068C111.756 39.5963 111.738 39.5558 111.65 39.5475C111.138 39.4999 110.627 39.5445 110.584 39.4119C111.072 39.4909 111.516 39.4425 111.595 39.4562ZM114.675 39.7768C114.753 39.8109 114.831 39.8451 114.909 39.8792C114.618 39.8525 114.325 39.8257 114.03 39.7989C114.112 39.7791 114.194 39.7593 114.276 39.7394C114.409 39.7519 114.542 39.7643 114.675 39.7768ZM91.9029 38.0402C92.0856 38.0498 92.2683 38.0594 92.4509 38.0692C92.4419 38.0491 92.2329 38.0384 92.1566 38.0213C92.1569 38.0213 92.1573 38.0213 92.1576 38.0214C92.0726 38.0021 92.1106 37.9788 91.9552 37.9597C91.9377 37.9866 91.9203 38.0134 91.9029 38.0402ZM16.2206 40.2818C15.9149 40.3059 13.0849 40.5618 13.3386 40.6112C13.4576 40.6359 14.424 40.5166 14.7219 40.4905C15.1001 40.457 16.1313 40.4429 16.2206 40.2818ZM11.2221 40.7244C11.1586 40.8014 12.9771 40.6426 13.1178 40.6177C13.081 40.6109 13.0238 40.5935 12.9758 40.5928C12.7522 40.5886 11.5829 40.7095 11.2221 40.7244ZM81.6621 37.4471C81.8042 37.4864 81.9463 37.5259 82.0885 37.5655C82.052 37.5178 82.0156 37.47 81.9791 37.4223C81.8733 37.4305 81.7677 37.4388 81.6621 37.4471ZM67.8118 37.4588C65.4305 37.4898 63.0503 37.5371 60.6741 37.5988C60.8835 37.5737 61.0928 37.5487 61.3007 37.5239C63.3472 37.4777 65.5361 37.4529 67.5168 37.3944C67.6151 37.4159 67.7135 37.4373 67.8118 37.4588ZM110.941 39.1883C110.322 39.1346 109.831 39.1276 109.17 39.0179C109.806 39.0176 110.103 39.1248 110.723 39.0993C110.723 39.0993 110.723 39.0994 110.724 39.0994C110.796 39.129 110.869 39.1587 110.941 39.1883ZM97.3667 38.1659C97.5534 38.1447 97.74 38.1236 97.9263 38.1025C97.7047 38.0886 97.4827 38.0747 97.2604 38.061C97.2959 38.096 97.3313 38.1309 97.3667 38.1659ZM47.055 37.9398C46.4146 38.0417 44.7923 37.9941 44.2738 38.1077C44.2404 38.1151 44.5521 38.135 44.0549 38.2313C44.4324 38.1971 44.6995 38.1687 44.723 38.1122C44.8347 38.1252 44.9465 38.1382 45.0584 38.1512C45.2417 38.1277 45.4253 38.1042 45.6092 38.0808C45.592 38.1367 45.6063 38.133 45.8883 38.0812C46.0185 38.0886 46.1489 38.0961 46.2793 38.1036C46.3332 38.0776 46.387 38.0517 46.4409 38.0257C46.555 38.0527 46.6691 38.0797 46.7833 38.1067C47.2209 38.0502 46.9503 38.0002 47.055 37.9398ZM49.2849 37.8493C49.1823 37.8403 46.2289 38.0197 47.5803 38.0653C47.9335 38.045 48.275 38.0255 48.6237 38.006C48.3272 37.8379 49.2828 37.9566 49.3616 37.957C49.7358 37.958 50.2115 37.8939 50.4841 37.8844C50.7185 37.8762 50.8592 37.9028 51.0243 37.895C51.5798 37.8684 52.4602 37.8315 52.579 37.7517C52.1448 37.7675 51.7047 37.7848 51.2556 37.8055C50.7803 37.8276 50.3501 37.7748 49.4576 37.9119C49.2352 37.9114 49.3118 37.8512 49.2849 37.8493ZM98.4835 38.1455C98.457 38.2191 99.5867 38.2746 99.5951 38.2456C99.5986 38.2283 99.2317 38.2045 99.1796 38.1945C99.1793 38.1945 99.1789 38.1945 99.1786 38.1944C99.1569 38.1901 99.2698 38.1686 99.0976 38.1493C98.8932 38.1479 98.6885 38.1467 98.4835 38.1455ZM20.6006 39.7386C20.452 39.7065 16.967 40.018 16.8851 40.0473C16.857 40.0554 16.8985 40.0704 16.8881 40.0821C17.6701 39.9537 18.8525 39.9236 19.6152 39.8645C19.8262 39.848 19.7608 39.8234 19.7727 39.8219C19.7732 39.8218 19.7737 39.8218 19.7742 39.8217C19.8934 39.8117 20.4452 39.8393 20.6006 39.7386ZM43.1564 38.2013C43.3051 38.2051 43.454 38.209 43.6031 38.2129C43.6395 38.1876 43.676 38.1622 43.7124 38.1369C43.7121 38.1369 43.7118 38.137 43.7114 38.137C43.5261 38.1584 43.3411 38.1798 43.1564 38.2013ZM38.0305 38.4176C38.0678 38.4318 38.1051 38.446 38.1425 38.4602C38.5224 38.4395 38.8833 38.4202 39.256 38.4005C39.2192 38.412 39.1824 38.4235 39.1457 38.4349C39.7073 38.4266 39.9378 38.3554 40.2387 38.3463C40.2384 38.3464 40.238 38.3464 40.2377 38.3464C40.2701 38.3455 40.3112 38.3774 40.4318 38.3717C40.7067 38.3584 41.5073 38.326 41.5968 38.2866C41.8009 38.2012 40.1976 38.3268 39.9047 38.341C39.7708 38.3472 39.6084 38.3267 39.5272 38.3308C39.4382 38.3353 39.3195 38.3828 39.1034 38.3944C39.0385 38.3977 38.3429 38.3915 38.0305 38.4176ZM31.4562 38.8936C31.574 38.9226 31.8129 38.8703 31.9022 38.8702C31.9236 38.8702 31.7606 38.9125 31.9614 38.908C32.0166 38.883 32.0719 38.8581 32.1272 38.8331C31.9027 38.8532 31.6791 38.8734 31.4562 38.8936ZM100.378 38.2347C100.347 38.2245 99.7439 38.187 99.7143 38.1901C99.3485 38.2334 100.598 38.3097 100.378 38.2347ZM115.632 39.3891C115.367 39.2641 118.657 39.6733 118.967 39.7006C118.946 39.7606 118.173 39.6229 118.573 39.7471C118.194 39.663 117.083 39.5813 116.845 39.5453C116.693 39.5227 116.659 39.4659 116.636 39.462C116.547 39.4475 115.73 39.4328 115.632 39.3891ZM121.683 40.0146C121.36 39.9698 121.059 39.9276 120.75 39.8847C121.114 39.9143 121.482 39.9446 121.86 39.9762C121.801 39.989 121.742 40.0018 121.683 40.0146ZM122.083 40.0273C122.087 39.9674 123.118 40.1197 123.41 40.1366C123.07 40.2035 122.584 40.0564 122.083 40.0273ZM104.403 38.3668C103.915 38.2906 103.689 38.457 104.293 38.4222C104.311 38.421 104.423 38.3704 104.403 38.3668ZM46.8903 37.6907C46.8056 37.6935 45.7606 37.6858 45.7026 37.7182C45.5171 37.8211 46.1971 37.7495 46.4285 37.7736C46.8016 37.8127 46.2585 37.8861 47.1621 37.8078C47.1259 37.8283 47.0898 37.8488 47.0536 37.8693C47.5843 37.85 47.4047 37.7289 47.4992 37.7076C47.528 37.7012 47.8616 37.6963 47.9189 37.6853C48.6563 37.5461 46.97 37.6872 46.8903 37.6907ZM92.254 37.5811C91.2796 37.4769 91.6962 37.5782 90.6922 37.5247C90.6571 37.5637 92.1255 37.6101 92.254 37.5811ZM56.4179 37.3705C55.4032 37.4213 54.5824 37.3974 53.6327 37.5061C53.7046 37.613 56.6782 37.389 56.4179 37.3705ZM8.95959 40.4336C12.8746 40.2493 17.3984 39.7786 21.5981 39.4346C22.0515 39.3975 22.094 39.4384 22.2574 39.4204C22.3639 39.4088 22.3423 39.3748 22.4846 39.3632C27.6811 38.9407 32.6333 38.5443 37.6191 38.2602C37.9414 38.2415 39.4593 38.2273 39.7794 38.0937C40.02 37.9921 38.9312 38.1241 38.7513 38.1343C38.6153 38.1419 38.6071 38.1013 38.5165 38.1065C38.4204 38.1122 38.5015 38.1354 38.39 38.1425C37.9075 38.1735 37.3823 38.1947 36.9507 38.2239C32.719 38.5097 28.5989 38.7927 24.4037 39.1152C23.8998 39.1541 23.9938 39.1139 23.97 39.1156C23.9697 39.1157 23.9693 39.1158 23.969 39.1159C21.2442 39.3261 18.1205 39.6609 15.2324 39.891C13.1784 40.0518 11.1734 40.216 9.13412 40.392C9.07912 40.4056 9.02128 40.4194 8.95959 40.4336ZM49.0548 37.7052C48.7955 37.593 48.7429 37.7201 47.8335 37.7121C47.7609 37.7367 47.6861 37.7614 47.6125 37.7861C48.0972 37.7584 48.5735 37.7317 49.0564 37.7052C49.0559 37.7052 49.0553 37.7052 49.0548 37.7052ZM43.0216 37.9597C42.8578 37.8002 40.829 38.0306 39.9024 38.0533C39.7378 38.1469 41.0751 38.032 41.3957 38.0232C41.5539 38.0187 42.3924 38.0586 43.0313 37.9763C43.028 37.9707 43.0248 37.9652 43.0216 37.9597ZM112.207 38.8325C112.06 38.8245 111.911 38.8164 111.763 38.8084C112.132 38.8592 112.499 38.91 112.862 38.9609C112.28 38.8973 111.692 38.8338 111.096 38.7706C111.21 38.7456 111.324 38.7205 111.438 38.6954C111.696 38.7411 111.952 38.7868 112.207 38.8325ZM110.283 38.6846C111.316 38.7593 110.229 38.7601 109.978 38.6976C109.826 38.6599 110.178 38.6771 110.283 38.6846ZM107.594 38.4028C108.073 38.3799 109.062 38.457 108.702 38.5496C108.175 38.4492 107.845 38.4699 107.09 38.3768C107.203 38.3623 107.315 38.3479 107.427 38.3334C107.428 38.3334 107.428 38.3335 107.429 38.3335C107.484 38.3566 107.539 38.3797 107.594 38.4028ZM110.761 38.6512C111.435 38.7788 109.476 38.5884 110.095 38.5948C110.125 38.5951 110.73 38.6458 110.761 38.6512ZM13.2731 39.8984C13.1956 39.9454 13.7118 39.8974 13.888 39.8841C14.6677 39.8249 15.592 39.7248 16.3926 39.6601C16.3316 39.6523 16.2708 39.6445 16.2101 39.6367C15.2308 39.7221 14.2484 39.8096 13.2731 39.8984ZM18.8445 39.4487C19.4057 39.4012 19.9075 39.3592 20.4521 39.3141C20.5021 39.3099 20.7354 39.2564 20.5592 39.2626C19.9777 39.3249 19.4402 39.3841 18.8445 39.4487ZM52.4494 37.321C52.035 37.3153 53.2214 37.1535 53.1731 37.2781C52.9315 37.2923 52.6903 37.3066 52.4494 37.321ZM56.2977 37.1289C56.0384 37.1494 55.7794 37.17 55.5207 37.1909C55.5198 37.1768 55.519 37.1627 55.5182 37.1487C55.7777 37.1419 56.0375 37.1353 56.2977 37.1289ZM11.1599 40.0672C11.4301 40.0899 12.0812 40.0213 12.5031 39.9832C12.2082 39.9689 11.5358 40.0523 11.1599 40.0672ZM46.2499 37.5497C46.2834 37.5805 44.6449 37.655 45.2089 37.5686C45.555 37.5621 45.902 37.5558 46.2499 37.5497ZM42.9066 37.674C43.2587 37.6477 43.5335 37.6445 43.4635 37.6998C43.2758 37.7076 43.0885 37.7155 42.9015 37.7234C42.9032 37.7069 42.9049 37.6904 42.9066 37.674ZM105.756 38.1597C105.168 38.1189 104.575 38.0788 103.978 38.0392C104.002 38.0268 104.025 38.0144 104.048 38.002C104.623 38.0401 105.194 38.0788 105.761 38.118C105.759 38.1319 105.757 38.1458 105.756 38.1597ZM10.8228 39.9721C10.4062 40.021 9.98852 40.0703 9.58965 40.1182C9.99062 40.0888 10.4106 40.058 10.8291 40.0277C10.8273 40.0091 10.8256 39.9904 10.8238 39.9718C10.8235 39.9719 10.8232 39.972 10.8228 39.9721ZM113.905 38.6599C112.085 38.4307 114.427 38.5705 114.882 38.71C114.882 38.7099 114.883 38.7099 114.883 38.7099C114.924 38.7222 114.833 38.7552 114.9 38.7781C114.72 38.7428 114.539 38.7076 114.357 38.6723C114.187 38.6802 114.017 38.6881 113.846 38.696C113.792 38.6819 113.737 38.6678 113.682 38.6537C113.757 38.6557 113.831 38.6578 113.905 38.6599ZM121.21 39.3228C122.866 39.4993 121.153 39.4275 120.365 39.2672C120.374 39.2491 121.064 39.3072 121.21 39.3228ZM116.909 38.9234C116.653 38.9085 116.394 38.8935 116.134 38.8786C116.102 38.8637 116.07 38.8489 116.038 38.834C116.239 38.841 116.438 38.848 116.636 38.8549C116.728 38.8778 116.819 38.9006 116.909 38.9234ZM108.407 37.99C107.992 37.9433 107.444 38.0301 108.793 38.1057C108.794 38.0916 108.794 38.0775 108.795 38.0634C108.741 38.0612 108.582 38.0614 108.573 38.0597C108.549 38.0542 108.582 38.0097 108.407 37.99ZM124.296 39.2696C124.342 39.2691 124.387 39.1244 124.846 39.3278C124.989 39.3336 125.137 39.3401 125.291 39.3471C125.326 39.3838 125.361 39.4205 125.397 39.4572C124.808 39.3685 124.768 39.4311 124.722 39.4275C124.535 39.4139 124.677 39.3946 124.556 39.3814C124.249 39.3474 123.52 39.2939 123.859 39.2318C123.981 39.2097 124.249 39.27 124.296 39.2696ZM123.182 39.0677C123.248 39.087 123.027 39.1077 123.077 39.1252C123.112 39.1395 123.808 39.257 123.611 39.3101C123.497 39.295 123.38 39.2797 123.267 39.2648C123.232 39.2409 123.197 39.2171 123.162 39.1932C123.054 39.2006 122.945 39.2079 122.835 39.2152C122.66 39.1472 122.278 39.0431 122.742 39.0505C122.573 39.0372 122.403 39.0239 122.231 39.0105C122.14 39.025 122.048 39.0395 121.956 39.054C122.007 39.0228 122.057 38.9916 122.108 38.9603C122.472 38.9964 122.83 39.0322 123.182 39.0677ZM128.473 39.6542C128.449 39.6704 128.426 39.6866 128.402 39.7027C129.064 39.7419 129.986 39.8342 129.443 39.8904C128.608 39.8049 127.76 39.7199 126.894 39.6345C126.838 39.6142 126.781 39.5938 126.724 39.5733C127.371 39.699 127.196 39.4475 127.738 39.5742C127.827 39.5955 127.557 39.6466 128.13 39.6586C128.112 39.6376 128.094 39.6167 128.076 39.5958C128.201 39.6144 128.336 39.6341 128.473 39.6542ZM133.847 40.3127C132.821 40.16 133.944 40.2281 134.174 40.3142C134.174 40.3141 134.174 40.3141 134.173 40.314C134.691 40.5348 133.519 40.314 133.467 40.3092C133.387 40.3009 133.095 40.3772 132.642 40.1595C133.008 40.2057 133.479 40.2651 133.847 40.3127ZM130.364 39.87C130.454 39.8767 130.401 39.899 130.439 39.9031C130.44 39.9031 130.44 39.9031 130.44 39.9032C130.986 39.9597 132.376 40.0988 132.522 40.2084C132.056 40.1594 130.205 39.9629 130.083 39.8872C130.178 39.8816 130.271 39.8758 130.364 39.87ZM126.312 39.4837C125.979 39.3879 126.733 39.4622 126.962 39.515C127.002 39.5254 126.657 39.5827 126.312 39.4837ZM99.2333 36.9476C98.4506 36.9322 99.4737 37.0343 99.1152 37.0666C99.2644 37.0716 99.4136 37.0767 99.5625 37.0818C99.4529 37.037 99.3432 36.9923 99.2333 36.9476ZM63.6497 36.0586C63.4674 36.0559 63.5544 36.088 63.5386 36.0888C63.419 36.0905 63.3056 36.0654 63.2598 36.0693C62.4129 36.1443 62.9776 36.1599 62.9863 36.1663C63.005 36.1995 62.783 36.2438 63.0926 36.275C63.2798 36.2589 63.467 36.2429 63.6544 36.2269C63.7479 36.2436 63.8414 36.2602 63.9349 36.2769C64.307 36.2291 63.8188 36.2283 63.7624 36.1765C63.7406 36.1561 64.0908 36.1236 63.6497 36.0586ZM97.843 36.746C97.7134 36.7969 97.4001 36.8519 97.6995 36.9298C97.6999 36.9298 97.7002 36.9299 97.7006 36.9299C97.7559 36.9442 97.9836 36.9644 98.0526 36.984C98.5581 36.9375 98.3704 36.8441 97.843 36.746ZM67.0096 35.8907C67.3122 35.8998 67.6155 35.9091 67.9177 35.9187C67.9131 35.9541 67.9084 35.9895 67.9038 36.0249C67.7423 36.0176 67.5798 36.0103 67.4178 36.0032C67.3613 36.0201 67.3048 36.0371 67.2482 36.054C67.4498 36.0913 67.6516 36.1287 67.8528 36.1662C68.0942 36.1488 68.3357 36.1315 68.5773 36.1144C68.4659 36.0972 68.3546 36.08 68.2432 36.0628C68.8338 36.0347 68.7063 36.1222 69.1957 36.1494C69.3628 36.1148 69.53 36.0803 69.6972 36.0458C69.9402 36.0762 70.1831 36.1068 70.426 36.1375C70.8336 36.1187 70.8692 36.0934 70.5945 36.0582C70.7969 36.0137 71.0195 36.0793 71.2635 36.0601C71.2836 36.0586 71.2454 36.0185 71.2632 36.0179C72.5252 35.9824 72.4586 36.0899 72.6602 36.0933C72.8024 36.0957 73.37 36.0224 73.379 35.998C73.3899 35.9653 72.2079 35.8383 74.0583 35.831C73.1014 35.7423 72.0139 35.8393 72.7178 35.9675C72.4149 35.955 71.0803 35.9961 70.9951 35.9932C70.8709 35.9882 70.914 35.938 70.7586 35.938C70.6666 35.9381 70.4242 36.0537 69.6964 35.9614C69.6037 35.981 69.511 36.0007 69.4184 36.0204C69.3312 36.006 69.244 35.9916 69.1568 35.9772C69.3353 35.9203 69.514 35.8635 69.6927 35.8069C68.9832 35.8737 68.393 35.7693 67.9623 35.8695C67.5887 35.8636 67.406 35.8556 67.5663 35.805C67.4539 35.8066 67.3415 35.8082 67.2291 35.8099C67.1559 35.8368 67.0827 35.8637 67.0096 35.8907ZM95.5473 36.6918C95.1809 36.6157 95.0408 36.7261 95.0981 36.7361C95.4205 36.7913 95.7379 36.7314 95.5473 36.6918ZM64.3264 36.1071C64.7364 36.1291 65.1457 36.1517 65.5557 36.1747C65.5551 36.1373 65.5544 36.1 65.5537 36.0626C65.1443 36.077 64.7356 36.0918 64.3264 36.1071ZM99.3528 36.8713C99.3886 36.9017 99.4244 36.9321 99.4602 36.9625C99.9151 36.8899 100.348 37.0662 100.57 37.0509C100.618 37.0475 100.525 36.9916 100.435 36.9749C100.379 36.9643 99.4334 36.8669 99.3528 36.8713ZM117.973 38.4039C117.803 38.4064 117.632 38.4089 117.461 38.4114C117.473 38.381 117.486 38.3505 117.498 38.3201C117.582 38.3222 117.667 38.3244 117.75 38.3266C117.825 38.3523 117.899 38.3781 117.973 38.4039ZM116.076 38.2741C115.779 38.2438 115.476 38.2132 115.177 38.1831C116.325 38.2603 115.388 38.1593 116.084 38.1829C116.082 38.2133 116.079 38.2437 116.076 38.2741ZM113.068 37.9358C113.107 37.9204 113.146 37.905 113.185 37.8895C113.486 37.9164 113.785 37.9432 114.082 37.9701C113.9 37.8881 113.717 37.8061 113.533 37.7241C113.423 37.7141 113.313 37.7041 113.203 37.6941C113.158 37.7747 113.113 37.8553 113.068 37.9358ZM55.5911 36.1484C55.4109 36.1536 54.7879 36.2332 54.8155 36.2532C55.0759 36.2695 55.3366 36.286 55.5976 36.3026C55.5974 36.2652 55.5973 36.2277 55.5972 36.1902C55.6346 36.2076 55.672 36.2249 55.7095 36.2422C55.8569 36.2231 56.0045 36.2039 56.1522 36.1849C56.228 36.215 56.3038 36.2451 56.3797 36.2753C56.4534 36.2354 56.5273 36.1955 56.6012 36.1557C55.8828 36.1137 55.9102 36.1793 55.7614 36.1837C55.6859 36.1861 55.6374 36.1646 55.6103 36.1539C55.6039 36.1521 55.5975 36.1503 55.5911 36.1484ZM64.6045 35.8631C63.7497 35.871 63.2617 35.9805 62.6421 35.9125C63.0427 36.0773 65.5992 35.8428 66.5042 35.9761C66.5975 35.9464 66.6908 35.9168 66.7841 35.8871C66.2927 35.92 65.9512 35.868 65.7115 35.864C65.5211 35.8608 65.5415 35.8899 65.5269 35.8898C65.5263 35.8898 65.5256 35.8898 65.5249 35.8898C65.0793 35.8859 64.9411 35.8602 64.6045 35.8631ZM99.9949 36.7758C99.7694 36.7161 99.3679 36.6941 99.3591 36.7586C99.5813 36.7921 99.803 36.8256 100.024 36.8592C99.9797 36.8396 100.033 36.786 99.9949 36.7758ZM112.741 37.7247C112.567 37.6881 112.146 37.6698 112.322 37.7415C112.354 37.7543 112.773 37.7516 112.52 37.831C112.926 37.8651 112.84 37.7457 112.741 37.7247ZM79.216 35.9321C79.3674 35.9327 79.519 35.9334 79.6706 35.9342C79.7064 35.9087 79.7422 35.8831 79.778 35.8575C79.5905 35.8822 79.4031 35.9071 79.216 35.9321ZM101.933 36.8636C102.124 37.0056 102.474 36.9053 102.84 37.0374C102.978 37.0481 103.116 37.0589 103.253 37.0697C103.253 37.0697 103.254 37.0697 103.254 37.0698C103.26 37.0351 103.267 37.0005 103.273 36.9659C102.828 36.9314 102.381 36.8973 101.933 36.8636ZM69.8053 35.8548C69.8984 35.8701 69.9914 35.8855 70.0845 35.9009C70.2497 35.8804 70.415 35.8599 70.5803 35.8396C70.4907 35.8267 70.401 35.8139 70.3114 35.8012C70.1427 35.819 69.974 35.8368 69.8053 35.8548ZM104.37 37.0294C103.885 36.9772 103.694 37.0748 104.316 37.1213C104.578 37.1408 104.877 37.0842 104.37 37.0294ZM46.3175 36.5828C46.4844 36.5841 46.6515 36.5855 46.8188 36.5869C46.8745 36.5608 46.9302 36.5346 46.9859 36.5085C46.7627 36.5332 46.5399 36.5579 46.3175 36.5828ZM115.035 37.9442C115.013 37.9657 114.992 37.9873 114.971 38.0089C114.825 37.9908 114.679 37.9727 114.532 37.9546C114.572 37.9348 114.611 37.915 114.65 37.8952C114.778 37.9115 114.907 37.9278 115.035 37.9442ZM47.4412 36.5428C47.5747 36.541 47.7109 36.539 47.842 36.5373C47.9301 36.5218 48.0183 36.5062 48.1066 36.4907C47.9824 36.4852 47.8583 36.4797 47.7343 36.4742C47.6365 36.4971 47.5388 36.52 47.4412 36.5428ZM108.962 37.4009C108.778 37.3573 108.018 37.3834 108.693 37.4611C109.123 37.5106 108.99 37.4075 108.962 37.4009ZM109.969 37.4564C109.265 37.3438 109.777 37.6595 110.629 37.5546C109.784 37.5072 110.01 37.4632 109.969 37.4564ZM116.223 37.871C116.241 37.8728 116.252 37.9132 116.394 37.928C116.907 37.9812 117.568 38.0598 117.946 38.0987C118.833 38.1882 121.525 38.386 121.837 38.5331C121.902 38.5636 121.741 38.6187 121.767 38.6251C121.847 38.6435 122.306 38.6558 122.216 38.6993C121.77 38.653 121.317 38.6067 120.886 38.5628C120.997 38.5368 121.108 38.5109 121.218 38.4849C120.126 38.3947 120.483 38.4286 120.158 38.4769C119.973 38.4272 119.786 38.3773 119.599 38.3275C119.188 38.3184 118.79 38.311 118.378 38.3025C118.473 38.2882 118.567 38.2739 118.661 38.2596C118.053 38.1571 118.22 38.2018 117.876 38.2256C117.878 38.2023 117.879 38.179 117.881 38.1557C117.271 38.1542 117.174 38.0749 117.044 38.0617C116.781 38.0355 116.426 38.279 115.426 37.9101C114.982 38.0019 115.024 37.7357 114.762 37.849C114.06 37.6355 115.41 37.8125 116.074 37.8799C116.075 37.88 116.075 37.88 116.075 37.88C116.125 37.885 116.049 37.8528 116.223 37.871ZM112.496 37.67C112.943 37.5872 111.22 37.4254 111.776 37.6497C111.861 37.6628 111.945 37.6759 112.03 37.689C112.186 37.6827 112.342 37.6764 112.497 37.6701C112.496 37.6701 112.496 37.67 112.496 37.67ZM96.2394 36.3808C94.6293 36.3364 95.5362 36.4592 96.0871 36.4233C96.1967 36.4163 96.2573 36.4013 96.2394 36.3808ZM63.3803 35.7956C63.3572 35.8107 63.334 35.8258 63.3108 35.8408C63.8504 35.8149 64.8944 35.8503 64.8776 35.7525C64.3804 35.7662 63.8794 35.7806 63.3803 35.7956ZM67.645 35.6537C67.5289 35.6494 67.0551 35.6425 67.1129 35.6784C67.3185 35.7013 67.5241 35.7243 67.7298 35.7475C67.8252 35.7299 67.9201 35.7123 68.0154 35.6947C67.8821 35.691 67.6765 35.6548 67.645 35.6537Z" fill="url(#paint1_linear_8923_28373)"/>
<defs>
<linearGradient id="paint0_linear_8923_28373" x1="8.26527" y1="18" x2="117.793" y2="27.0894" gradientUnits="userSpaceOnUse">
<stop stop-color="#35A1DA"/>
<stop offset="0.52" stop-color="#D4549F"/>
<stop offset="1" stop-color="#F15A22"/>
</linearGradient>
<linearGradient id="paint1_linear_8923_28373" x1="10.4418" y1="37.2995" x2="116.168" y2="81.0719" gradientUnits="userSpaceOnUse">
<stop stop-color="#35A1DA"/>
<stop offset="0.52" stop-color="#D4549F"/>
<stop offset="1" stop-color="#F15A22"/>
</linearGradient>
</defs>
</svg>
