<svg width="340" height="240" viewBox="0 0 340 240" fill="none" xmlns="http://www.w3.org/2000/svg">
<path d="M29.8148 73.1311C40.427 38.4648 67.7471 4.42307 106.969 11.3851C129.634 15.4042 155.568 45.3109 178.893 40.1428C193.161 36.9882 206.3 30.1334 219.864 24.9482C263.433 8.29446 294.854 15.5573 313.093 55.8817C321.457 74.3946 333.463 95.0426 327.201 114.372C312.932 158.287 266.74 154.825 233.388 173.71C216.219 183.417 203.711 199.791 189.249 212.84C155.687 243.059 104.456 236.57 70.1812 210.61C33.9757 183.171 19.8108 135.178 25.7958 91.2184C26.5965 85.3249 27.9508 79.2183 29.8148 73.1311Z" fill="#111111" fill-opacity="0.05"/>
<path d="M67.6406 99.3579C67.6406 94.984 71.6525 91.4362 76.5849 91.4362H264.65C269.582 91.4362 273.594 94.984 273.594 99.3579V211.714C273.594 216.088 269.582 219.636 264.65 219.636H76.5849C71.6439 219.636 67.6406 216.088 67.6406 211.714V99.3579Z" fill="white"/>
<path fill-rule="evenodd" clip-rule="evenodd" d="M264.649 220.01H76.5842C71.4434 220.01 67.2578 216.288 67.2578 211.723V99.3579C67.2578 94.784 71.4434 91.0709 76.5842 91.0709H264.649C269.79 91.0709 273.967 94.7927 273.967 99.3579V211.714C273.967 216.288 269.79 220.01 264.649 220.01ZM76.5842 91.8101C71.8602 91.8101 68.0133 95.1927 68.0133 99.3492V211.714C68.0133 215.871 71.8602 219.245 76.5842 219.245H264.649C269.373 219.245 273.22 215.862 273.22 211.714V99.3579C273.22 95.1927 269.373 91.8188 264.649 91.8188L76.5842 91.8101Z" fill="#111111"/>
<path d="M189.841 21.1231C189.841 20.9405 189.884 20.7666 189.971 20.6014C190.049 20.4449 190.171 20.3057 190.318 20.2014C190.466 20.097 190.64 20.0362 190.813 20.0101C190.996 19.984 191.178 20.0101 191.343 20.0709L281.099 52.1666C281.316 52.2449 281.498 52.3927 281.637 52.5753C281.767 52.7666 281.837 52.9927 281.837 53.2188V126.706C281.837 126.888 281.793 127.062 281.715 127.227C281.628 127.384 281.516 127.523 281.368 127.627C281.22 127.732 281.047 127.793 280.873 127.819C280.699 127.845 280.517 127.827 280.343 127.767L190.588 95.6709C190.362 95.6014 190.171 95.4536 190.04 95.2709C189.902 95.0796 189.832 94.8535 189.832 94.6188L189.841 21.1231Z" fill="url(#paint0_linear_8757_21739)"/>
<path d="M224.852 57.2536C224.852 57.097 224.895 56.9405 224.964 56.8014C225.043 56.6623 225.147 56.5405 225.277 56.4449C225.399 56.3579 225.555 56.297 225.703 56.271C225.859 56.2536 226.024 56.2623 226.171 56.3144L262.557 69.3231C262.748 69.3927 262.913 69.5231 263.026 69.6884C263.147 69.8536 263.208 70.0536 263.208 70.2536V76.2188C263.208 78.2883 262.748 80.2883 259.222 79.0362L226.831 67.4536C226.25 67.2449 225.746 66.8623 225.39 66.3579C225.043 65.8536 224.852 65.2536 224.852 64.6362V57.2536Z" fill="white"/>
<path d="M224.852 71.6361C224.852 71.4796 224.886 71.3231 224.956 71.1839C225.034 71.0448 225.138 70.9231 225.268 70.8274C225.399 70.7405 225.546 70.6796 225.703 70.6535C225.859 70.6361 226.024 70.6535 226.171 70.7057L262.557 83.7144C262.748 83.7839 262.913 83.9057 263.026 84.0796C263.147 84.2448 263.208 84.4448 263.208 84.6448V90.61C263.208 92.6709 262.982 94.697 259.222 93.4187L226.831 81.8448C226.25 81.6361 225.746 81.2535 225.39 80.7491C225.043 80.2448 224.852 79.6448 224.852 79.0274V71.6361Z" fill="white"/>
<path d="M189.971 28L189.719 28.713L281.706 61.6L281.958 60.8957L189.971 28Z" fill="white"/>
<path d="M149.565 127.827L128.437 129.958C128.437 129.958 118.642 134.227 112.285 141.245C95.048 160.253 86.0776 186.262 82.8125 219.184H123.652C127.013 219.184 132.484 179.001 132.484 179.001C132.484 179.001 130.912 192.61 129.835 204.914C128.75 217.21 129.123 219.201 129.123 219.201H174.218C172.169 165.08 149.565 127.827 149.565 127.827Z" fill="#111111"/>
<path fill-rule="evenodd" clip-rule="evenodd" d="M231.201 96.697C230.914 98.1318 230.663 97.5579 228.049 97.097C226.251 96.7753 220.971 95.8362 218.002 97.8014L214.632 100.636L209.266 94.9405C209.266 94.9405 210.542 94.2796 214.198 91.6188C215.813 90.4362 218.418 87.3318 220.694 86.3231C222.387 85.5753 226.685 85.9666 227.345 85.6796C228.17 85.3318 228.822 84.7666 229.256 84.5144C230.671 83.7405 230.602 83.6709 232.338 83.0622C233.502 82.6622 234.093 83.4883 234.049 84.2275C234.006 84.7579 233.702 85.0622 232.738 85.7057C231.114 86.784 226.494 90.3666 227.215 92.5492C227.779 94.2275 231.496 95.2101 231.201 96.697ZM227.311 85.7579C226.659 86.1405 224.263 87.9057 224.263 87.9057L227.311 85.7579Z" fill="white"/>
<path fill-rule="evenodd" clip-rule="evenodd" d="M214.631 101.01C214.579 101.01 214.529 100.998 214.483 100.975C214.437 100.958 214.396 100.929 214.361 100.888L208.977 95.2013C208.937 95.1607 208.908 95.1115 208.891 95.0535C208.873 94.9955 208.867 94.9376 208.873 94.8796C208.891 94.8187 208.908 94.7665 208.943 94.7231C208.977 94.6709 209.021 94.6332 209.073 94.61C209.09 94.61 210.393 93.9231 213.962 91.3231C214.668 90.7607 215.337 90.1636 215.968 89.5318C217.392 88.1839 218.999 86.6535 220.527 85.9839C221.647 85.4796 223.688 85.4622 225.329 85.4448C226.085 85.4448 227.005 85.4187 227.187 85.3405C227.648 85.1318 228.082 84.8709 228.49 84.5665C228.675 84.4332 228.866 84.3086 229.063 84.1926C229.358 84.0274 229.593 83.897 229.793 83.7839C230.548 83.3318 231.356 82.9752 232.198 82.7144C232.458 82.6013 232.745 82.5578 233.023 82.5926C233.301 82.6187 233.579 82.7231 233.804 82.8796C234.013 83.0448 234.169 83.2535 234.273 83.497C234.378 83.7318 234.421 83.9926 234.404 84.2535C234.352 84.9926 233.9 85.3839 232.927 86.0274C230.557 87.61 227.005 90.7491 227.569 92.4361C227.787 93.097 228.681 93.6883 229.549 94.2622C230.644 94.9839 231.772 95.7318 231.555 96.7752C231.451 97.3144 231.33 97.6622 231.026 97.8535C230.678 98.0796 230.279 97.9752 229.523 97.7926C229.124 97.697 228.629 97.5752 227.969 97.4622C226.258 97.1491 221.065 96.2274 218.208 98.097L214.882 100.923C214.813 100.975 214.726 101.01 214.631 101.01ZM209.863 95.0274L214.674 100.114L217.774 97.5057L217.809 97.4796C220.9 95.4274 226.336 96.4013 228.134 96.7231C228.803 96.8448 229.324 96.9752 229.732 97.0709C230.14 97.1665 230.574 97.2796 230.652 97.2274C230.67 97.21 230.748 97.1318 230.843 96.6361C230.956 96.0883 230.036 95.4883 229.15 94.897C228.177 94.2535 227.179 93.5926 226.875 92.6796C225.92 89.8361 232.241 85.5665 232.519 85.4013C233.466 84.7665 233.631 84.5405 233.657 84.21C233.666 84.0709 233.648 83.9318 233.596 83.81C233.544 83.6796 233.466 83.5665 233.362 83.4796C233.223 83.3926 233.066 83.3491 232.91 83.3405C232.754 83.3318 232.589 83.3578 232.45 83.4274C231.651 83.6709 230.887 84.0013 230.175 84.4361C229.975 84.5491 229.732 84.6796 229.419 84.8535C229.28 84.9231 229.107 85.0448 228.915 85.1839C228.507 85.4883 228.073 85.7491 227.613 85.9752C227.584 86.0216 227.543 86.0593 227.491 86.0883C226.875 86.4622 224.504 88.1926 224.487 88.21C224.446 88.239 224.4 88.2593 224.348 88.2709C224.301 88.2883 224.252 88.2941 224.2 88.2883C224.154 88.2767 224.108 88.2593 224.061 88.2361C224.015 88.2071 223.977 88.1723 223.948 88.1318C223.919 88.0912 223.899 88.0448 223.888 87.9926C223.876 87.9463 223.873 87.897 223.879 87.8448C223.89 87.7984 223.911 87.752 223.94 87.7057C223.969 87.6651 224.003 87.6303 224.044 87.6013C224.105 87.5491 225.129 86.8013 226.015 86.1839H225.346C223.844 86.2013 221.821 86.2274 220.84 86.6622C219.433 87.2796 217.878 88.7578 216.498 90.0622C215.838 90.7231 215.143 91.3405 214.414 91.9144C211.887 93.7665 210.488 94.6535 209.863 95.0274Z" fill="#111111"/>
<path d="M145.239 184.862C145.855 186.993 146.507 191.271 147.887 191.41C149.277 191.558 148.261 184.358 148.261 184.358C148.261 184.358 150.128 191.523 151.639 190.949C153.349 190.297 151.039 183.236 151.039 183.236C151.769 183.784 152.403 184.445 152.906 185.201C154.07 186.923 154.991 188.21 155.729 187.662C156.753 186.88 156.033 184.645 154.539 182.427C153.236 180.497 152.029 178.445 152.125 178.219C152.95 176.427 156.449 176.958 156.163 175.332C155.989 174.349 154.574 174.871 152.655 174.749C151.005 174.645 149.129 174.106 148.07 173.74C144.744 172.636 140.74 170.184 140.74 170.184L136.008 173.427C136.008 173.427 140.107 177.027 141.765 181.601C143.615 186.749 143.146 188.636 143.945 189.375C144.961 190.323 145.959 187.654 145.239 184.862Z" fill="white"/>
<path fill-rule="evenodd" clip-rule="evenodd" d="M147.93 191.793H147.852C146.81 191.68 146.202 190.114 145.707 188.254C145.533 189.01 145.229 189.575 144.821 189.819C144.639 189.932 144.43 189.975 144.222 189.941C144.014 189.914 143.823 189.819 143.684 189.662C143.223 189.245 143.11 188.601 142.928 187.532C142.607 185.558 142.094 183.627 141.4 181.758C139.802 177.323 135.79 173.767 135.755 173.732C135.709 173.697 135.677 173.651 135.66 173.593C135.637 173.541 135.625 173.485 135.625 173.427C135.631 173.37 135.648 173.314 135.677 173.262C135.706 173.216 135.744 173.175 135.79 173.141L140.523 169.897C140.583 169.854 140.653 169.836 140.731 169.836C140.801 169.836 140.87 169.854 140.931 169.897C140.974 169.923 144.943 172.332 148.182 173.41C148.955 173.662 150.935 174.288 152.671 174.393C153.21 174.422 153.748 174.422 154.286 174.393C155.355 174.341 156.362 174.297 156.544 175.297C156.744 176.462 155.598 176.819 154.59 177.132C153.748 177.384 152.88 177.671 152.515 178.323C152.645 178.706 153.47 180.184 154.86 182.245C156.266 184.349 157.3 186.967 155.962 187.984C155.858 188.071 155.737 188.132 155.606 188.167C155.476 188.201 155.337 188.201 155.207 188.184C154.425 188.054 153.67 187.01 152.611 185.445C152.373 185.085 152.107 184.749 151.812 184.436C152.489 186.801 153.34 190.732 151.786 191.323C151.664 191.367 151.534 191.384 151.403 191.375C151.273 191.367 151.152 191.332 151.039 191.262C150.283 190.88 149.563 189.367 148.989 187.862C149.068 189.454 148.989 191.062 148.486 191.575C148.416 191.645 148.329 191.706 148.234 191.741C148.138 191.775 148.034 191.793 147.93 191.793ZM145.238 184.48C145.325 184.48 145.403 184.506 145.464 184.558C145.533 184.61 145.577 184.671 145.603 184.749C145.733 185.219 145.872 185.784 146.011 186.384C146.419 188.097 147.114 190.949 147.93 191.036C148.364 190.784 148.347 187.68 147.887 184.41C147.869 184.314 147.887 184.21 147.947 184.132C147.999 184.054 148.086 183.993 148.182 183.975C148.277 183.958 148.373 183.975 148.46 184.027C148.538 184.08 148.599 184.167 148.616 184.262C149.189 186.454 150.44 190.097 151.36 190.575C151.383 190.587 151.406 190.596 151.43 190.601C151.458 190.607 151.485 190.604 151.508 190.593C152.324 190.28 151.742 186.601 150.683 183.349C150.657 183.28 150.657 183.201 150.683 183.123C150.709 183.045 150.752 182.984 150.813 182.932C150.882 182.888 150.961 182.862 151.039 182.862C151.117 182.862 151.195 182.88 151.256 182.923C152.02 183.497 152.689 184.193 153.218 184.993C153.878 185.975 154.79 187.323 155.32 187.41C155.349 187.416 155.381 187.413 155.415 187.401C155.444 187.396 155.473 187.381 155.502 187.358C156.24 186.793 155.711 184.845 154.226 182.636C151.525 178.619 151.716 178.21 151.786 178.054C152.254 177.054 153.375 176.688 154.365 176.384C155.502 176.027 155.867 175.836 155.789 175.393C155.737 175.097 155.433 175.062 154.313 175.114C153.745 175.149 153.181 175.149 152.619 175.114C150.865 175.001 148.937 174.436 147.939 174.097C145.012 173.123 141.617 171.149 140.748 170.627L136.598 173.471C137.648 174.48 140.705 177.601 142.103 181.48C142.815 183.393 143.336 185.375 143.666 187.393C143.823 188.297 143.918 188.854 144.187 189.097C144.326 189.227 144.387 189.193 144.439 189.167C144.899 188.88 145.429 187.071 144.882 184.949C144.856 184.854 144.873 184.749 144.917 184.662C144.969 184.575 145.056 184.514 145.142 184.488C145.177 184.483 145.209 184.48 145.238 184.48Z" fill="#111111"/>
<path d="M140.638 80.1686C141.342 80.2072 142.221 80.4642 143.151 80.8365C145.007 81.5796 146.883 82.7051 147.69 83.1451V83.1432C147.748 83.1747 147.809 83.1995 147.849 83.2135C147.896 83.2304 147.949 83.2471 148 83.2633C148.063 83.2832 148.125 83.3033 148.186 83.3229C147.799 84.0262 147.082 85.3153 146.677 86.7408C146.182 88.4819 146.097 90.5946 147.609 92.3844L147.761 92.5563C148.401 93.256 149.344 93.688 150.41 93.9752C151.483 94.264 152.739 94.421 154.062 94.5309C156.747 94.7538 159.689 94.7854 162.282 95.2496C169.328 96.5151 174.419 97.9127 177.949 98.9791C178.832 99.2459 179.618 99.4917 180.314 99.7106C181.009 99.929 181.618 100.122 182.141 100.279C182.662 100.436 183.11 100.56 183.482 100.642C183.755 100.702 184.01 100.745 184.237 100.755L184.454 100.753C185.735 100.662 187.331 100.174 189.166 99.4987C191.004 98.8228 193.164 97.9276 195.544 97.0084C200.266 95.1847 205.987 93.2152 212.456 92.3766C212.467 92.3911 212.479 92.4062 212.491 92.4225C212.621 92.5954 212.804 92.8468 213.021 93.1539C213.456 93.7669 214.025 94.5889 214.592 95.4156C215.158 96.2422 215.72 97.0716 216.14 97.6998C216.35 98.0142 216.523 98.2768 216.643 98.4625C216.675 98.5134 216.703 98.558 216.727 98.5953C215.765 103.948 210.943 107.877 205.546 110.689C200.119 113.516 194.283 115.127 191.708 115.905L191.707 115.906C185.947 117.651 179.417 117.594 174.009 116.99C168.603 116.386 164.371 115.241 163.237 114.85H163.236C162.676 114.658 162.042 114.344 161.494 114.081C161.231 113.954 160.977 113.833 160.777 113.756C160.681 113.72 160.568 113.682 160.461 113.665C160.408 113.656 160.327 113.647 160.237 113.661C160.146 113.674 159.994 113.719 159.879 113.863L159.873 113.87C157.943 116.375 154.632 122.729 147.262 128.489L146.536 129.045C144.692 130.423 143.108 131.08 141.759 131.304C140.414 131.528 139.272 131.329 138.299 130.948C137.319 130.565 136.503 129.995 135.816 129.469C135.486 129.216 135.154 128.948 134.881 128.747C134.609 128.546 134.32 128.353 134.039 128.258L134.025 128.254L134.011 128.25L133.945 128.236C133.796 128.215 133.679 128.267 133.626 128.297C133.562 128.332 133.519 128.374 133.497 128.396C133.452 128.442 133.418 128.492 133.398 128.523C133.355 128.59 133.309 128.676 133.265 128.765C133.173 128.949 133.055 129.21 132.922 129.52C132.654 130.142 132.306 130.996 131.937 131.915C131.195 133.76 130.369 135.863 129.903 136.942V136.943C128.919 139.235 128.009 141.347 127.365 143.019C127.044 143.855 126.784 144.592 126.614 145.193C126.53 145.493 126.465 145.767 126.427 146.008C126.39 146.243 126.372 146.477 126.402 146.683L126.403 146.682C126.439 146.933 126.563 147.211 126.711 147.481C126.867 147.765 127.079 148.091 127.331 148.446C127.836 149.157 128.527 150.016 129.326 150.945C130.725 152.573 132.472 154.438 134.169 156.142L134.892 156.862C140.268 162.177 144.569 169.159 146.032 173.301C145.746 173.84 144.772 175.396 143.357 176.73C141.885 178.119 140.046 179.169 138.072 178.789C131.209 177.469 123.616 172.907 117.594 167.337C114.587 164.556 111.987 161.536 110.075 158.568C108.279 155.78 107.107 153.063 106.753 150.647L106.692 150.168C106.292 146.284 106.751 139.627 108.587 132.289C110.421 124.956 113.618 116.988 118.66 110.464L118.661 110.464C122.989 104.88 126.938 101.639 130.085 99.485C131.664 98.4045 133.039 97.5983 134.186 96.8942C135.313 96.2015 136.256 95.5862 136.886 94.9059L136.887 94.9049C137.808 93.9037 138.32 92.6094 138.605 91.2389C138.891 89.8678 138.958 88.3834 138.962 86.9723C138.966 85.5257 138.908 84.2291 138.934 83.0709C138.946 82.505 138.979 82.0071 139.047 81.5885C139.115 81.1651 139.213 80.8558 139.337 80.6471L139.338 80.6461C139.535 80.3111 139.93 80.1298 140.638 80.1686Z" fill="white" stroke="#111111"/>
<path d="M142.487 86.61C145.344 88.4274 148.982 88.7144 151.283 86.0796C152.404 84.7926 153.611 82.9057 153.671 78.5665C153.732 74.5665 151.266 68.7144 145.022 68.5752C141.184 68.4796 134.932 76.0448 134.28 78.9231C133.933 80.4622 133.786 82.4709 134.749 83.8361C136.521 86.3144 138.987 85.6187 139.517 84.5665L142.487 86.61Z" fill="white"/>
<path fill-rule="evenodd" clip-rule="evenodd" d="M146.942 88.4014C145.283 88.3666 143.668 87.8536 142.279 86.9319L139.622 85.0971C139.161 85.584 138.527 85.871 137.867 85.9058C136.608 86.0014 135.358 85.3319 134.455 84.0623C133.378 82.5579 133.578 80.3927 133.925 78.8449C134.628 75.7145 140.924 68.2014 144.962 68.2014H145.032C151.709 68.3579 154.106 74.6536 154.063 78.5753C154.002 82.9753 152.778 84.9666 151.579 86.3319C151.006 87.0014 150.294 87.5232 149.486 87.8884C148.688 88.2449 147.819 88.4188 146.942 88.4014ZM142.687 86.2971C145.04 87.784 148.627 88.5579 150.997 85.8275C152.1 84.5753 153.238 82.7145 153.299 78.5579C153.351 74.9232 151.145 69.0884 145.023 68.9492C141.437 68.8623 135.297 76.184 134.654 78.9927C134.342 80.3927 134.16 82.3319 135.063 83.6101C136.096 85.0449 137.225 85.184 137.807 85.1319C138.527 85.0797 139.022 84.7145 139.187 84.384C139.213 84.3319 139.248 84.2884 139.283 84.2536C139.329 84.2246 139.378 84.2014 139.431 84.184C139.483 84.1724 139.535 84.1724 139.587 84.184C139.645 84.1898 139.694 84.2101 139.735 84.2449L142.687 86.2971Z" fill="#111111"/>
<path d="M133.445 131.132C133.367 131.471 133.393 131.819 133.515 132.149C133.636 132.471 133.845 132.758 134.123 132.967C135.208 133.793 137.275 134.88 140.288 134.462C144.491 133.88 148.694 130.88 149.519 130.262C149.612 130.187 149.699 130.103 149.78 130.01C150.935 128.714 160.287 118.062 162.362 111.088C163.943 105.758 161.19 98.1144 158.29 93.6709C158.055 93.3144 155.928 92.8361 154.556 93.1752C153.783 93.3665 153.67 93.4883 154.53 94.7839C154.938 95.4013 155.329 96.0187 155.589 96.5231C157.091 99.3752 157.968 102.801 158.255 104.062C158.333 104.375 158.324 104.697 158.229 105.01C157.76 106.549 156.579 109.958 152.888 111.827C149.797 113.384 145.403 115.019 142.52 113.74C141.634 113.349 140.679 108.297 140.088 106.071C138.716 100.94 136.32 99.1318 134.887 98.0187C133.923 97.2622 133.124 96.2361 130.128 98.5144C129.529 98.9665 128.296 100.81 129.503 101.349C130.059 101.593 130.58 101.923 131.04 102.34C137.813 108.497 134.409 126.653 133.445 131.132Z" fill="#111111"/>
<path d="M136.383 82.4448C136.383 83.7318 137.711 83.584 137.711 83.584L136.383 82.4448Z" fill="white"/>
<path d="M137.597 83.9666C137.188 83.9753 136.78 83.8448 136.468 83.5753C136.311 83.4361 136.19 83.2622 136.112 83.0622C136.033 82.8709 135.999 82.6622 136.016 82.4448C136.016 82.3492 136.051 82.2535 136.12 82.184C136.19 82.1144 136.285 82.0709 136.39 82.0709C136.485 82.0709 136.581 82.1144 136.659 82.184C136.728 82.2535 136.763 82.3492 136.763 82.4448C136.754 82.5492 136.772 82.6535 136.806 82.7579C136.841 82.8535 136.893 82.9405 136.963 83.0188C137.171 83.1666 137.432 83.2361 137.683 83.2101C137.779 83.2014 137.883 83.2274 137.961 83.297C138.039 83.3579 138.092 83.4535 138.1 83.5492C138.109 83.6535 138.083 83.7492 138.013 83.8274C137.953 83.9057 137.857 83.9579 137.762 83.9666C137.709 83.9666 137.654 83.9666 137.597 83.9666Z" fill="#111111"/>
<path d="M141.853 75.0883C141.775 75.097 141.706 75.0709 141.645 75.0362C141.584 74.9927 141.541 74.9405 141.506 74.8796C141.48 74.8101 141.471 74.7405 141.48 74.6709C141.489 74.5927 141.515 74.5318 141.567 74.4709C142.539 73.3231 144.102 72.9492 144.997 73.2709C145.049 73.2825 145.095 73.3057 145.136 73.3405C145.176 73.3695 145.208 73.4072 145.231 73.4535C145.254 73.4999 145.269 73.5492 145.275 73.6014C145.28 73.6535 145.275 73.7057 145.257 73.7579C145.24 73.8043 145.211 73.8477 145.17 73.8883C145.136 73.9231 145.095 73.9521 145.049 73.9753C145.003 73.9985 144.953 74.0101 144.901 74.0101C144.849 74.0101 144.797 73.9985 144.745 73.9753C144.18 73.7753 142.913 74.0535 142.14 74.9579C142.105 75.0043 142.062 75.0391 142.01 75.0622C141.957 75.0854 141.905 75.0941 141.853 75.0883Z" fill="#111111"/>
<path d="M142.227 78.097C142.227 78.097 142.93 76.9666 143.929 76.7579C144.206 76.7405 144.484 76.8014 144.719 76.9492C144.858 77.0101 145.474 76.4796 145.474 76.4796L142.227 78.097Z" fill="white"/>
<path d="M142.224 78.4797C142.155 78.4797 142.085 78.4623 142.025 78.4188C141.938 78.3667 141.877 78.2884 141.86 78.184C141.834 78.0884 141.851 77.984 141.903 77.9058C141.938 77.8536 142.711 76.6275 143.848 76.3927C144.161 76.358 144.473 76.4101 144.751 76.558C144.913 76.4536 145.067 76.3348 145.212 76.2014C145.29 76.1406 145.385 76.1058 145.489 76.1145C145.585 76.1145 145.68 76.1667 145.75 76.2362C145.811 76.3145 145.845 76.4101 145.845 76.5145C145.837 76.6101 145.793 76.7058 145.715 76.7754C144.986 77.4101 144.751 77.384 144.569 77.2971C144.204 77.1232 144.065 77.1232 144.013 77.1319C143.327 77.2797 142.719 78.0362 142.554 78.3145C142.511 78.3667 142.467 78.4101 142.407 78.4362C142.349 78.4652 142.288 78.4797 142.224 78.4797Z" fill="#111111"/>
<path d="M148.851 79.2883C148.781 79.2883 148.703 79.2709 148.642 79.2274C148.581 79.1926 148.538 79.1318 148.503 79.0709C148.477 79.0013 148.468 78.9231 148.477 78.8535C148.495 78.7839 148.521 78.7144 148.573 78.6622C148.573 78.6622 149.259 77.8883 148.937 77.2883C148.903 77.2187 148.868 77.2013 148.659 77.1492C148.303 77.0448 147.756 76.897 147.496 75.8883C147.305 75.1926 147.305 72.8796 148.894 72.01C148.94 71.9868 148.989 71.9695 149.042 71.9579C149.088 71.9521 149.137 71.9579 149.189 71.9753C149.236 71.9868 149.279 72.0071 149.319 72.0361C149.36 72.0709 149.392 72.1115 149.415 72.1579C149.444 72.1984 149.458 72.2448 149.458 72.297C149.464 72.3492 149.461 72.3984 149.45 72.4448C149.432 72.497 149.406 72.5405 149.372 72.5753C149.343 72.6158 149.305 72.6477 149.259 72.6709C148.06 73.3231 148.095 75.2448 148.217 75.697C148.373 76.2796 148.564 76.3318 148.859 76.41C149.007 76.4274 149.154 76.4883 149.285 76.5753C149.415 76.6622 149.528 76.7753 149.606 76.9144C150.188 77.9839 149.181 79.1057 149.137 79.1492C149.102 79.1955 149.059 79.2303 149.007 79.2535C148.961 79.2767 148.908 79.2883 148.851 79.2883Z" fill="#111111"/>
<path d="M147.801 81.9926C147.063 81.9926 146.351 81.7666 145.752 81.3405C145.712 81.3115 145.68 81.2738 145.657 81.2274C145.628 81.1868 145.61 81.1405 145.604 81.0883C145.599 81.0419 145.602 80.9955 145.613 80.9492C145.625 80.897 145.645 80.8506 145.674 80.81C145.703 80.7752 145.741 80.7434 145.787 80.7144C145.827 80.6912 145.874 80.6738 145.926 80.6622C145.972 80.6564 146.021 80.6593 146.073 80.6709C146.12 80.6883 146.163 80.7115 146.204 80.7405C146.733 81.1144 147.376 81.2883 148.019 81.2361C148.296 81.2274 148.557 81.1231 148.774 80.9579C148.852 80.897 148.948 80.8709 149.043 80.8883C149.139 80.897 149.226 80.9492 149.286 81.0187C149.347 81.097 149.373 81.1839 149.373 81.2796C149.365 81.3752 149.33 81.4709 149.26 81.5318C148.93 81.8013 148.531 81.9579 148.105 81.9926C148.007 81.9984 147.906 81.9984 147.801 81.9926Z" fill="#111111"/>
<path d="M144.519 77.6101C144.528 77.1579 144.302 76.7753 143.998 76.7753C143.703 76.7666 143.451 77.1318 143.434 77.584C143.425 78.0449 143.66 78.4188 143.955 78.4275C144.259 78.4362 144.511 78.0709 144.519 77.6101Z" fill="#111111"/>
<path d="M151.169 75.2362C151.178 74.784 150.969 74.4101 150.7 74.4014C150.431 74.3927 150.205 74.7579 150.196 75.2188C150.179 75.671 150.387 76.0449 150.657 76.0536C150.926 76.0623 151.16 75.6971 151.169 75.2362Z" fill="#111111"/>
<path d="M148.983 76.1231C148.913 76.1231 148.853 76.1057 148.792 76.071C148.731 76.0362 148.688 75.9927 148.653 75.9318C148.618 75.871 148.609 75.8101 148.609 75.7405C148.609 75.671 148.627 75.6101 148.661 75.5492C148.696 75.497 149.469 74.2796 150.607 74.0449C150.919 74.0014 151.232 74.0623 151.51 74.2101C151.672 74.0999 151.825 73.9811 151.97 73.8536C152.011 73.8188 152.054 73.7927 152.1 73.7753C152.147 73.7579 152.196 73.7521 152.248 73.7579C152.294 73.7579 152.341 73.7695 152.387 73.7927C152.433 73.8159 152.474 73.8478 152.508 73.8883C152.537 73.9231 152.561 73.9637 152.578 74.0101C152.595 74.0565 152.601 74.1057 152.595 74.1579C152.595 74.2101 152.584 74.2594 152.561 74.3057C152.537 74.3463 152.508 74.384 152.474 74.4188C151.744 75.0623 151.501 75.0275 151.327 74.9405C150.963 74.7753 150.824 74.7666 150.772 74.784C149.947 74.9579 149.313 75.9492 149.304 75.9579C149.269 76.0101 149.217 76.0536 149.165 76.0883C149.107 76.1173 149.046 76.1289 148.983 76.1231Z" fill="#111111"/>
<path d="M137.744 68.5057C136.824 68.9927 135.99 69.6274 135.269 70.3753C134.114 69.7492 132.777 69.5144 131.475 69.7231C131.139 69.7753 130.812 69.8535 130.493 69.9579C130.198 68.8883 129.555 67.9405 128.652 67.2883C127.758 66.6361 126.664 66.3144 125.552 66.3666C125.735 65.9057 125.795 65.4013 125.726 64.9144C125.665 64.5318 125.535 64.1579 125.326 63.8274C125.127 63.4883 124.857 63.2014 124.545 62.9753C124.224 62.7492 123.868 62.584 123.494 62.497C123.112 62.41 122.721 62.4013 122.33 62.4622C121.549 62.5753 120.846 62.9927 120.359 63.6187C119.882 64.2535 119.673 65.0448 119.769 65.8361C119.847 66.384 120.09 66.897 120.455 67.3144C120.819 67.7405 121.297 68.0448 121.835 68.1927C121.193 68.9318 120.793 69.8448 120.689 70.8187C120.585 71.7927 120.776 72.7753 121.245 73.6361C121.705 74.4883 122.426 75.1927 123.294 75.6274C124.163 76.0709 125.153 76.2361 126.117 76.1057C126.117 76.4303 126.137 76.7492 126.177 77.0622C126.681 80.6014 129.842 83.0274 133.255 82.5057C133.48 82.4709 133.689 82.3753 133.863 82.2361C133.926 82.3521 134.004 82.4535 134.097 82.5405C134.488 82.8535 134.175 81.8013 135.704 80.784C137.293 79.7231 137.492 80.7057 138.239 80.1753C141.035 78.184 142.39 76.6361 144.153 74.184C145.36 72.5144 146.324 70.6883 147.027 68.7579L150.9 70.8448C149.858 68.4622 144.153 65.0622 137.744 68.5057Z" fill="#111111"/>
<path d="M146.663 101.575C143.085 101.575 139.716 99.3405 137.701 96.6883C137.672 96.6477 137.652 96.6042 137.641 96.5579C137.623 96.5057 137.617 96.4564 137.623 96.41C137.635 96.3579 137.652 96.3115 137.675 96.2709C137.699 96.2245 137.73 96.1868 137.771 96.1579C137.811 96.1289 137.855 96.1086 137.901 96.097C137.953 96.0796 138.002 96.0738 138.049 96.0796C138.101 96.0912 138.147 96.1086 138.188 96.1318C138.234 96.155 138.272 96.1868 138.301 96.2274C140.81 99.5318 145.517 102.149 149.92 100.097C150.71 99.7318 151.674 99.0883 151.778 98.0535C151.873 97.0187 151.083 95.8013 149.459 94.5752C149.381 94.5057 149.338 94.4187 149.32 94.3231C149.312 94.2274 149.338 94.1318 149.398 94.0535C149.459 93.9752 149.546 93.9231 149.642 93.9057C149.737 93.8883 149.833 93.9144 149.911 93.9752C152.247 95.7405 152.62 97.21 152.525 98.1405C152.412 99.2187 151.622 100.149 150.232 100.784C149.121 101.306 147.896 101.584 146.663 101.575Z" fill="white"/>
<path d="M140.34 134.741C138.281 134.732 136.232 134.454 134.243 133.906C134.148 133.88 134.061 133.81 134.018 133.723C133.966 133.636 133.957 133.541 133.983 133.436C134.009 133.341 134.07 133.262 134.157 133.21C134.243 133.158 134.348 133.149 134.443 133.175C140.296 134.801 146.453 133.949 150.5 130.949C150.534 130.92 150.578 130.897 150.63 130.88C150.682 130.868 150.731 130.865 150.777 130.871C150.83 130.877 150.879 130.894 150.925 130.923C150.971 130.946 151.009 130.978 151.038 131.019C151.067 131.059 151.087 131.106 151.099 131.158C151.11 131.21 151.113 131.259 151.107 131.306C151.096 131.358 151.076 131.407 151.047 131.454C151.018 131.494 150.983 131.529 150.942 131.558C148.129 133.645 144.343 134.741 140.34 134.741Z" fill="white"/>
<path d="M140.42 137.219C137.988 137.245 135.565 136.923 133.229 136.262C133.134 136.236 133.056 136.167 133.004 136.08C132.96 135.993 132.952 135.888 132.986 135.793C133.012 135.697 133.082 135.619 133.169 135.575C133.255 135.523 133.36 135.514 133.455 135.549C136.547 136.384 139.768 136.662 142.955 136.349C148.643 135.81 151.049 132.941 151.075 132.906C151.144 132.836 151.231 132.801 151.326 132.793C151.422 132.784 151.518 132.819 151.587 132.88C151.665 132.932 151.709 133.019 151.726 133.114C151.735 133.21 151.717 133.306 151.656 133.384C151.552 133.514 149.051 136.532 143.025 137.106C142.122 137.184 141.245 137.219 140.42 137.219Z" fill="white"/>
<path d="M231.746 78.9405C231.746 78.6449 231.833 78.3492 231.998 78.1057C232.163 77.8536 232.397 77.6623 232.675 77.5492C232.944 77.4362 233.248 77.4014 233.544 77.4623C233.839 77.5231 234.099 77.6623 234.316 77.871C234.525 78.0883 234.664 78.3492 234.725 78.6449C234.785 78.9405 234.751 79.2449 234.638 79.5144C234.525 79.7927 234.334 80.0275 234.082 80.1927C233.839 80.3579 233.544 80.4449 233.248 80.4449C232.849 80.4449 232.467 80.2883 232.18 80.0014C231.902 79.7231 231.746 79.3405 231.746 78.9405Z" fill="white"/>
<path fill-rule="evenodd" clip-rule="evenodd" d="M233.257 80.8362C232.884 80.8362 232.519 80.7231 232.207 80.5144C231.894 80.3057 231.651 80.0101 231.512 79.6622C231.364 79.3144 231.33 78.9405 231.408 78.5666C231.477 78.2014 231.66 77.8622 231.92 77.6014C232.189 77.3318 232.519 77.1579 232.893 77.0796C233.257 77.0101 233.64 77.0448 233.987 77.1927C234.326 77.3318 234.621 77.5753 234.829 77.8883C235.038 78.2014 235.15 78.5666 235.15 78.9405C235.15 79.4448 234.951 79.9231 234.595 80.2796C234.239 80.6362 233.761 80.8362 233.257 80.8362ZM233.257 77.8014C233.032 77.8014 232.815 77.8709 232.624 77.9927C232.441 78.1231 232.294 78.297 232.207 78.5057C232.12 78.7144 232.102 78.9405 232.146 79.1666C232.189 79.384 232.294 79.5927 232.459 79.7492C232.615 79.9057 232.815 80.0188 233.04 80.0622C233.257 80.1057 233.492 80.0796 233.7 79.9927C233.909 79.9057 234.082 79.7579 234.204 79.5753C234.334 79.384 234.395 79.1666 234.395 78.9405C234.395 78.6362 234.273 78.3492 234.065 78.1318C233.848 77.9231 233.561 77.8014 233.257 77.8014Z" fill="#111111"/>
<path d="M236.738 80.7666C236.738 80.4622 236.834 80.1753 236.999 79.9231C237.164 79.6796 237.398 79.4883 237.667 79.3666C237.945 79.2535 238.249 79.2274 238.536 79.2883C238.831 79.3405 239.1 79.4883 239.309 79.697C239.517 79.9057 239.665 80.1753 239.726 80.4709C239.778 80.7579 239.752 81.0622 239.639 81.3405C239.526 81.6187 239.326 81.8535 239.083 82.0187C238.831 82.184 238.545 82.2709 238.249 82.2709C237.85 82.2709 237.468 82.1144 237.181 81.8274C236.903 81.5492 236.738 81.1666 236.738 80.7666Z" fill="white"/>
<path fill-rule="evenodd" clip-rule="evenodd" d="M238.26 82.6536C237.878 82.6536 237.513 82.5492 237.21 82.3405C236.897 82.1318 236.654 81.8362 236.506 81.4884C236.367 81.1405 236.332 80.7579 236.402 80.3927C236.471 80.0275 236.654 79.6884 236.923 79.4275C237.183 79.1579 237.522 78.9753 237.887 78.9058C238.252 78.8362 238.634 78.871 238.981 79.0101C239.328 79.1579 239.624 79.4014 239.832 79.7145C240.04 80.0188 240.145 80.3927 240.145 80.7666C240.145 81.2623 239.945 81.7492 239.589 82.1058C239.242 82.4536 238.755 82.6536 238.26 82.6536ZM238.26 79.6188C238.034 79.6188 237.809 79.6884 237.626 79.8188C237.435 79.9405 237.288 80.1144 237.201 80.3231C237.114 80.5318 237.097 80.7666 237.14 80.984C237.183 81.2101 237.288 81.4101 237.453 81.5666C237.609 81.7318 237.809 81.8362 238.034 81.8797C238.252 81.9231 238.486 81.9058 238.694 81.8188C238.903 81.7318 239.077 81.584 239.207 81.3927C239.328 81.2101 239.398 80.9927 239.398 80.7666C239.398 80.4623 239.276 80.1753 239.059 79.9579C238.851 79.7405 238.556 79.6275 238.26 79.6188Z" fill="#111111"/>
<path d="M241.742 82.584C241.742 82.2883 241.829 82.0014 241.994 81.7492C242.159 81.5057 242.393 81.3057 242.671 81.1927C242.941 81.0796 243.245 81.0536 243.54 81.1057C243.826 81.1666 244.096 81.3144 244.313 81.5231C244.521 81.7318 244.66 82.0014 244.721 82.2883C244.782 82.584 244.747 82.8883 244.634 83.1666C244.521 83.4362 244.33 83.6709 244.078 83.8362C243.835 84.0014 243.54 84.097 243.244 84.097C242.845 84.097 242.463 83.9318 242.176 83.6536C241.898 83.3666 241.742 82.984 241.742 82.584Z" fill="white"/>
<path fill-rule="evenodd" clip-rule="evenodd" d="M243.252 84.4796C242.879 84.4796 242.514 84.3665 242.201 84.1578C241.889 83.9492 241.646 83.6535 241.507 83.3057C241.359 82.9578 241.324 82.5839 241.394 82.21C241.472 81.8448 241.646 81.5057 241.915 81.2448C242.175 80.9752 242.514 80.8013 242.887 80.7231C243.252 80.6535 243.634 80.6883 243.973 80.8361C244.32 80.9752 244.615 81.2187 244.824 81.5318C245.032 81.8448 245.145 82.21 245.145 82.5839C245.145 83.0883 244.945 83.5665 244.589 83.9231C244.233 84.2796 243.756 84.4796 243.252 84.4796ZM243.252 81.4448C243.026 81.4448 242.809 81.5144 242.618 81.6361C242.436 81.7665 242.288 81.9405 242.201 82.1492C242.115 82.3579 242.088 82.5839 242.132 82.81C242.175 83.0274 242.288 83.2361 242.445 83.3926C242.61 83.5492 242.809 83.6622 243.026 83.7057C243.252 83.7492 243.478 83.7231 243.686 83.6361C243.895 83.5578 244.068 83.41 244.199 83.2187C244.32 83.0361 244.39 82.81 244.39 82.5839C244.39 82.4361 244.364 82.2883 244.303 82.1492C244.242 82.01 244.164 81.8883 244.06 81.7752C243.947 81.6709 243.825 81.5926 243.686 81.5318C243.547 81.4709 243.4 81.4448 243.252 81.4448Z" fill="#111111"/>
<path d="M246.734 84.3753C246.734 84.071 246.821 83.784 246.986 83.5319C247.151 83.2884 247.386 83.0971 247.664 82.984C247.941 82.8623 248.237 82.8362 248.532 82.8971C248.827 82.9492 249.096 83.0971 249.305 83.3058C249.513 83.5145 249.661 83.784 249.713 84.0797C249.774 84.3666 249.748 84.671 249.626 84.9492C249.513 85.2275 249.322 85.4623 249.079 85.6275C248.827 85.7927 248.541 85.8797 248.237 85.8797C247.837 85.8797 247.455 85.7232 247.177 85.4362C246.891 85.1579 246.734 84.7753 246.734 84.3753Z" fill="white"/>
<path fill-rule="evenodd" clip-rule="evenodd" d="M248.236 86.2622C247.863 86.2622 247.498 86.1579 247.186 85.9492C246.873 85.7405 246.63 85.4448 246.491 85.097C246.343 84.7492 246.309 84.3753 246.378 84.0014C246.456 83.6361 246.63 83.297 246.899 83.0361C247.16 82.7666 247.498 82.5927 247.863 82.5144C248.236 82.4448 248.61 82.4796 248.957 82.6187C249.305 82.7666 249.6 83.01 249.808 83.3231C250.017 83.6274 250.13 84.0014 250.13 84.3753C250.13 84.8709 249.93 85.3579 249.574 85.7057C249.218 86.0622 248.74 86.2622 248.236 86.2622ZM248.236 83.2361C248.011 83.2274 247.794 83.297 247.603 83.4187C247.42 83.5492 247.273 83.7231 247.186 83.9318C247.099 84.1405 247.073 84.3753 247.116 84.5927C247.16 84.8187 247.273 85.0187 247.429 85.1753C247.594 85.3405 247.794 85.4448 248.011 85.4883C248.237 85.5318 248.462 85.5144 248.671 85.4274C248.879 85.3405 249.061 85.1927 249.183 85.01C249.305 84.8187 249.374 84.6014 249.374 84.3753C249.374 84.0709 249.253 83.784 249.044 83.5666C248.827 83.3579 248.54 83.2361 248.236 83.2361Z" fill="#111111"/>
<path d="M251.727 86.1926C251.727 85.897 251.822 85.61 251.987 85.3578C252.152 85.1144 252.387 84.9144 252.656 84.8013C252.934 84.6883 253.238 84.6622 253.524 84.7144C253.819 84.7752 254.089 84.9231 254.297 85.1318C254.505 85.3405 254.653 85.61 254.714 85.9057C254.766 86.1926 254.74 86.497 254.627 86.7752C254.514 87.0448 254.314 87.2796 254.071 87.4448C253.819 87.61 253.533 87.7057 253.238 87.7057C252.838 87.7057 252.456 87.5405 252.169 87.2622C251.892 86.9752 251.727 86.5926 251.727 86.1926Z" fill="white"/>
<path fill-rule="evenodd" clip-rule="evenodd" d="M253.256 88.0797C252.883 88.0797 252.518 87.9666 252.205 87.7666C251.893 87.5579 251.65 87.2623 251.511 86.9145C251.363 86.5666 251.328 86.184 251.398 85.8188C251.476 85.4536 251.658 85.1145 251.919 84.8449C252.188 84.584 252.518 84.4014 252.891 84.3319C253.256 84.2536 253.638 84.2971 253.985 84.4362C254.324 84.584 254.619 84.8275 254.828 85.1406C255.036 85.4536 255.149 85.8188 255.149 86.1927C255.149 86.6884 254.949 87.1753 254.593 87.5319C254.237 87.8797 253.76 88.0797 253.256 88.0797ZM253.256 85.071C253.03 85.071 252.813 85.1319 252.622 85.2623C252.44 85.384 252.292 85.5666 252.205 85.7753C252.118 85.984 252.092 86.2101 252.136 86.4275C252.179 86.6536 252.292 86.8536 252.448 87.0101C252.613 87.1753 252.813 87.2797 253.03 87.3232C253.256 87.3666 253.482 87.3493 253.69 87.2623C253.899 87.1753 254.081 87.0275 254.203 86.8449C254.324 86.6536 254.394 86.4362 254.394 86.2101C254.394 85.9058 254.272 85.6188 254.064 85.4014C253.847 85.1927 253.56 85.071 253.256 85.071Z" fill="#111111"/>
<path fill-rule="evenodd" clip-rule="evenodd" d="M259.258 101.514C260.004 103.262 260.204 105.532 260.248 107.375C261.307 107.567 262.766 109.062 262.766 109.888V127.914C262.766 128.314 262.601 128.697 262.323 128.984C262.036 129.262 261.646 129.419 261.246 129.419H238.034C237.635 129.419 237.244 129.262 236.966 128.984C236.68 128.697 236.523 128.314 236.523 127.914V109.888C236.523 109.697 236.558 109.497 236.636 109.314C236.714 109.123 236.819 108.958 236.958 108.819C237.105 108.68 237.27 108.567 237.453 108.488C237.635 108.41 237.835 108.375 238.034 108.375H239.328C239.346 107.827 239.311 107.775 239.346 107.114C239.554 102.688 241.074 95.3145 249.949 95.3145C255.333 95.3145 257.868 98.2797 259.258 101.514ZM244.087 108.367H255.671C255.801 105.114 255.315 99.2362 249.905 99.2362C244.408 99.2362 243.939 105.114 244.087 108.367Z" fill="#111111"/>
<path fill-rule="evenodd" clip-rule="evenodd" d="M258.416 107.914H259.094C259.884 107.914 260.518 108.549 260.518 109.341V126.245C260.518 127.036 259.884 127.671 259.094 127.671H237.315C236.525 127.671 235.891 127.036 235.891 126.245V109.341C235.891 108.549 236.525 107.914 237.315 107.914H238.392C239.008 101.054 241.526 94.9927 248.56 94.9927C253.223 94.9927 258.321 97.0448 258.416 107.914ZM242.959 107.914H254.17C254.135 104.332 253.31 98.6709 248.517 98.6709C243.654 98.6709 242.924 104.332 242.959 107.914Z" fill="white"/>
<path fill-rule="evenodd" clip-rule="evenodd" d="M258.416 107.914H259.094C259.884 107.914 260.518 108.549 260.518 109.341V126.245C260.518 127.036 259.884 127.671 259.094 127.671H237.315C236.525 127.671 235.891 127.036 235.891 126.245V109.341C235.891 108.549 236.525 107.914 237.315 107.914H238.392C239.008 101.054 241.526 94.9927 248.56 94.9927C253.223 94.9927 258.321 97.0448 258.416 107.914ZM257.73 108.61L257.722 107.923C257.678 102.575 256.402 99.5579 254.708 97.8709C253.024 96.1753 250.801 95.6883 248.56 95.6883C245.286 95.6883 243.107 97.0796 241.648 99.2622C240.154 101.497 239.39 104.593 239.086 107.975L239.034 108.61H237.315C236.915 108.61 236.585 108.941 236.585 109.341V126.245C236.585 126.654 236.915 126.975 237.315 126.975H259.094C259.502 126.975 259.823 126.654 259.823 126.245V109.341C259.823 108.941 259.502 108.61 259.094 108.61H257.73ZM254.873 108.61H242.273L242.265 107.923C242.247 106.097 242.421 103.671 243.263 101.68C243.689 100.671 244.297 99.7405 245.174 99.0622C246.051 98.3753 247.162 97.9753 248.526 97.9753C249.872 97.9753 250.974 98.3753 251.851 99.0622C252.72 99.7405 253.336 100.671 253.771 101.671C254.639 103.662 254.847 106.088 254.873 107.906V108.61ZM254.17 107.914C254.164 107.688 254.158 107.456 254.153 107.219C254.014 103.645 253.006 98.6709 248.517 98.6709C243.958 98.6709 243.029 103.645 242.959 107.219C242.953 107.329 242.951 107.439 242.951 107.549C242.951 107.671 242.951 107.793 242.951 107.914H254.17Z" fill="#111111"/>
<path fill-rule="evenodd" clip-rule="evenodd" d="M245.379 115.436C245.379 113.827 246.681 112.523 248.288 112.523C249.894 112.523 251.197 113.827 251.197 115.436C251.197 116.288 250.832 117.062 250.242 117.593L251.449 121.801C251.64 122.462 251.145 123.132 250.45 123.132H245.961C245.266 123.132 244.762 122.462 244.962 121.793C245.301 120.627 245.891 118.61 246.213 117.48C245.7 116.949 245.379 116.227 245.379 115.436ZM248.288 113.219C247.064 113.219 246.074 114.21 246.074 115.436C246.074 116.106 246.369 116.697 246.829 117.106L246.994 117.254L246.942 117.462C246.638 118.54 245.987 120.758 245.631 121.993C245.561 122.21 245.726 122.436 245.961 122.436H250.45C250.685 122.436 250.85 122.21 250.78 121.993L249.443 117.34L249.634 117.201C250.164 116.793 250.502 116.149 250.502 115.436C250.502 114.21 249.512 113.219 248.288 113.219Z" fill="#111111"/>
<path d="M273.419 149.262C273.419 149.262 243.694 148.323 226.318 154.714C206.267 162.088 194.761 173.219 187.692 186.906C178.739 204.227 180.129 219.271 180.129 219.271L273.419 149.262Z" fill="white"/>
<path d="M180.122 219.645C180.035 219.645 179.94 219.61 179.87 219.549C179.801 219.48 179.758 219.393 179.749 219.306C179.74 219.149 178.455 203.967 187.356 186.732C191.116 179.419 195.883 173.34 201.901 168.14C208.492 162.453 216.447 157.94 226.199 154.349C243.453 148.01 273.152 148.871 273.447 148.88C273.551 148.88 273.647 148.923 273.716 148.993C273.786 149.062 273.82 149.158 273.82 149.262C273.82 149.358 273.777 149.453 273.708 149.523C273.629 149.593 273.534 149.636 273.438 149.627C273.143 149.627 243.592 148.767 226.468 155.062C208.032 161.836 195.823 172.01 188.051 187.062C179.254 204.097 180.522 219.071 180.522 219.227C180.53 219.323 180.504 219.427 180.435 219.497C180.374 219.575 180.279 219.627 180.183 219.636L180.122 219.645Z" fill="#111111"/>
<path d="M225.609 199.393C225.722 197.732 228.284 195.914 232.626 196.14C235.969 196.314 238.982 198.436 238.861 200.097C238.748 201.749 235.674 202.671 232.009 202.471C228.345 202.28 225.488 201.045 225.609 199.393Z" fill="white"/>
<path fill-rule="evenodd" clip-rule="evenodd" d="M232.945 202.88C232.623 202.88 232.311 202.88 231.998 202.854C229.098 202.697 226.77 201.932 225.772 200.793C225.589 200.61 225.45 200.384 225.355 200.132C225.268 199.888 225.225 199.627 225.242 199.367C225.372 197.419 228.195 195.541 232.658 195.767C234.916 195.88 237.252 196.888 238.485 198.28C239.023 198.888 239.292 199.532 239.249 200.114C239.101 202.054 236.027 202.88 232.945 202.88ZM231.894 196.497C231.894 196.497 231.897 196.497 231.903 196.497H231.894ZM225.989 199.419C225.989 199.584 226.015 199.741 226.076 199.897C226.136 200.045 226.223 200.184 226.336 200.297C227.196 201.271 229.384 201.958 232.041 202.097C235.576 202.288 238.407 201.393 238.502 200.071C238.528 199.688 238.329 199.236 237.92 198.775C237.035 197.775 234.994 196.636 232.623 196.523C232.371 196.506 232.128 196.497 231.903 196.497C228.012 196.497 226.076 198.193 225.989 199.419Z" fill="#111111"/>
<path d="M235.932 196.993C235.932 196.993 234.985 196.836 233.527 197.523C231.677 198.393 231.06 200.236 231.043 202.358L235.932 196.993Z" fill="white"/>
<path d="M231.045 202.74C230.999 202.74 230.953 202.729 230.906 202.706C230.86 202.688 230.819 202.662 230.785 202.627C230.75 202.587 230.721 202.543 230.698 202.497C230.681 202.451 230.672 202.404 230.672 202.358C230.698 199.758 231.61 198.019 233.373 197.184C234.918 196.454 235.96 196.61 236.004 196.619C236.099 196.636 236.186 196.688 236.247 196.775C236.308 196.854 236.334 196.958 236.316 197.054C236.299 197.158 236.247 197.245 236.169 197.306C236.082 197.367 235.978 197.393 235.882 197.375C235.865 197.375 235.005 197.254 233.694 197.871C232.192 198.584 231.436 200.054 231.436 202.375C231.436 202.48 231.393 202.567 231.314 202.636C231.245 202.706 231.149 202.74 231.045 202.74Z" fill="#111111"/>
<path d="M233.016 197.81C235.569 198.662 237.01 199.74 238.191 200.949L233.016 197.81Z" fill="white"/>
<path d="M238.189 201.323C238.137 201.323 238.088 201.314 238.041 201.297C237.995 201.28 237.955 201.251 237.92 201.21C236.939 200.21 235.584 199.062 232.901 198.167C232.805 198.132 232.727 198.062 232.684 197.975C232.64 197.888 232.64 197.784 232.666 197.688C232.701 197.593 232.77 197.514 232.866 197.471C232.953 197.428 233.057 197.419 233.153 197.454C235.992 198.401 237.442 199.619 238.484 200.688C238.519 200.723 238.545 200.764 238.563 200.81C238.58 200.856 238.589 200.903 238.589 200.949C238.589 201.001 238.58 201.051 238.563 201.097C238.545 201.143 238.519 201.184 238.484 201.219C238.444 201.259 238.398 201.288 238.345 201.306C238.293 201.323 238.241 201.332 238.189 201.323Z" fill="#111111"/>
<path d="M66.9712 142.358C66.9654 142.393 66.9538 142.422 66.9364 142.445C66.9191 142.474 66.8959 142.5 66.867 142.523C66.8438 142.54 66.8149 142.552 66.7801 142.558C66.7454 142.564 66.7107 142.564 66.6759 142.558C66.647 142.552 66.618 142.54 66.5891 142.523C66.5601 142.506 66.5341 142.482 66.5109 142.454C66.4936 142.43 66.482 142.401 66.4762 142.367C66.4704 142.332 66.4704 142.297 66.4762 142.262L66.4241 135.94C66.4241 135.9 66.4154 135.859 66.398 135.819C66.3807 135.784 66.3546 135.755 66.3199 135.732C66.2851 135.703 66.2475 135.685 66.207 135.68C66.1665 135.674 66.1259 135.677 66.0854 135.688L60.0675 137.584C60.0154 137.619 59.946 137.627 59.8765 137.61C59.8157 137.593 59.7549 137.549 59.7202 137.488C59.6941 137.427 59.6855 137.358 59.7028 137.297C59.7202 137.227 59.7636 137.175 59.8157 137.14L64.7221 133.158C64.7568 133.135 64.7829 133.103 64.8002 133.062C64.8176 133.027 64.8263 132.99 64.8263 132.949C64.8205 132.909 64.8089 132.871 64.7915 132.836C64.7684 132.801 64.7394 132.772 64.7047 132.749L59.4857 129.227C59.4249 129.201 59.3815 129.149 59.3555 129.088C59.3294 129.027 59.3294 128.958 59.3555 128.897C59.3815 128.836 59.4336 128.784 59.4944 128.758C59.5552 128.732 59.6247 128.74 59.6855 128.767L65.851 130.123C65.8915 130.129 65.932 130.126 65.9725 130.114C66.0073 130.103 66.0391 130.085 66.0681 130.062C66.097 130.033 66.1202 130.001 66.1375 129.967C66.1491 129.932 66.1549 129.894 66.1549 129.854L65.6512 123.549C65.6397 123.514 65.6368 123.48 65.6425 123.445C65.6483 123.416 65.6599 123.387 65.6773 123.358C65.6947 123.329 65.7149 123.303 65.7381 123.28C65.767 123.262 65.796 123.248 65.8249 123.236C65.8596 123.23 65.8915 123.227 65.9204 123.227C65.9552 123.233 65.987 123.245 66.016 123.262C66.0449 123.28 66.0709 123.3 66.0941 123.323C66.1115 123.352 66.1259 123.381 66.1375 123.41L68.9163 129.088C68.9337 129.129 68.9598 129.161 68.9945 129.184C69.0234 129.207 69.0582 129.222 69.0987 129.227C69.1392 129.239 69.1797 129.239 69.2203 129.227C69.2608 129.216 69.2955 129.196 69.3245 129.167L73.9269 124.836C73.9703 124.784 74.0224 124.749 74.0919 124.74C74.1527 124.732 74.2221 124.749 74.2742 124.793C74.3263 124.827 74.3611 124.888 74.3698 124.949C74.3871 125.01 74.3698 125.08 74.335 125.132L71.6517 130.854C71.6344 130.888 71.6257 130.926 71.6257 130.967C71.6257 131.007 71.6344 131.045 71.6517 131.08C71.6749 131.12 71.7009 131.152 71.7299 131.175C71.7646 131.198 71.8023 131.213 71.8428 131.219L78.0951 132.123C78.1559 132.123 78.2254 132.14 78.2775 132.193C78.3209 132.236 78.3556 132.297 78.3556 132.367C78.3556 132.427 78.3383 132.497 78.2862 132.54C78.2427 132.593 78.182 132.619 78.1125 132.627L71.973 134.08C71.9325 134.091 71.8949 134.109 71.8601 134.132C71.8312 134.161 71.808 134.193 71.7907 134.227C71.7733 134.268 71.7675 134.309 71.7733 134.349C71.7733 134.39 71.7849 134.427 71.808 134.462L74.995 139.923C75.0297 139.967 75.0471 140.036 75.0384 140.097C75.0297 140.158 75.0037 140.219 74.9516 140.254C74.9082 140.297 74.8474 140.323 74.7866 140.314C74.7258 140.314 74.665 140.288 74.6216 140.245L69.6458 136.349C69.6168 136.32 69.5821 136.303 69.5416 136.297C69.501 136.285 69.4605 136.285 69.42 136.297C69.3795 136.309 69.3447 136.329 69.3158 136.358C69.2868 136.387 69.2666 136.419 69.255 136.454L66.9712 142.358Z" fill="white"/>
<path fill-rule="evenodd" clip-rule="evenodd" d="M66.747 142.897C66.7065 142.903 66.666 142.903 66.6255 142.897C66.4778 142.871 66.3476 142.793 66.2521 142.68C66.1652 142.567 66.1131 142.428 66.1131 142.28L66.061 136.123L60.1908 137.967C60.0518 138.01 59.8955 138.01 59.7566 137.949C59.6263 137.897 59.5134 137.793 59.444 137.662C59.3745 137.532 59.3484 137.384 59.3745 137.236C59.4092 137.097 59.4874 136.967 59.6003 136.871L64.385 132.993L59.279 129.541C59.1574 129.454 59.0706 129.332 59.0271 129.193C58.9837 129.054 58.9924 128.897 59.0532 128.767C59.114 128.628 59.2095 128.514 59.3398 128.454C59.4787 128.384 59.6263 128.367 59.7653 128.393L65.7918 129.714L65.2882 123.575C65.2795 123.428 65.3142 123.288 65.401 123.167C65.4792 123.045 65.6095 122.958 65.7484 122.923C65.8873 122.88 66.035 122.888 66.1739 122.949C66.3042 123.01 66.4171 123.114 66.4778 123.245L69.1959 128.767L73.6767 124.558C73.7896 124.462 73.9285 124.401 74.0675 124.393C74.2151 124.384 74.3627 124.428 74.4843 124.514C74.5972 124.601 74.684 124.723 74.7188 124.871C74.7535 125.01 74.7448 125.158 74.684 125.288L72.0528 130.862L78.1402 131.749C78.2965 131.758 78.4441 131.828 78.5483 131.941C78.6612 132.054 78.722 132.201 78.7307 132.349C78.7307 132.506 78.6873 132.662 78.5831 132.784C78.4875 132.897 78.3486 132.984 78.201 133.001L72.2091 134.428L75.3179 139.741C75.3874 139.871 75.4135 140.019 75.3961 140.158C75.3701 140.306 75.2919 140.436 75.1877 140.532C75.0748 140.628 74.9359 140.688 74.7882 140.688C74.6406 140.697 74.493 140.645 74.3801 140.558L69.5432 136.758L67.3202 142.506C67.2767 142.619 67.1986 142.723 67.0944 142.793C66.9902 142.862 66.8686 142.897 66.747 142.897ZM66.1739 135.314C66.2607 135.314 66.3418 135.329 66.4171 135.358C66.4923 135.387 66.5618 135.433 66.6255 135.497C66.6834 135.555 66.7297 135.622 66.7644 135.697C66.7933 135.772 66.8078 135.854 66.8078 135.941L66.8599 141.628L68.9093 136.323C68.9527 136.228 69.0048 136.149 69.0743 136.08C69.1524 136.01 69.2393 135.967 69.3348 135.941C69.4303 135.914 69.5259 135.906 69.6214 135.932C69.7256 135.949 69.8124 135.993 69.8906 136.045L74.3627 139.567L71.4971 134.654C71.445 134.567 71.4189 134.471 71.4102 134.375C71.4016 134.28 71.4189 134.175 71.4623 134.088C71.4971 133.993 71.5579 133.914 71.636 133.854C71.7055 133.793 71.801 133.741 71.8965 133.723L77.4107 132.41L71.7923 131.593C71.6881 131.575 71.6013 131.541 71.5144 131.48C71.4363 131.428 71.3755 131.349 71.3234 131.262C71.28 131.175 71.2539 131.08 71.2539 130.984C71.2452 130.88 71.2713 130.784 71.3147 130.697L73.7375 125.549L69.5866 129.436C69.5172 129.506 69.4303 129.558 69.3348 129.584C69.2393 129.61 69.1438 129.619 69.0396 129.601C68.944 129.584 68.8572 129.541 68.7704 129.48C68.6922 129.419 68.6314 129.341 68.588 129.254L66.0784 124.149L66.5299 129.819C66.5386 129.923 66.5299 130.019 66.4865 130.114C66.4518 130.201 66.391 130.28 66.3215 130.349C66.2434 130.41 66.1565 130.462 66.061 130.488C65.9655 130.506 65.8613 130.514 65.7658 130.488L60.2255 129.271L64.9408 132.454C65.019 132.506 65.0884 132.584 65.1405 132.671C65.184 132.758 65.21 132.854 65.2187 132.949C65.2187 133.054 65.2013 133.149 65.1579 133.236C65.1232 133.332 65.0624 133.41 64.9842 133.471L60.5729 137.054L65.9915 135.349C66.0494 135.326 66.1102 135.314 66.1739 135.314Z" fill="#111111"/>
<path d="M229.637 143.993C229.637 143.514 229.75 143.036 229.958 142.61C230.166 142.175 230.479 141.801 230.861 141.506C231.243 141.219 231.686 141.019 232.155 140.923C232.624 140.836 233.11 140.854 233.57 140.984L267.811 150.384C268.471 150.567 269.052 150.958 269.469 151.497C269.877 152.045 270.103 152.706 270.103 153.393V173.488C270.103 173.967 269.99 174.445 269.782 174.871C269.574 175.306 269.261 175.68 268.879 175.967C268.497 176.262 268.054 176.462 267.585 176.558C267.116 176.645 266.63 176.627 266.169 176.497L231.938 167.097C231.278 166.923 230.696 166.523 230.279 165.984C229.871 165.436 229.645 164.775 229.645 164.088L229.637 143.993Z" fill="#111111"/>
<path d="M229.297 144.262C229.297 143.801 229.401 143.34 229.609 142.923C229.818 142.506 230.113 142.141 230.478 141.862C230.851 141.584 231.277 141.393 231.737 141.297C232.189 141.21 232.658 141.227 233.109 141.349L266.255 150.445C266.889 150.619 267.454 150.993 267.853 151.523C268.252 152.045 268.469 152.688 268.469 153.349V172.784C268.469 173.245 268.365 173.706 268.157 174.123C267.957 174.541 267.653 174.897 267.289 175.184C266.915 175.462 266.49 175.654 266.038 175.741C265.578 175.836 265.109 175.81 264.666 175.688L231.52 166.601C230.877 166.427 230.313 166.054 229.913 165.523C229.514 165.001 229.297 164.358 229.297 163.697V144.262Z" fill="white"/>
<path fill-rule="evenodd" clip-rule="evenodd" d="M265.467 176.175C265.163 176.175 264.859 176.141 264.564 176.054L231.418 166.967C230.706 166.767 230.072 166.341 229.62 165.758C229.169 165.167 228.926 164.445 228.926 163.697V144.262C228.926 143.741 229.047 143.228 229.282 142.758C229.508 142.297 229.846 141.888 230.263 141.575C230.68 141.254 231.158 141.036 231.67 140.941C232.182 140.845 232.712 140.862 233.207 141.001L266.353 150.088C267.074 150.288 267.699 150.714 268.151 151.297C268.602 151.888 268.845 152.61 268.854 153.349V172.784C268.854 173.68 268.498 174.541 267.864 175.175C267.23 175.819 266.37 176.175 265.467 176.175ZM232.304 141.619C231.609 141.628 230.94 141.906 230.454 142.401C229.959 142.897 229.681 143.567 229.681 144.262V163.697C229.681 164.271 229.872 164.836 230.22 165.297C230.576 165.758 231.062 166.088 231.626 166.236L264.764 175.332C265.155 175.436 265.571 175.454 265.971 175.375C266.37 175.297 266.744 175.123 267.065 174.88C267.386 174.636 267.647 174.314 267.829 173.949C268.012 173.584 268.098 173.184 268.107 172.784V153.349C268.098 152.775 267.916 152.21 267.56 151.749C267.213 151.288 266.718 150.958 266.162 150.801L233.016 141.714C232.781 141.654 232.547 141.619 232.304 141.619Z" fill="#111111"/>
<path d="M207.842 180.227C207.599 180.158 207.39 180.01 207.234 179.801C207.078 179.601 206.991 179.358 206.973 179.106C206.965 178.845 207.034 178.593 207.173 178.384C207.312 178.167 207.512 178.001 207.746 177.906L229.204 169.149C229.456 169.045 229.742 169.027 230.003 169.097L266.622 179.384C266.866 179.454 267.091 179.593 267.248 179.793C267.413 179.993 267.508 180.236 267.526 180.488C267.543 180.749 267.473 181.001 267.343 181.219C267.204 181.436 267.013 181.61 266.77 181.714L244.253 191.306C243.984 191.419 243.68 191.436 243.402 191.349L207.842 180.227Z" fill="#111111"/>
<path fill-rule="evenodd" clip-rule="evenodd" d="M243.775 192.027C243.584 192.027 243.399 191.998 243.219 191.941L207.659 180.819C207.294 180.697 206.982 180.48 206.747 180.175C206.513 179.871 206.383 179.506 206.365 179.132C206.348 178.749 206.452 178.375 206.66 178.054C206.86 177.732 207.164 177.48 207.511 177.341L228.978 168.584C229.351 168.427 229.777 168.401 230.167 168.514L266.787 178.793C267.152 178.897 267.482 179.114 267.725 179.41C267.968 179.706 268.107 180.071 268.133 180.454C268.159 180.836 268.064 181.219 267.864 181.541C267.664 181.871 267.36 182.123 267.013 182.271L244.504 191.88C244.27 191.975 244.027 192.027 243.775 192.027ZM208.024 179.645L243.584 190.775C243.732 190.819 243.879 190.81 244.018 190.758L266.527 181.149C266.648 181.097 266.752 181.01 266.822 180.906C266.891 180.793 266.917 180.662 266.909 180.532C266.9 180.401 266.857 180.28 266.77 180.175C266.692 180.08 266.579 180.001 266.448 179.967L229.837 169.688C229.699 169.654 229.56 169.654 229.429 169.706L207.972 178.462C207.85 178.514 207.755 178.593 207.685 178.706C207.616 178.81 207.581 178.941 207.581 179.071C207.59 179.201 207.633 179.323 207.711 179.427C207.789 179.532 207.902 179.601 208.024 179.645Z" fill="#111111"/>
<path d="M208.006 178.749C207.763 178.671 207.546 178.523 207.398 178.323C207.242 178.114 207.146 177.871 207.137 177.619C207.129 177.367 207.198 177.114 207.337 176.897C207.476 176.68 207.676 176.514 207.91 176.419L229.368 167.662C229.62 167.558 229.898 167.54 230.167 167.619L266.786 177.897C267.03 177.967 267.247 178.106 267.412 178.306C267.568 178.506 267.664 178.749 267.681 179.01C267.698 179.262 267.637 179.514 267.499 179.74C267.368 179.958 267.169 180.123 266.934 180.227L244.426 189.827C244.156 189.949 243.853 189.958 243.575 189.871L208.006 178.749Z" fill="white"/>
<path fill-rule="evenodd" clip-rule="evenodd" d="M243.93 190.314C243.774 190.314 243.609 190.297 243.453 190.245L207.893 179.114C207.58 179.019 207.293 178.819 207.094 178.558C206.894 178.297 206.781 177.975 206.764 177.645C206.746 177.314 206.842 176.984 207.016 176.706C207.198 176.427 207.458 176.21 207.762 176.08L229.22 167.323C229.559 167.184 229.923 167.167 230.271 167.262L266.882 177.54C267.212 177.636 267.49 177.819 267.707 178.08C267.915 178.34 268.037 178.662 268.063 178.993C268.08 179.332 268.002 179.662 267.828 179.949C267.646 180.227 267.385 180.454 267.081 180.584L244.573 190.184C244.373 190.271 244.156 190.314 243.93 190.314ZM229.837 167.967C229.721 167.967 229.611 167.987 229.507 168.027L208.049 176.784C207.884 176.854 207.745 176.967 207.649 177.114C207.554 177.262 207.502 177.445 207.511 177.619C207.519 177.793 207.58 177.967 207.693 178.106C207.797 178.245 207.945 178.349 208.118 178.401L243.679 189.532C243.87 189.593 244.087 189.584 244.269 189.506L266.786 179.897C266.942 179.827 267.081 179.706 267.177 179.558C267.272 179.401 267.316 179.227 267.299 179.054C267.29 178.871 267.22 178.706 267.107 178.567C267.003 178.427 266.847 178.323 266.673 178.28L230.062 168.001C229.987 167.972 229.912 167.955 229.837 167.949V167.967Z" fill="#111111"/>
<path d="M223.956 181.262C223.774 181.201 223.617 181.088 223.504 180.941C223.392 180.793 223.322 180.61 223.313 180.428C223.305 180.236 223.357 180.054 223.461 179.897C223.565 179.732 223.713 179.61 223.887 179.541L227.204 178.184C227.395 178.114 227.595 178.097 227.794 178.158L234.62 180.071C234.793 180.123 234.958 180.228 235.08 180.375C235.193 180.523 235.262 180.697 235.28 180.888C235.288 181.08 235.245 181.262 235.141 181.428C235.045 181.584 234.898 181.714 234.724 181.793L231.19 183.297C230.99 183.384 230.773 183.393 230.564 183.332L223.956 181.262Z" fill="white"/>
<path fill-rule="evenodd" clip-rule="evenodd" d="M230.836 183.732C230.708 183.732 230.581 183.711 230.454 183.671L223.845 181.61C223.593 181.532 223.368 181.375 223.211 181.158C223.046 180.949 222.951 180.697 222.942 180.427C222.933 180.167 223.003 179.906 223.151 179.68C223.289 179.454 223.498 179.28 223.741 179.184L227.058 177.827C227.327 177.714 227.623 177.706 227.901 177.775L234.717 179.697C234.978 179.767 235.204 179.914 235.369 180.123C235.534 180.332 235.638 180.584 235.655 180.854C235.673 181.123 235.603 181.384 235.464 181.61C235.325 181.836 235.117 182.019 234.874 182.123L231.339 183.627C231.183 183.697 231.009 183.732 230.836 183.732ZM224.062 180.888L230.688 182.958C230.81 182.993 230.94 182.984 231.053 182.94L234.587 181.427C234.691 181.384 234.769 181.314 234.83 181.219C234.891 181.123 234.917 181.01 234.908 180.906C234.9 180.793 234.856 180.688 234.787 180.601C234.717 180.514 234.631 180.454 234.518 180.427L227.692 178.497C227.579 178.462 227.458 178.471 227.345 178.514L224.028 179.871C223.923 179.914 223.845 179.984 223.784 180.08C223.724 180.167 223.698 180.28 223.706 180.384C223.706 180.497 223.741 180.601 223.811 180.688C223.88 180.775 223.967 180.836 224.071 180.871L224.062 180.888Z" fill="#111111"/>
<path d="M197.793 147.958C197.793 147.271 198.062 146.619 198.548 146.132C199.026 145.645 199.686 145.375 200.372 145.375H212.911C213.589 145.375 214.249 145.645 214.726 146.132C215.213 146.619 215.482 147.271 215.482 147.958V148.419C215.482 149.001 215.317 149.575 214.996 150.071C214.77 150.427 216.802 152.784 216.446 153.019C215.968 153.332 213.059 151.462 212.434 151.462H200.372C199.686 151.462 199.026 151.193 198.548 150.706C198.062 150.219 197.793 149.567 197.793 148.88V147.958Z" fill="white"/>
<path fill-rule="evenodd" clip-rule="evenodd" d="M216.288 153.427C215.845 153.427 215.15 153.114 213.943 152.506C213.387 152.227 212.632 151.845 212.441 151.836H200.37C199.58 151.836 198.833 151.523 198.278 150.975C197.722 150.419 197.418 149.671 197.418 148.88V147.958C197.418 147.175 197.722 146.419 198.278 145.871C198.833 145.314 199.58 145.001 200.37 145.001H212.91C213.691 145.001 214.438 145.314 214.994 145.871C215.55 146.419 215.862 147.175 215.862 147.958V148.419C215.854 149.036 215.68 149.645 215.359 150.175C215.556 150.581 215.784 150.967 216.045 151.332C216.679 152.297 216.913 152.697 216.844 153.027C216.818 153.149 216.748 153.254 216.644 153.323C216.54 153.393 216.409 153.436 216.288 153.427ZM200.37 145.758C199.78 145.758 199.224 145.984 198.816 146.401C198.399 146.81 198.165 147.375 198.165 147.958V148.88C198.165 149.471 198.399 150.027 198.816 150.436C199.224 150.854 199.78 151.088 200.37 151.088H212.432C212.771 151.088 213.327 151.358 214.282 151.836C214.826 152.12 215.382 152.378 215.949 152.61C215.802 152.358 215.584 152.01 215.419 151.758C214.733 150.714 214.438 150.236 214.664 149.871C214.942 149.436 215.09 148.94 215.09 148.427V147.958C215.09 147.375 214.855 146.81 214.447 146.401C214.03 145.984 213.474 145.758 212.892 145.758H200.37Z" fill="#111111"/>
<path d="M201.961 148.497C201.961 148.297 202.022 148.097 202.135 147.932C202.239 147.767 202.395 147.645 202.586 147.567C202.769 147.488 202.968 147.471 203.159 147.506C203.359 147.549 203.533 147.645 203.672 147.784C203.819 147.923 203.915 148.106 203.95 148.297C203.993 148.488 203.967 148.697 203.889 148.88C203.819 149.062 203.689 149.219 203.524 149.332C203.359 149.436 203.168 149.497 202.968 149.497C202.699 149.497 202.447 149.393 202.256 149.201C202.065 149.019 201.961 148.758 201.961 148.497Z" fill="#111111"/>
<path d="M205.68 148.48C205.68 148.28 205.732 148.08 205.845 147.914C205.958 147.749 206.105 147.619 206.296 147.541C206.479 147.462 206.678 147.436 206.869 147.48C207.069 147.514 207.251 147.61 207.39 147.749C207.529 147.888 207.625 148.071 207.668 148.262C207.712 148.462 207.686 148.662 207.616 148.845C207.538 149.028 207.408 149.184 207.243 149.297C207.078 149.41 206.887 149.471 206.687 149.471C206.418 149.471 206.166 149.367 205.984 149.175C205.793 148.993 205.688 148.741 205.68 148.48Z" fill="#111111"/>
<path d="M209.395 148.48C209.395 148.288 209.455 148.088 209.568 147.923C209.672 147.758 209.829 147.628 210.02 147.558C210.202 147.48 210.402 147.462 210.593 147.497C210.793 147.541 210.966 147.636 211.114 147.775C211.253 147.914 211.348 148.097 211.383 148.288C211.427 148.48 211.4 148.688 211.331 148.871C211.253 149.054 211.123 149.21 210.958 149.323C210.793 149.427 210.602 149.488 210.402 149.488C210.133 149.488 209.881 149.384 209.69 149.193C209.499 149.001 209.395 148.749 209.395 148.48Z" fill="#111111"/>
<path d="M194.785 71.0866C194.253 70.9398 193.81 70.6856 193.457 70.3241C193.104 69.9626 192.87 69.5207 192.755 68.9983C192.641 68.4732 192.671 67.8948 192.845 67.263C193.021 66.6259 193.292 66.1126 193.659 65.7233C194.029 65.3321 194.458 65.0716 194.943 64.9418C195.432 64.8128 195.942 64.8217 196.474 64.9685C196.801 65.0587 197.094 65.1885 197.355 65.3579C197.618 65.5281 197.839 65.7312 198.018 65.9672C198.197 66.2032 198.325 66.4667 198.403 66.7578C198.483 67.0497 198.505 67.3612 198.467 67.6922L197.528 67.4329C197.546 67.2284 197.525 67.039 197.466 66.8649C197.41 66.6888 197.324 66.5303 197.208 66.3892C197.096 66.2462 196.958 66.1249 196.795 66.0254C196.635 65.9239 196.457 65.846 196.26 65.7917C195.906 65.6938 195.562 65.6921 195.229 65.7866C194.899 65.8792 194.606 66.0709 194.35 66.3617C194.098 66.6506 193.905 67.0363 193.771 67.5188C193.637 68.004 193.606 68.4357 193.677 68.8141C193.75 69.1898 193.903 69.5019 194.139 69.7505C194.374 69.9992 194.668 70.172 195.019 70.2691C195.216 70.3234 195.408 70.3493 195.597 70.3469C195.785 70.3444 195.966 70.3124 196.138 70.2509C196.309 70.1893 196.464 70.1 196.6 69.9828C196.741 69.8637 196.857 69.7135 196.948 69.5323L197.887 69.7915C197.758 70.0744 197.588 70.3186 197.376 70.5241C197.165 70.7269 196.923 70.8867 196.649 71.0034C196.377 71.1174 196.083 71.1839 195.767 71.203C195.453 71.2195 195.125 71.1807 194.785 71.0866Z" fill="white"/>
<path d="M200.105 72.5688C199.671 72.4488 199.316 72.2476 199.043 71.9655C198.772 71.6841 198.594 71.3452 198.51 70.9489C198.428 70.5534 198.451 70.1264 198.577 69.6679C198.705 69.2041 198.906 68.8233 199.179 68.5257C199.455 68.2262 199.782 68.0252 200.159 67.9227C200.539 67.821 200.946 67.8302 201.381 67.9503C201.818 68.0711 202.173 68.2722 202.444 68.5536C202.715 68.835 202.892 69.1752 202.976 69.5741C203.06 69.9704 203.038 70.4005 202.91 70.8643C202.783 71.3228 202.582 71.7005 202.306 71.9974C202.031 72.2942 201.704 72.4939 201.327 72.5964C200.95 72.6988 200.543 72.6897 200.105 72.5688ZM200.308 71.8371C200.593 71.9158 200.848 71.9088 201.073 71.8161C201.299 71.7234 201.488 71.5706 201.643 71.3579C201.8 71.1432 201.918 70.8945 201.996 70.612C202.076 70.324 202.103 70.0475 202.078 69.7823C202.055 69.5179 201.971 69.2882 201.825 69.093C201.68 68.8978 201.464 68.7608 201.179 68.682C200.896 68.604 200.642 68.6114 200.417 68.7041C200.195 68.7976 200.005 68.9517 199.847 69.1664C199.689 69.3811 199.571 69.6324 199.491 69.9203C199.413 70.2028 199.387 70.4767 199.412 70.7419C199.438 71.0044 199.522 71.2328 199.665 71.4273C199.811 71.6225 200.025 71.759 200.308 71.8371Z" fill="white"/>
<path d="M204.708 70.8875L203.976 73.5387L203.079 73.291L204.314 68.8203L205.186 69.0612L204.983 69.797L205.045 69.8142C205.217 69.6007 205.435 69.4542 205.698 69.3749C205.962 69.2929 206.27 69.3004 206.622 69.3975C206.938 69.4847 207.196 69.6248 207.396 69.8178C207.599 70.0088 207.731 70.2476 207.792 70.5341C207.856 70.8214 207.837 71.1504 207.735 71.5209L206.951 74.36L206.053 74.1123L206.809 71.3771C206.898 71.0545 206.879 70.7768 206.753 70.5439C206.627 70.3084 206.412 70.1485 206.107 70.0644C205.899 70.0071 205.7 70.0008 205.509 70.0455C205.321 70.0884 205.157 70.1795 205.017 70.3187C204.878 70.458 204.775 70.6476 204.708 70.8875Z" fill="white"/>
<path d="M211.387 70.7735L211.193 71.4733L208.572 70.7495L208.765 70.0497L211.387 70.7735ZM208.245 74.7176L209.623 69.7271C209.7 69.4499 209.827 69.2369 210.006 69.0881C210.187 68.9375 210.394 68.8455 210.627 68.8122C210.863 68.777 211.102 68.7927 211.343 68.8592C211.528 68.9104 211.682 68.9687 211.804 69.034C211.926 69.0992 212.015 69.1509 212.07 69.1891L211.66 69.8332C211.622 69.8084 211.572 69.7789 211.51 69.7445C211.451 69.7109 211.372 69.6807 211.275 69.654C211.057 69.5936 210.884 69.6033 210.758 69.6832C210.632 69.7604 210.542 69.8989 210.486 70.0989L209.143 74.9654L208.245 74.7176Z" fill="white"/>
<path d="M210.853 75.4376L212.087 70.967L212.985 71.2148L211.75 75.6854L210.853 75.4376ZM212.73 70.4043C212.572 70.3607 212.452 70.2729 212.369 70.1411C212.286 70.0092 212.264 69.8726 212.304 69.7313C212.343 69.5873 212.433 69.48 212.571 69.4093C212.71 69.3386 212.858 69.325 213.016 69.3686C213.171 69.4114 213.29 69.4988 213.373 69.6307C213.459 69.7633 213.481 69.9016 213.442 70.0456C213.403 70.1869 213.312 70.2925 213.171 70.3624C213.032 70.4332 212.885 70.4471 212.73 70.4043Z" fill="white"/>
<path d="M212.742 75.9592L213.976 71.4886L214.845 71.7284L214.647 72.4441L214.697 72.4579C214.849 72.2417 215.051 72.0937 215.302 72.014C215.557 71.9323 215.82 71.929 216.092 72.0039C216.147 72.0192 216.211 72.0399 216.285 72.0658C216.362 72.0899 216.423 72.1111 216.468 72.1294L216.239 72.9612C216.206 72.9406 216.144 72.912 216.052 72.8753C215.964 72.8394 215.873 72.8084 215.778 72.7824C215.565 72.7236 215.362 72.7148 215.169 72.7561C214.979 72.7955 214.815 72.8778 214.676 73.003C214.54 73.1263 214.446 73.2866 214.391 73.4839L213.639 76.207L212.742 75.9592Z" fill="white"/>
<path d="M215.786 76.7997L217.02 72.3291L217.88 72.5666L217.677 73.3023L217.739 73.3195C217.904 73.0984 218.116 72.9487 218.373 72.8705C218.633 72.7904 218.916 72.7924 219.22 72.8765C219.531 72.9621 219.77 73.1043 219.939 73.3029C220.111 73.4997 220.214 73.7362 220.248 74.0124L220.298 74.0261C220.476 73.8141 220.704 73.6708 220.984 73.596C221.265 73.5186 221.572 73.5257 221.904 73.6175C222.325 73.7337 222.634 73.9569 222.832 74.287C223.031 74.6144 223.06 75.0341 222.918 75.5459L222.091 78.541L221.186 78.2909L221.991 75.3758C222.075 75.0719 222.049 74.8296 221.914 74.6489C221.78 74.4656 221.594 74.341 221.356 74.2752C221.062 74.1942 220.809 74.219 220.597 74.3499C220.389 74.4788 220.248 74.6765 220.174 74.9431L219.387 77.7943L218.481 77.5442L219.302 74.5731C219.369 74.3305 219.345 74.1145 219.23 73.9251C219.116 73.7356 218.933 73.6061 218.681 73.5365C218.509 73.4891 218.337 73.4891 218.166 73.5365C217.999 73.5821 217.849 73.6699 217.718 73.8001C217.59 73.9283 217.499 74.0924 217.444 74.2924L216.683 77.0475L215.786 76.7997Z" fill="white"/>
<path d="M211.094 55.1129L209.789 60.9852L208.984 60.8027L207.044 55.8428L206.986 55.8298L206.03 60.1336L205.167 59.938L206.471 54.0656L207.269 54.2464L209.219 59.2168L209.273 59.229L210.231 54.9173L211.094 55.1129Z" fill="white"/>
<path d="M212.596 61.7161C212.176 61.6211 211.834 61.4456 211.568 61.1895C211.303 60.9334 211.125 60.6171 211.034 60.2405C210.946 59.8618 210.952 59.4452 211.053 58.9907C211.154 58.5388 211.323 58.1589 211.56 57.8512C211.8 57.5441 212.089 57.328 212.426 57.2028C212.765 57.0756 213.135 57.0572 213.534 57.1475C213.777 57.2026 214.003 57.2966 214.213 57.4296C214.422 57.5626 214.598 57.7377 214.741 57.9549C214.883 58.1721 214.975 58.4331 215.018 58.738C215.063 59.0435 215.041 59.3946 214.953 59.7913L214.885 60.0988L211.474 59.3262L211.617 58.6837L214.598 59.359L214.163 59.4841C214.223 59.2134 214.235 58.9651 214.2 58.739C214.164 58.5128 214.077 58.3234 213.939 58.1708C213.804 58.016 213.617 57.9114 213.376 57.857C213.136 57.8025 212.917 57.815 212.719 57.8944C212.524 57.9744 212.36 58.1015 212.228 58.2756C212.095 58.4498 212.003 58.6525 211.951 58.8837L211.854 59.3211C211.787 59.6233 211.781 59.8911 211.837 60.1244C211.893 60.3578 211.999 60.5502 212.156 60.7017C212.316 60.8538 212.517 60.9574 212.76 61.0124C212.918 61.0483 213.067 61.0571 213.205 61.0388C213.346 61.021 213.475 60.9756 213.59 60.9024C213.706 60.8293 213.803 60.7286 213.883 60.6003L214.639 60.9331C214.523 61.1551 214.364 61.3371 214.163 61.4793C213.962 61.6215 213.728 61.7147 213.46 61.7589C213.196 61.8011 212.908 61.7868 212.596 61.7161Z" fill="white"/>
<path d="M215.948 62.3805L215.669 57.6892L216.528 57.8838L216.649 61.3099L216.695 61.3203L218.254 58.2749L219.117 58.4704L219.234 61.8829L219.276 61.8925L220.828 58.858L221.688 59.0527L219.451 63.1739L218.603 62.9818L218.434 59.6071L218.376 59.5941L216.796 62.5725L215.948 62.3805Z" fill="white"/>
<defs>
<linearGradient id="paint0_linear_8757_21739" x1="162" y1="64.5" x2="280.049" y2="135.734" gradientUnits="userSpaceOnUse">
<stop stop-color="#35A1DA"/>
<stop offset="0.25" stop-color="#857BBD"/>
<stop offset="0.5" stop-color="#E8584B"/>
<stop offset="0.75" stop-color="#584F9E"/>
<stop offset="1" stop-color="#CE4C9B"/>
</linearGradient>
</defs>
</svg>
