<svg width="80" height="80" viewBox="0 0 80 80" fill="none" xmlns="http://www.w3.org/2000/svg">
<circle cx="40" cy="40" r="40" fill="#26AD5F" fill-opacity="0.25"/>
<path d="M68 40V41.4C67.825 43.15 67.65 44.9 67.3 46.65C65.9 52.6 62.575 57.675 58.025 61.525C57.85 61.7 57.5 61.875 57.325 62.05C55.75 63.275 54 64.325 52.075 65.2C51.725 65.375 51.375 65.55 51.025 65.725C50.325 66.075 49.625 66.25 48.925 66.425C48.05 66.775 47.175 66.95 46.3 67.125C44.2 67.825 42.1 68 40 68C24.6 68 12 55.4 12 40C12 24.6 24.6 12 40 12C55.4 12 68 24.6 68 40Z" fill="#26AD5F"/>
<path d="M29 41L37.8 49L51 31" stroke="white" stroke-width="4" stroke-linecap="round" stroke-linejoin="round"/>
</svg>
